<svg width="28" height="28" viewBox="0 0 28 28" fill="none" xmlns="http://www.w3.org/2000/svg">
<rect x="0.136719" width="27.8607" height="27.8317" rx="13.9159" fill="#59B8C5"/>
<g clip-path="url(#clip0_953:6940)">
<path d="M21.2522 16.0288C21.7132 12.1479 21.0306 9.69772 19.7995 8.58952L19.8001 8.58888C17.8129 6.69637 11.1019 6.41626 8.72451 8.67387C7.65688 9.77821 7.28082 11.399 7.23961 13.4055C7.1984 15.4126 7.14946 19.1725 10.6531 20.1925H10.6563L10.6531 21.7502C10.6531 21.7502 10.6293 22.3812 11.0324 22.5081C11.4934 22.6575 11.702 22.3645 13.1361 20.6516C15.5341 20.8596 17.3757 20.3831 17.585 20.3135C18.0692 20.1513 20.8091 19.7887 21.2522 16.0288ZM13.3724 19.5556C13.3724 19.5556 11.8547 21.4482 11.3827 21.9395C11.2281 22.0992 11.0588 22.0844 11.0613 21.7675C11.0613 21.5596 11.0729 19.1815 11.0729 19.1815C8.10248 18.3302 8.27762 15.1286 8.30982 13.4538C8.34202 11.7783 8.64853 10.406 9.5526 9.48201C11.6383 7.52639 17.5219 7.96362 19.0209 9.37254C20.8536 10.9972 20.2013 15.5871 20.2051 15.7436C19.8284 18.8821 17.6082 19.0811 17.1999 19.2169C17.0254 19.2749 15.4059 19.6915 13.3724 19.5556Z" fill="#222D31"/>
<path d="M14.2094 9.84766C13.9615 9.84766 13.9615 10.234 14.2094 10.2372C16.1328 10.252 17.7168 11.5927 17.7342 14.0519C17.7342 14.3114 18.1142 14.3082 18.1109 14.0486H18.1103C18.0897 11.3989 16.3601 9.86247 14.2094 9.84766Z" fill="#222D31"/>
<path d="M16.7404 13.6463C16.7346 13.9026 17.1139 13.9148 17.1171 13.6553C17.1486 12.1942 16.2478 10.9907 14.5549 10.8639C14.307 10.8459 14.2812 11.2354 14.5285 11.2535C15.9966 11.3649 16.77 12.3668 16.7404 13.6463Z" fill="#222D31"/>
<path d="M16.3348 15.3091C16.0167 15.125 15.6928 15.2396 15.5588 15.4205L15.2787 15.7831C15.1364 15.9672 14.8705 15.9428 14.8705 15.9428C12.9297 15.4296 12.4107 13.3986 12.4107 13.3986C12.4107 13.3986 12.3868 13.1236 12.5646 12.9762L12.9149 12.6864C13.09 12.5473 13.2008 12.2125 13.0224 11.8834C12.5459 11.0225 12.2259 10.7256 12.0629 10.4977C11.8917 10.2833 11.6341 10.235 11.3662 10.3799H11.3604C10.8034 10.7057 10.1936 11.3155 10.3887 11.9433C10.7216 12.6053 11.3334 14.7154 13.2832 16.3098C14.1995 17.0638 15.6496 17.8366 16.2652 18.0149L16.271 18.0239C16.8776 18.2261 17.4674 17.5925 17.7823 17.0188V17.0143C17.9221 16.7367 17.8757 16.474 17.6716 16.3021C17.3097 15.9492 16.7636 15.5596 16.3348 15.3091Z" fill="#222D31"/>
<path d="M14.8176 12.3001C15.4364 12.3362 15.7365 12.6595 15.7687 13.3233C15.7803 13.5829 16.157 13.5648 16.1454 13.3053C16.1042 12.4386 15.6521 11.9556 14.8382 11.9106C14.5903 11.8958 14.5671 12.2853 14.8176 12.3001Z" fill="#222D31"/>
</g>
<defs>
<clipPath id="clip0_953:6940">
<rect width="15.4543" height="15.4543" fill="white" transform="translate(6.33984 7.08203)"/>
</clipPath>
</defs>
</svg>
