<svg width="29" height="28" viewBox="0 0 29 28" fill="none" xmlns="http://www.w3.org/2000/svg">
<mask id="mask0_953:6923" style="mask-type:alpha" maskUnits="userSpaceOnUse" x="0" y="0" width="28" height="28">
<rect x="0.835938" width="27.0169" height="27.045" rx="13.5084" fill="white"/>
</mask>
<g mask="url(#mask0_953:6923)">
<path d="M24.6475 0H4.31679C2.24555 0 0.566406 1.67908 0.566406 3.75038V24.0812C0.566406 26.1525 2.24548 27.8316 4.31679 27.8316H14.3438L14.3609 17.8861H11.777C11.4413 17.8861 11.1687 17.6146 11.1674 17.2788L11.155 14.0729C11.1537 13.7353 11.4271 13.4609 11.7647 13.4609H14.3439V10.3633C14.3439 6.76845 16.5393 4.81105 19.7461 4.81105H22.3776C22.7142 4.81105 22.9873 5.084 22.9873 5.42074V8.12393C22.9873 8.46053 22.7144 8.73341 22.3779 8.73362L20.763 8.73437C19.0191 8.73437 18.6814 9.56308 18.6814 10.7793V13.461H22.5135C22.8786 13.461 23.1619 13.7798 23.1189 14.1424L22.7389 17.3483C22.7025 17.6551 22.4424 17.8862 22.1335 17.8862H18.6985L18.6814 27.8317H24.6476C26.7189 27.8317 28.3979 26.1526 28.3979 24.0814V3.75038C28.3979 1.67908 26.7188 0 24.6475 0Z" fill="#59B8C5"/>
</g>
</svg>
