<svg width="29" height="28" viewBox="0 0 29 28" fill="none" xmlns="http://www.w3.org/2000/svg">
<path fill-rule="evenodd" clip-rule="evenodd" d="M14.61 0C6.92453 0 0.679688 6.23034 0.679688 13.9159C0.679688 21.6014 6.92453 27.8317 14.61 27.8317C22.2956 27.8317 28.5404 21.6014 28.5404 13.9159C28.5404 6.23034 22.2956 0 14.61 0ZM10.3652 19.9936C11.0957 20.1006 11.8219 20.154 12.5274 20.154C13.344 20.154 14.1329 20.0824 14.8675 19.9395C16.3652 19.6483 17.6258 19.0788 18.6143 18.247C19.4132 17.5746 20.0154 16.7412 20.404 15.7699C20.8149 14.7432 20.9868 13.5587 20.9152 12.2496C20.8964 11.9052 20.9974 11.5766 21.1995 11.3243C22.007 10.3169 22.066 10.2339 22.1134 10.1671L22.1141 10.1662C22.1257 10.1498 22.1346 10.1372 22.1677 10.095L22.7559 9.34383L21.7606 9.38593C21.7175 9.38768 21.6761 9.39035 21.636 9.39349L22.2439 7.77154L21.3118 8.0716C21.0617 8.1521 20.8612 8.2226 20.6845 8.28478L20.6785 8.28688L20.6783 8.28692C20.3822 8.39111 20.163 8.4682 19.8655 8.54042C19.2564 8.0288 18.4894 7.73305 17.6446 7.68455C16.8483 7.63884 16.0449 7.82318 15.3825 8.20361C14.786 8.54623 14.3372 9.02691 14.0849 9.59376C13.8681 10.0806 13.8027 10.6237 13.89 11.1865C11.7507 10.9091 9.94821 9.96163 8.52511 8.36434L8.07513 7.85935L7.73868 8.43644C7.3136 9.16554 7.17245 9.99931 7.34111 10.7841C7.41032 11.1059 7.52807 11.413 7.69101 11.7005L7.30476 11.5607L7.25896 12.1635C7.21253 12.7759 7.43073 13.4906 7.84286 14.0755C7.95875 14.24 8.10824 14.421 8.29757 14.5993L8.09791 14.5708L8.34138 15.2614C8.6614 16.169 9.32622 16.8711 10.1888 17.2614C9.32734 17.6029 8.63141 17.821 7.48737 18.1724L6.44079 18.494L7.40746 18.9878C7.77602 19.1761 9.07852 19.805 10.3652 19.9936Z" fill="#59B8C5"/>
</svg>
