<svg width="29" height="28" viewBox="0 0 29 28" fill="none" xmlns="http://www.w3.org/2000/svg">
<rect x="0.914062" width="27.8607" height="27.8317" rx="13.9159" fill="#59B8C5"/>
<g clip-path="url(#clip0_953:6935)">
<path d="M14.8463 6.1875H14.8424C10.5818 6.1875 7.11719 9.65313 7.11719 13.9147C7.11719 15.605 7.66195 17.1716 8.58824 18.4437L7.62525 21.3144L10.5954 20.3649C11.8172 21.1743 13.2748 21.6418 14.8463 21.6418C19.1068 21.6418 22.5715 18.1752 22.5715 13.9147C22.5715 9.65409 19.1068 6.1875 14.8463 6.1875Z" fill="#222D31"/>
<path d="M19.3431 17.1001C19.1567 17.6266 18.4168 18.0631 17.8267 18.1906C17.4229 18.2766 16.8955 18.3452 15.1202 17.6092C12.8494 16.6684 11.387 14.3609 11.2731 14.2112C11.1639 14.0614 10.3555 12.9893 10.3555 11.8805C10.3555 10.7716 10.9186 10.2317 11.1456 9.99987C11.332 9.80959 11.6401 9.72266 11.9357 9.72266C12.0313 9.72266 12.1173 9.72749 12.1945 9.73135C12.4215 9.74101 12.5355 9.75453 12.6852 10.1129C12.8716 10.562 13.3256 11.6709 13.3797 11.7848C13.4347 11.8988 13.4898 12.0534 13.4125 12.2031C13.3401 12.3576 13.2763 12.4262 13.1624 12.5576C13.0484 12.6889 12.9402 12.7894 12.8262 12.9304C12.7219 13.0531 12.6041 13.1844 12.7354 13.4114C12.8668 13.6336 13.3208 14.3744 13.9892 14.9694C14.8517 15.7373 15.551 15.9826 15.8012 16.0869C15.9876 16.1642 16.2098 16.1458 16.3459 16.001C16.5188 15.8145 16.7323 15.5055 16.9496 15.2012C17.1042 14.9829 17.2993 14.9559 17.504 15.0331C17.7127 15.1056 18.8167 15.6513 19.0437 15.7643C19.2707 15.8783 19.4204 15.9324 19.4754 16.028C19.5295 16.1236 19.5295 16.5728 19.3431 17.1001Z" fill="#59B8C5"/>
</g>
<defs>
<clipPath id="clip0_953:6935">
<rect width="15.4543" height="15.4543" fill="white" transform="translate(7.11719 6.1875)"/>
</clipPath>
</defs>
</svg>
