<svg width="47" height="30" viewBox="0 0 47 30" fill="none" xmlns="http://www.w3.org/2000/svg">
<rect opacity="0.15" x="0.527344" width="45.7082" height="29.2532" rx="3" fill="#969696"/>
<path d="M28.8843 6.39941C26.7658 6.39998 24.8347 7.203 23.3793 8.52192C21.9228 7.2047 19.9928 6.40111 17.8765 6.40111C17.859 6.40111 17.8408 6.40111 17.8239 6.40111C13.3172 6.43056 9.66797 10.0968 9.66797 14.6097C9.66797 19.1407 13.3455 22.8177 17.876 22.8177C19.9922 22.8177 21.9222 22.0152 23.3781 20.6969C23.074 20.4222 22.7988 20.1181 22.5389 19.7998H24.2338C23.9784 20.113 23.6998 20.4063 23.4002 20.6793H23.3991C23.3923 20.6867 23.3849 20.6912 23.3781 20.6974C24.8352 22.0169 26.7675 22.8211 28.8871 22.8205C33.4204 22.8188 37.094 19.1424 37.0929 14.6097C37.0929 14.608 37.0929 14.6068 37.0929 14.6057C37.0934 10.073 33.4176 6.39828 28.8843 6.39941ZM22.6329 9.36967H24.1931C24.423 9.64829 24.6365 9.94164 24.8301 10.2486H22.0468C22.2263 9.95523 22.4234 9.65339 22.6329 9.36967ZM21.562 11.1105H25.3036C25.4367 11.3948 25.5544 11.6887 25.6575 11.99H21.1186C21.1639 11.905 21.3225 11.563 21.562 11.1105ZM13.0188 16.7005L13.5166 13.562L12.3936 16.7005H11.7916L11.7135 13.562L11.1817 16.7005H10.3385L11.0373 12.5381H12.3126L12.3573 15.0922L13.2187 12.5381H14.6022L13.913 16.7005H13.0188ZM16.0004 16.6937L16.0292 16.3612C16.0157 16.3629 15.7495 16.7627 15.1328 16.7627C14.81 16.7627 14.289 16.5866 14.289 15.821C14.289 14.8475 15.083 14.5247 15.839 14.5247C15.9579 14.5247 16.2144 14.5462 16.2144 14.5462C16.2144 14.5462 16.2433 14.4868 16.2433 14.3259C16.2433 14.0615 16.0055 14.0252 15.6798 14.0252C15.1062 14.0252 14.7273 14.1787 14.7273 14.1787L14.8542 13.4255C14.8542 13.4255 15.314 13.233 15.9126 13.233C16.2224 13.233 17.1131 13.2658 17.1131 14.2869L16.77 16.6937H16.0004ZM19.2526 15.6335C19.2526 16.795 18.1274 16.7452 17.9309 16.7452C17.1975 16.7452 16.971 16.6438 16.9501 16.6382L17.0667 15.8737C17.0678 15.8669 17.4348 16.0067 17.8431 16.0067C18.0787 16.0067 18.3845 15.9835 18.3845 15.7021C18.3845 15.2807 17.2904 15.3815 17.2904 14.3809C17.2904 13.498 17.9462 13.2398 18.5929 13.2398C19.0924 13.2398 19.3993 13.3083 19.3993 13.3083L19.2889 14.0796C19.2889 14.0796 18.8149 14.0405 18.692 14.0405C18.3811 14.0405 18.2118 14.1085 18.2118 14.3259C18.2112 14.7631 19.2526 14.5491 19.2526 15.6335ZM20.6038 15.9382C20.6814 15.9382 20.7692 15.9116 20.8292 15.9116L20.7199 16.654C20.6321 16.6784 20.3835 16.7667 20.0647 16.769C19.6575 16.7724 19.3682 16.5447 19.3682 16.0283C19.3682 15.6817 19.8648 12.8258 19.8841 12.8071H20.7579L20.669 13.3179H21.105L20.9935 14.1408H20.5308L20.285 15.6568C20.2663 15.7774 20.2997 15.9382 20.6038 15.9382ZM22.5259 13.2217C23.4852 13.2217 23.7723 13.9239 23.7723 14.4998C23.7723 14.7303 23.6568 15.2966 23.6568 15.2966H21.8808C21.8808 15.2966 21.7166 15.996 22.655 15.996C23.095 15.996 23.5832 15.7808 23.5832 15.7808L23.4291 16.6229C23.4291 16.6229 23.1471 16.7667 22.506 16.7667C21.8112 16.7667 20.9963 16.4728 20.9963 15.2383C20.9968 14.1685 21.647 13.2217 22.5259 13.2217ZM24.8403 18.9543H21.9284C21.7512 18.6712 21.5858 18.3807 21.4437 18.0754H25.3189C25.1762 18.379 25.0165 18.6723 24.8403 18.9543ZM24.645 16.7067H23.7479L24.2933 13.3191H25.1071L25.0289 13.81C25.0289 13.81 25.3189 13.276 25.7102 13.276C25.824 13.276 25.8789 13.2873 25.8789 13.2873C25.7628 13.5241 25.6603 13.741 25.5539 14.301C24.9468 14.0858 24.9004 15.2598 24.645 16.7067ZM28.0626 16.654C28.0626 16.654 27.5926 16.7741 27.2981 16.7741C26.255 16.7741 25.7255 16.0543 25.7255 14.9642C25.7255 13.3202 26.7069 12.4447 27.7155 12.4447C28.1713 12.4447 28.6997 12.6588 28.6997 12.6588L28.557 13.5847C28.557 13.5847 28.1996 13.3349 27.7551 13.3349C27.1605 13.3349 26.627 13.9024 26.627 14.9336C26.627 15.4416 26.8756 15.915 27.4963 15.915C27.7913 15.915 28.2189 15.7004 28.2189 15.7004L28.0626 16.654ZM30.1664 16.6954L30.1959 16.3607C30.1817 16.3624 29.9155 16.7622 29.2994 16.7622C28.9766 16.7622 28.4556 16.5861 28.4556 15.8204C28.4556 14.8469 29.2496 14.5242 30.005 14.5242C30.1239 14.5242 30.381 14.5457 30.381 14.5457C30.381 14.5457 30.4105 14.4868 30.4105 14.3259C30.4105 14.0615 30.1726 14.0252 29.8465 14.0252C29.2728 14.0252 28.8945 14.1787 28.8945 14.1787L29.0214 13.4255C29.0214 13.4255 29.4812 13.233 30.0803 13.233C30.3895 13.233 31.2809 13.2658 31.2803 14.2869L30.9372 16.6937C30.9366 16.6954 30.1664 16.6954 30.1664 16.6954ZM31.9825 16.7067H31.0855L31.6309 13.3191H32.4452L32.3671 13.81C32.3671 13.81 32.6576 13.276 33.0489 13.276C33.1627 13.276 33.2171 13.2873 33.2171 13.2873C33.1016 13.5241 32.9979 13.741 32.892 14.301C32.2844 14.0858 32.2379 15.2598 31.9825 16.7067ZM34.6606 16.6976L34.6985 16.3856C34.6985 16.3856 34.4086 16.7514 33.8842 16.7514C33.1576 16.7514 32.8014 16.0498 32.8014 15.3328C32.8014 14.224 33.4685 13.2573 34.2693 13.2573C34.7846 13.2585 35.1136 13.7132 35.1136 13.7132L35.3028 12.5438L36.1788 12.5421L35.5106 16.6976H34.6606ZM36.3889 16.5804C36.3657 16.6223 36.3329 16.6546 36.291 16.6795C36.2496 16.7027 36.2055 16.7146 36.159 16.7146C36.1137 16.7146 36.0701 16.7027 36.0282 16.6795C35.9863 16.6546 35.9535 16.6223 35.9302 16.5804C35.9065 16.5379 35.8951 16.4949 35.8951 16.449C35.8951 16.4026 35.907 16.3584 35.9302 16.3165C35.9535 16.2746 35.988 16.2406 36.0293 16.218C36.0724 16.1947 36.1149 16.1829 36.159 16.1829C36.2043 16.1829 36.2474 16.1947 36.2893 16.218C36.3323 16.2412 36.3652 16.2735 36.3889 16.3165C36.4133 16.359 36.4241 16.4031 36.4241 16.449C36.4241 16.4949 36.4127 16.5385 36.3889 16.5804Z" fill="#9E9E9E"/>
<path d="M15.9069 15.1748C15.2664 15.1748 15.1367 15.4625 15.1367 15.702C15.1367 15.8255 15.2075 16.0316 15.4788 16.0316C16.0049 16.0316 16.1142 15.3419 16.0972 15.1952C16.0723 15.1901 16.0564 15.1754 15.9069 15.1748Z" fill="#9E9E9E"/>
<path d="M22.5289 14.0039C22.0527 14.0039 21.9609 14.5459 21.9609 14.6031H22.931C22.931 14.5594 23.0222 14.0039 22.5289 14.0039Z" fill="#9E9E9E"/>
<path d="M34.4185 14.0986C34.034 14.0986 33.7299 14.5449 33.7305 15.2227C33.7305 15.6361 33.8777 15.9012 34.1926 15.9012C34.666 15.9012 34.8942 15.2833 34.8942 14.8229C34.8942 14.315 34.7328 14.0986 34.4185 14.0986Z" fill="#9E9E9E"/>
<path d="M36.3492 16.3391C36.3294 16.304 36.3016 16.2768 36.2665 16.257C36.2314 16.2372 36.1957 16.2275 36.1584 16.2275C36.1221 16.2275 36.0853 16.2377 36.0502 16.257C36.0151 16.2751 35.9873 16.3034 35.9675 16.3391C35.9477 16.3748 35.9375 16.4127 35.9375 16.4495C35.9375 16.4875 35.9477 16.5248 35.9664 16.5594C35.9873 16.5945 36.014 16.6211 36.0491 16.6421C36.0842 16.6613 36.1204 16.6727 36.1584 16.6727C36.1963 16.6727 36.2337 16.6613 36.2677 16.6421C36.3028 16.6223 36.3299 16.5951 36.3503 16.5594C36.3702 16.5243 36.3792 16.4875 36.3792 16.4495C36.3792 16.4122 36.369 16.3748 36.3492 16.3391ZM36.2263 16.5951L36.2008 16.5509C36.181 16.5152 36.1652 16.4926 36.1533 16.4841C36.1436 16.4767 36.1323 16.4733 36.1159 16.4733H36.0898V16.5945H36.0423V16.3091H36.1414C36.1748 16.3091 36.1997 16.3119 36.2139 16.3181C36.228 16.3232 36.2405 16.3329 36.2501 16.3453C36.2597 16.3578 36.2631 16.3719 36.2631 16.3872C36.2631 16.4082 36.2552 16.4257 36.2405 16.4416C36.2257 16.458 36.2054 16.4648 36.1816 16.4677C36.1929 16.4722 36.2003 16.4773 36.2059 16.4824C36.2178 16.4943 36.2314 16.5113 36.2478 16.5384L36.2829 16.5951H36.2263Z" fill="#9E9E9E"/>
<path d="M30.0788 15.1748C29.4383 15.1748 29.3086 15.4625 29.3086 15.702C29.3086 15.8255 29.3788 16.0316 29.6506 16.0316C30.1767 16.0316 30.2855 15.3419 30.269 15.1952C30.2436 15.1901 30.2277 15.1754 30.0788 15.1748Z" fill="#9E9E9E"/>
<path d="M36.2032 16.3675C36.1986 16.3618 36.1924 16.3573 36.1839 16.3533C36.1743 16.3505 36.1601 16.3477 36.1375 16.3477V16.3482H36.0859V16.4343H36.142C36.1686 16.4343 36.1862 16.4309 36.1969 16.4224C36.2054 16.4139 36.2105 16.4032 36.2105 16.3907C36.2105 16.3811 36.2083 16.3754 36.2032 16.3675Z" fill="#9E9E9E"/>
</svg>
