<svg width="47" height="30" viewBox="0 0 47 30" fill="none" xmlns="http://www.w3.org/2000/svg">
<rect opacity="0.15" x="0.765625" width="45.7082" height="29.2532" rx="3" fill="#969696"/>
<path d="M19.3679 9.30957L17.7031 19.0793H20.3657L22.0319 9.30957H19.3679Z" fill="#9E9E9E"/>
<path d="M15.4689 9.32041L12.8611 15.9831L12.583 14.9771C12.0687 13.765 10.6087 12.0241 8.89453 10.927L11.2791 19.0744L14.0965 19.0696L18.2897 9.31836L15.4689 9.32041Z" fill="#9E9E9E"/>
<path d="M11.5725 10.0193C11.4177 9.42419 10.9692 9.24682 10.4124 9.22559H6.28424L6.25 9.42008C9.46253 10.1994 11.5882 12.0772 12.4703 14.3351L11.5725 10.0193Z" fill="#9E9E9E"/>
<path d="M27.4277 11.1824C28.2988 11.1687 28.9302 11.3591 29.4206 11.5563L29.6609 11.6693L30.0212 9.55181C29.4938 9.3539 28.6672 9.1416 27.6359 9.1416C25.0048 9.1416 23.1503 10.4667 23.1359 12.3658C23.1188 13.769 24.4569 14.5524 25.4677 15.0202C26.5052 15.4996 26.8531 15.8043 26.8483 16.2323C26.8401 16.8863 26.0211 17.1863 25.2561 17.1863C24.1898 17.1863 23.6235 17.0391 22.749 16.6747L22.4059 16.5186L22.0312 18.7052C22.6544 18.9785 23.8043 19.2134 24.9979 19.2257C27.7968 19.2257 29.6157 17.9163 29.6349 15.8872C29.6466 14.7771 28.9364 13.9299 27.3976 13.2348C26.4662 12.7815 25.8964 12.4801 25.9019 12.0227C25.9019 11.6166 26.3854 11.1824 27.4277 11.1824Z" fill="#9E9E9E"/>
<path d="M36.8511 9.32031H34.7938C34.1549 9.32031 33.6796 9.49426 33.3988 10.1312L29.4453 19.0846H32.2415C32.2415 19.0846 32.6976 17.8807 32.801 17.617C33.1071 17.617 35.8238 17.6211 36.2107 17.6211C36.2902 17.9622 36.5353 19.0846 36.5353 19.0846H39.0055L36.8511 9.32031ZM33.5673 15.6173C33.7864 15.0564 34.6281 12.8869 34.6281 12.8869C34.6137 12.9136 34.8452 12.3219 34.9828 11.9542L35.1623 12.7965C35.1623 12.7965 35.6725 15.129 35.7793 15.6173H33.5673Z" fill="#9E9E9E"/>
</svg>
