<svg width="40" height="40" viewBox="0 0 40 40" fill="none" xmlns="http://www.w3.org/2000/svg">
<rect width="40" height="40" rx="8" fill="#59B8C5"/>
<rect width="40" height="40" rx="8" fill="white" fill-opacity="0.6"/>
<path fill-rule="evenodd" clip-rule="evenodd" d="M10.0494 19H11.6667C12.219 19 12.6667 19.4477 12.6667 20C12.6667 20.5523 12.219 21 11.6667 21H10.0494C10.5184 25.7244 14.2756 29.4816 19 29.9506V28.3333C19 27.781 19.4477 27.3333 20 27.3333C20.5523 27.3333 21 27.781 21 28.3333V29.9506C25.7244 29.4816 29.4816 25.7244 29.9506 21H28.3333C27.781 21 27.3333 20.5523 27.3333 20C27.3333 19.4477 27.781 19 28.3333 19H29.9507C29.9094 18.584 29.8427 18.1757 29.7522 17.7768C29.63 17.2382 29.9675 16.7026 30.5061 16.5803C31.0447 16.4581 31.5804 16.7957 31.7026 17.3343C31.8974 18.1925 32 19.0849 32 20C32 26.6274 26.6274 32 20 32C13.3726 32 8 26.6274 8 20C8 13.3726 13.3726 8 20 8C21.6534 8 23.2311 8.33494 24.667 8.94162C25.1757 9.15657 25.4139 9.74323 25.1989 10.252C24.984 10.7607 24.3973 10.9989 23.8886 10.7839C22.9864 10.4028 22.0162 10.1501 21 10.0493V11.6667C21 12.219 20.5523 12.6667 20 12.6667C19.4477 12.6667 19 12.219 19 11.6667V10.0494C14.2756 10.5184 10.5184 14.2756 10.0494 19ZM30.4849 10.7373C30.8754 11.1279 30.8754 11.761 30.4849 12.1516L20.7071 21.9293C20.3166 22.3199 19.6834 22.3199 19.2929 21.9293L15.6262 18.2627C15.2357 17.8721 15.2357 17.239 15.6262 16.8484C16.0168 16.4579 16.6499 16.4579 17.0404 16.8484L20 19.808L29.0707 10.7373C29.4612 10.3468 30.0944 10.3468 30.4849 10.7373Z" fill="#59B8C5"/>
</svg>
