<svg width="40" height="40" viewBox="0 0 40 40" fill="none" xmlns="http://www.w3.org/2000/svg">
<rect width="40" height="40" rx="8" fill="#59B8C5"/>
<rect width="40" height="40" rx="8" fill="white" fill-opacity="0.6"/>
<path fill-rule="evenodd" clip-rule="evenodd" d="M20.0044 8C20.5566 8 21.0043 8.44772 21.0043 9V10.0394C26.1999 10.4507 30.4912 14.0392 31.9567 18.8588C32.0872 19.2882 31.9157 19.7519 31.5373 19.9931C31.1588 20.2342 30.6661 20.1937 30.3321 19.894C29.7102 19.336 28.9009 19 28.0043 19C26.6513 19 25.4758 19.7675 24.8926 20.8956C24.7209 21.2278 24.3782 21.4364 24.0043 21.4364C23.6304 21.4364 23.2877 21.2278 23.116 20.8956C22.5329 19.7675 21.3574 19 20.0044 19C18.6513 19 17.4759 19.7675 16.8927 20.8956C16.721 21.2278 16.3783 21.4364 16.0044 21.4364C15.6305 21.4364 15.2878 21.2278 15.1161 20.8956C14.5329 19.7675 13.3575 19 12.0044 19C11.1057 19 10.2882 19.3374 9.66795 19.894C9.33395 20.1937 8.84118 20.2342 8.46272 19.9931C8.08425 19.7519 7.91279 19.2882 8.04333 18.8588C9.50901 14.0384 13.8086 10.4506 19.0044 10.0394V9C19.0044 8.44772 19.4521 8 20.0044 8ZM11.0026 17.0912C11.3275 17.0313 11.6624 17 12.0044 17C13.5813 17 15.0023 17.6638 16.0044 18.7253C17.0065 17.6638 18.4274 17 20.0044 17C21.5813 17 23.0022 17.6638 24.0043 18.7253C25.0064 17.6638 26.4274 17 28.0043 17C28.3439 17 28.6757 17.0308 28.9975 17.0898C27.1619 14.039 23.8228 12 20.0044 12C16.1848 12 12.8399 14.04 11.0026 17.0912ZM20.0044 21C20.5566 21 21.0043 21.4477 21.0043 22V28.9998C21.0043 30.6568 19.6611 32 18.0041 32C16.3472 32 15.0039 30.6568 15.0039 28.9998V28C15.0039 27.4477 15.4517 27 16.0039 27C16.5562 27 17.0039 27.4477 17.0039 28V28.9998C17.0039 29.5522 17.4517 30 18.0041 30C18.5565 30 19.0044 29.5522 19.0044 28.9998V22C19.0044 21.4477 19.4521 21 20.0044 21Z" fill="#59B8C5"/>
</svg>
