<svg width="40" height="40" viewBox="0 0 40 40" fill="none" xmlns="http://www.w3.org/2000/svg">
<rect width="40" height="40" rx="8" fill="#59B8C5"/>
<rect width="40" height="40" rx="8" fill="white" fill-opacity="0.6"/>
<path fill-rule="evenodd" clip-rule="evenodd" d="M12 10.5C12 9.11929 13.1193 8 14.5 8H25.5C26.8807 8 28 9.11929 28 10.5V29.5C28 30.8807 26.8807 32 25.5 32H14.5C13.1193 32 12 30.8807 12 29.5V10.5ZM14.5 10C14.2239 10 14 10.2239 14 10.5V25H26V10.5C26 10.2239 25.7761 10 25.5 10H14.5ZM26 27H14V29.5C14 29.7761 14.2239 30 14.5 30H25.5C25.7761 30 26 29.7761 26 29.5V27ZM16 12C16 11.4477 16.4477 11 17 11H23C23.5523 11 24 11.4477 24 12C24 12.5523 23.5523 13 23 13H17C16.4477 13 16 12.5523 16 12ZM19 28.5C19 27.9477 19.4477 27.5 20 27.5H20.01C20.5623 27.5 21.01 27.9477 21.01 28.5C21.01 29.0523 20.5623 29.5 20.01 29.5H20C19.4477 29.5 19 29.0523 19 28.5Z" fill="#59B8C5"/>
</svg>
