<svg width="48" height="48" viewBox="0 0 48 48" fill="none" xmlns="http://www.w3.org/2000/svg">
<rect x="0.5" y="0.5" width="47" height="47" rx="23.5" fill="white"/>
<path d="M35.7459 24.27C35.7459 23.48 35.6759 22.73 35.5559 22H24.2559V26.51H30.7259C30.4359 27.99 29.5859 29.24 28.3259 30.09V33.09H32.1859C34.4459 31 35.7459 27.92 35.7459 24.27Z" fill="#4285F4"/>
<path d="M24.2549 35.9991C27.4949 35.9991 30.2049 34.9191 32.1849 33.0891L28.3249 30.0891C27.2449 30.8091 25.8749 31.2491 24.2549 31.2491C21.1249 31.2491 18.4749 29.1391 17.5249 26.2891H13.5449V29.3791C15.5149 33.2991 19.5649 35.9991 24.2549 35.9991Z" fill="#34A853"/>
<path d="M17.5259 26.2911C17.2759 25.5711 17.1459 24.8011 17.1459 24.0011C17.1459 23.2011 17.2859 22.4311 17.5259 21.7111V18.6211H13.5459C12.7259 20.2411 12.2559 22.0611 12.2559 24.0011C12.2559 25.9411 12.7259 27.7611 13.5459 29.3811L17.5259 26.2911Z" fill="#FBBC05"/>
<path d="M24.2549 16.75C26.0249 16.75 27.6049 17.36 28.8549 18.55L32.2749 15.13C30.2049 13.19 27.4949 12 24.2549 12C19.5649 12 15.5149 14.7 13.5449 18.62L17.5249 21.71C18.4749 18.86 21.1249 16.75 24.2549 16.75Z" fill="#EA4335"/>
<rect x="0.5" y="0.5" width="47" height="47" rx="23.5" stroke="#E5EFF0"/>
</svg>
