<?xml version="1.0" encoding="UTF-8" standalone="no"?>
<svg
   width="16"
   height="16"
   viewBox="0 0 16 16"
   fill="none"
   version="1.1"
   id="svg2456"
   xmlns="http://www.w3.org/2000/svg"
   xmlns:svg="http://www.w3.org/2000/svg">
  <defs
     id="defs2460" />
  <path
     d="M6.75918 0.97418C7.35668 0.102356 8.64332 0.102357 9.24082 0.974181L11.0445 3.6059C11.2401 3.89131 11.5281 4.10055 11.8599 4.19839L14.9202 5.1005C15.934 5.39935 16.3316 6.62301 15.6871 7.46067L13.7415 9.98928C13.5305 10.2635 13.4205 10.6021 13.43 10.9479L13.5177 14.1372C13.5468 15.1937 12.5059 15.95 11.5101 15.5959L8.504 14.5269C8.178 14.411 7.822 14.411 7.496 14.5269L4.48994 15.5959C3.49411 15.95 2.4532 15.1937 2.48226 14.1372L2.56998 10.9479C2.57949 10.6021 2.46948 10.2635 2.25849 9.98928L0.312928 7.46067C-0.331588 6.623 0.0660042 5.39935 1.0798 5.1005L4.14007 4.19839C4.47194 4.10055 4.75995 3.89131 4.95555 3.6059L6.75918 0.97418Z"
     fill="#59B8C5"
     id="path2454" />
</svg>
