<svg width="48" height="48" viewBox="0 0 48 48" fill="none" xmlns="http://www.w3.org/2000/svg">
<rect width="48" height="48" rx="24" fill="#59B8C5"/>
<rect width="48" height="48" rx="24" fill="white" fill-opacity="0.8"/>
<path fill-rule="evenodd" clip-rule="evenodd" d="M15.5265 16.8731H12.9004C12.1501 16.8731 12 17.2333 12 17.6234C12 18.3137 12.9004 21.7652 16.1418 26.3271C18.3177 29.4334 21.379 31.1292 24.1551 31.1292C25.8208 31.1292 26.0309 30.754 26.0309 30.1087V27.7527C26.0309 27.0024 26.181 26.8523 26.7212 26.8523C27.1114 26.8523 27.7717 27.0474 29.3323 28.5481C31.1181 30.3338 31.4032 31.1292 32.4086 31.1292H35.0347C35.7851 31.1292 36.1602 30.754 35.9351 30.0187C35.71 29.2684 34.8547 28.2179 33.7292 26.9424C33.1289 26.2071 32.1985 25.4418 31.9284 25.0516C31.5383 24.5414 31.6283 24.3163 31.9284 23.8811C31.9284 23.8811 35.1248 19.3792 35.4549 17.8335C35.62 17.2783 35.4549 16.8731 34.6596 16.8731H32.0335C31.7879 16.8584 31.5441 16.9236 31.3386 17.0588C31.133 17.194 30.9767 17.3921 30.893 17.6234C30.893 17.6234 29.5424 20.8648 27.6666 22.9807C27.0514 23.596 26.7662 23.7911 26.4361 23.7911C26.286 23.7911 26.0309 23.596 26.0309 23.0407V17.8335C26.0309 17.1733 25.8359 16.8731 25.2806 16.8731H21.1539C20.7337 16.8731 20.4786 17.1733 20.4786 17.4734C20.4786 18.1036 21.439 18.2537 21.529 20.0245V23.8961C21.529 24.7515 21.379 24.9015 21.0488 24.9015C20.1484 24.9015 17.9875 21.6301 16.697 17.8936C16.4569 17.1733 16.2018 16.8731 15.5265 16.8731Z" fill="#59B8C5"/>
</svg>
