<svg width="40" height="40" viewBox="0 0 40 40" fill="none" xmlns="http://www.w3.org/2000/svg">
<rect width="40" height="40" rx="8" fill="#59B8C5"/>
<rect width="40" height="40" rx="8" fill="white" fill-opacity="0.8"/>
<path fill-rule="evenodd" clip-rule="evenodd" d="M19 10.6484C19 10.0962 19.4477 9.64844 20 9.64844H26.6C27.1523 9.64844 27.6 10.0962 27.6 10.6484C27.6 11.2007 27.1523 11.6484 26.6 11.6484H24.3V13.0053C28.6339 13.5013 32 17.1817 32 21.6484C32 26.4533 28.1049 30.3484 23.3 30.3484C20.5344 30.3484 18.0706 29.0572 16.4783 27.0484H14.5C13.9477 27.0484 13.5 26.6007 13.5 26.0484C13.5 25.4962 13.9477 25.0484 14.5 25.0484H15.2897C14.9702 24.2965 14.7534 23.4905 14.6569 22.6484H11.2C10.6477 22.6484 10.2 22.2007 10.2 21.6484C10.2 21.0962 10.6477 20.6484 11.2 20.6484H14.6569C14.7534 19.8063 14.9702 19.0003 15.2897 18.2484H9C8.44772 18.2484 8 17.8007 8 17.2484C8 16.6962 8.44772 16.2484 9 16.2484H16.4783C17.8759 14.4853 19.9449 13.275 22.3 13.0053V11.6484H20C19.4477 11.6484 19 11.2007 19 10.6484ZM23.3 14.9484C21.0241 14.9484 19.0128 16.0823 17.8003 17.8205C17.0436 18.9054 16.6 20.2236 16.6 21.6484C16.6 23.0733 17.0436 24.3915 17.8003 25.4763C19.0128 27.2145 21.0241 28.3484 23.3 28.3484C27.0003 28.3484 30 25.3487 30 21.6484C30 17.9481 27.0003 14.9484 23.3 14.9484ZM23.3 17.3484C23.8523 17.3484 24.3 17.7962 24.3 18.3484V21.2342L25.1071 22.0413C25.4976 22.4319 25.4976 23.065 25.1071 23.4555C24.7166 23.8461 24.0834 23.8461 23.6929 23.4555L22.5929 22.3555C22.4054 22.168 22.3 21.9137 22.3 21.6484V18.3484C22.3 17.7962 22.7477 17.3484 23.3 17.3484Z" fill="#59B8C5"/>
</svg>
