<svg width="40" height="40" viewBox="0 0 40 40" fill="none" xmlns="http://www.w3.org/2000/svg">
<rect width="40" height="40" rx="8" fill="#59B8C5"/>
<rect width="40" height="40" rx="8" fill="white" fill-opacity="0.8"/>
<path fill-rule="evenodd" clip-rule="evenodd" d="M24 11.0268C24 10.3056 23.2599 9.82154 22.5992 10.1106L10.5992 15.3606C10.2352 15.5198 10 15.8795 10 16.2768V22.9687C10 23.521 9.55228 23.9687 9 23.9687C8.44772 23.9687 8 23.521 8 22.9687V16.2768C8 15.0849 8.70558 14.006 9.79754 13.5283L21.7975 8.27828C23.7796 7.41113 26 8.8633 26 11.0268V11.9687C26 12.521 25.5523 12.9687 25 12.9687C24.4477 12.9687 24 12.521 24 11.9687V11.0268Z" fill="#59B8C5"/>
<path fill-rule="evenodd" clip-rule="evenodd" d="M11 15.9688C10.4477 15.9688 10 16.4165 10 16.9688V28.9688C10 29.521 10.4477 29.9688 11 29.9688H29C29.5523 29.9688 30 29.521 30 28.9688V16.9688C30 16.4165 29.5523 15.9688 29 15.9688H11ZM8 16.9688C8 15.3119 9.34315 13.9688 11 13.9688H29C30.6569 13.9688 32 15.3119 32 16.9688V28.9688C32 30.6256 30.6569 31.9688 29 31.9688H11C9.34315 31.9688 8 30.6256 8 28.9688V16.9688Z" fill="#59B8C5"/>
<circle cx="26" cy="22.9688" r="2" fill="#59B8C5"/>
</svg>
