<svg width="40" height="40" viewBox="0 0 40 40" fill="none" xmlns="http://www.w3.org/2000/svg">
<rect width="40" height="40" rx="8" fill="#59B8C5"/>
<rect width="40" height="40" rx="8" fill="white" fill-opacity="0.8"/>
<path fill-rule="evenodd" clip-rule="evenodd" d="M8 11C8 9.34314 9.34315 8 11 8H29C30.6569 8 32 9.34315 32 11V29C32 30.6569 30.6569 32 29 32H11C9.34314 32 8 30.6569 8 29V11ZM11 10C10.4477 10 10 10.4477 10 11V29C10 29.5523 10.4477 30 11 30H29C29.5523 30 30 29.5523 30 29V11C30 10.4477 29.5523 10 29 10H11Z" fill="#59B8C5"/>
<path fill-rule="evenodd" clip-rule="evenodd" d="M17 16.5C17 15.9477 17.4477 15.5 18 15.5H20C20.4934 15.5 21.2111 15.6398 21.8343 16.0885C22.5085 16.5739 23 17.3741 23 18.5C23 19.6259 22.5085 20.4261 21.8343 20.9115C21.2111 21.3602 20.4934 21.5 20 21.5H19V23.5C19 24.0523 18.5523 24.5 18 24.5C17.4477 24.5 17 24.0523 17 23.5V16.5ZM19 19.5H20C20.1733 19.5 20.4555 19.4398 20.6657 19.2885C20.8249 19.1739 21 18.9741 21 18.5C21 18.0259 20.8249 17.8261 20.6657 17.7115C20.4555 17.5602 20.1733 17.5 20 17.5H19V19.5Z" fill="#59B8C5"/>
</svg>
