<svg width="92" height="16" viewBox="0 0 92 16" fill="none" xmlns="http://www.w3.org/2000/svg">
<g clip-path="url(#clip0_810_78600)">
<path d="M40.2923 10.6956V7.35648C40.2923 6.09874 39.4909 5.25285 38.1998 5.2417C37.832 5.21775 37.4645 5.29289 37.1356 5.4593C36.8067 5.62571 36.5285 5.87729 36.3299 6.18781C36.1489 5.88654 35.8901 5.63965 35.5806 5.47314C35.2711 5.30664 34.9224 5.22668 34.5713 5.2417C34.2652 5.22632 33.9605 5.29115 33.6872 5.42976C33.4139 5.56837 33.1815 5.77597 33.0131 6.03199V5.37528H31.8555V10.6956H33.0242V7.74601C33.0242 6.82221 33.5362 6.33256 34.3264 6.33256C35.0944 6.33256 35.484 6.83336 35.484 7.73494V10.6956H36.6527V7.74601C36.6527 6.82221 37.187 6.33256 37.955 6.33256C38.7452 6.33256 39.1236 6.83336 39.1236 7.73494V10.6956H40.2923ZM57.5889 5.37528H55.6968V3.76141H54.5281V5.37528H53.4484V6.43268H54.5281V8.85907C54.5281 10.0946 55.0067 10.8292 56.3757 10.8292C56.8872 10.8307 57.3887 10.688 57.8226 10.4174L57.4888 9.42674C57.1784 9.61192 56.826 9.71533 56.4648 9.7273C55.886 9.7273 55.6968 9.37105 55.6968 8.83688V6.43268H57.5889V5.37528ZM67.4616 5.2417C67.1794 5.23338 66.9001 5.30138 66.6533 5.4385C66.4065 5.57563 66.2012 5.77681 66.0592 6.02083V5.37528H64.9127V10.6956H66.0703V7.71263C66.0703 6.83336 66.4487 6.34361 67.2057 6.34361C67.4533 6.34021 67.6991 6.38561 67.9291 6.47721L68.2853 5.38643C68.0209 5.29179 67.7424 5.24284 67.4616 5.2417ZM52.5358 5.79828C51.8805 5.40864 51.1272 5.21545 50.3653 5.2417C49.0185 5.2417 48.1504 5.88725 48.1504 6.94463C48.1504 7.81285 48.7959 8.34712 49.9868 8.5141L50.5323 8.59198C51.1666 8.68096 51.4672 8.84792 51.4672 9.14849C51.4672 9.56032 51.0442 9.79405 50.254 9.79405C49.6184 9.81231 48.995 9.6163 48.4842 9.23754L47.9389 10.139C48.6131 10.61 49.4208 10.8519 50.2429 10.8292C51.7788 10.8292 52.6692 10.1057 52.6692 9.09281C52.6692 8.15783 51.9681 7.6681 50.8105 7.50114L50.2652 7.42323C49.7643 7.35647 49.3636 7.25637 49.3636 6.90021C49.3636 6.51059 49.7419 6.27687 50.3764 6.27687C50.959 6.28564 51.5298 6.4427 52.0349 6.73323L52.5358 5.79828ZM83.5451 5.2417C83.2628 5.23337 82.9836 5.30136 82.7368 5.43849C82.4899 5.57561 82.2847 5.7768 82.1426 6.02083V5.37528H80.9962V10.6956H82.1537V7.71263C82.1537 6.83336 82.5322 6.34361 83.289 6.34361C83.5366 6.3402 83.7825 6.3856 84.0126 6.47721L84.3687 5.38643C84.1044 5.29178 83.8258 5.24284 83.5451 5.2417ZM68.6303 8.03541C68.6303 9.64939 69.7545 10.8292 71.4686 10.8292C72.1636 10.8641 72.8464 10.6378 73.3829 10.1947L72.8265 9.25976C72.4263 9.56483 71.9383 9.73267 71.4351 9.73834C70.5114 9.72729 69.8324 9.05943 69.8324 8.03541C69.8324 7.01148 70.5114 6.34361 71.4351 6.33256C71.9383 6.33824 72.4263 6.50607 72.8265 6.81114L73.3829 5.87618C72.8464 5.43313 72.1636 5.2068 71.4686 5.2417C69.7545 5.2417 68.6303 6.42152 68.6303 8.03541ZM79.4713 8.03541V5.37528H78.3138V6.02083C78.1162 5.76621 77.8605 5.56261 77.5681 5.42706C77.2757 5.29151 76.955 5.22795 76.633 5.2417C75.1416 5.2417 73.9729 6.41048 73.9729 8.03541C73.9729 9.66045 75.1416 10.8292 76.633 10.8292C76.955 10.843 77.2757 10.7794 77.5681 10.6439C77.8605 10.5083 78.1162 10.3047 78.3138 10.0501V10.6956H79.4713V8.03541ZM75.1638 8.03541C75.1638 7.10046 75.776 6.33256 76.7778 6.33256C77.735 6.33256 78.3805 7.06708 78.3805 8.03541C78.3805 9.00374 77.735 9.73834 76.7778 9.73834C75.776 9.73834 75.1638 8.97037 75.1638 8.03541ZM61.1952 5.2417C59.637 5.2417 58.5462 6.37699 58.5462 8.03541C58.5462 9.7273 59.6815 10.8292 61.2732 10.8292C62.0673 10.8571 62.8438 10.5916 63.4547 10.0835L62.887 9.22639C62.4475 9.57865 61.9031 9.77446 61.3399 9.78289C60.5941 9.78289 59.9152 9.4379 59.7482 8.48061H63.6996C63.7107 8.33596 63.7218 8.19132 63.7218 8.03541C63.7107 6.37699 62.6867 5.2417 61.1952 5.2417ZM61.1729 6.27687C61.9187 6.27687 62.3973 6.74429 62.5197 7.56798H59.7594C59.8818 6.79998 60.3492 6.27687 61.1729 6.27687ZM90.2122 8.03541V3.23828H89.0546V6.02083C88.857 5.76622 88.6013 5.56263 88.3089 5.42707C88.0165 5.29152 87.6959 5.22796 87.3739 5.2417C85.8824 5.2417 84.7137 6.41048 84.7137 8.03541C84.7137 9.66045 85.8824 10.8292 87.3739 10.8292C87.6959 10.843 88.0165 10.7794 88.3089 10.6438C88.6013 10.5083 88.857 10.3047 89.0546 10.0501V10.6956H90.2122V8.03541ZM91.565 10.2047C91.6109 10.2044 91.6564 10.2134 91.6987 10.2311C91.7394 10.2481 91.7764 10.2727 91.8079 10.3035C91.8392 10.3343 91.8642 10.3709 91.8815 10.4112C91.8993 10.4525 91.9085 10.4971 91.9085 10.5421C91.9085 10.5871 91.8993 10.6317 91.8815 10.6731C91.8641 10.7132 91.8391 10.7495 91.8079 10.7802C91.7764 10.8111 91.7393 10.8358 91.6987 10.853C91.6564 10.8711 91.6109 10.8803 91.565 10.88C91.4974 10.8807 91.431 10.8614 91.3743 10.8246C91.3176 10.7878 91.2729 10.7351 91.246 10.6731C91.2282 10.6317 91.2191 10.5871 91.2191 10.5421C91.2191 10.4971 91.2282 10.4525 91.246 10.4112C91.2809 10.3294 91.3466 10.2648 91.4289 10.2311C91.472 10.2133 91.5183 10.2043 91.565 10.2047ZM91.565 10.8055C91.6 10.8057 91.6347 10.7987 91.6668 10.7848C91.6977 10.7714 91.7257 10.7523 91.7495 10.7285C91.7986 10.6789 91.8261 10.612 91.8261 10.5423C91.8261 10.4725 91.7986 10.4056 91.7495 10.3561C91.7258 10.3323 91.6977 10.3134 91.6668 10.3003C91.6346 10.2866 91.6 10.2797 91.565 10.28C91.5294 10.2797 91.494 10.2866 91.4611 10.3003C91.4215 10.3171 91.3866 10.3434 91.3595 10.3769C91.3324 10.4103 91.3139 10.4499 91.3057 10.4921C91.2974 10.5344 91.2996 10.578 91.312 10.6192C91.3245 10.6604 91.3468 10.6979 91.3771 10.7285C91.4013 10.7525 91.4298 10.7716 91.4611 10.7848C91.494 10.7987 91.5293 10.8057 91.565 10.8055ZM91.5849 10.3842C91.6181 10.3821 91.651 10.3916 91.678 10.4112C91.6888 10.42 91.6973 10.4312 91.703 10.4439C91.7086 10.4566 91.7113 10.4705 91.7107 10.4844C91.7111 10.4963 91.7089 10.5081 91.7044 10.5192C91.7 10.5302 91.6932 10.5402 91.6846 10.5485C91.664 10.5667 91.638 10.5776 91.6105 10.5795L91.7132 10.6979H91.6329L91.5377 10.5803H91.5071V10.6979H91.4401V10.3842H91.5849ZM91.5071 10.443V10.5266H91.5841C91.5988 10.5273 91.6135 10.5237 91.6263 10.5162C91.6315 10.5127 91.6356 10.508 91.6384 10.5024C91.6411 10.4968 91.6424 10.4906 91.642 10.4844C91.6423 10.4783 91.641 10.4722 91.6383 10.4667C91.6355 10.4613 91.6314 10.4567 91.6263 10.4533C91.6135 10.4459 91.5988 10.4423 91.5841 10.443H91.5071ZM85.9047 8.03541C85.9047 7.10046 86.5169 6.33256 87.5186 6.33256C88.4757 6.33256 89.1213 7.06708 89.1213 8.03541C89.1213 9.00374 88.4757 9.73834 87.5186 9.73834C86.5169 9.73834 85.9047 8.97037 85.9047 8.03541ZM46.8147 8.03541V5.37528H45.6571V6.02083C45.4595 5.76621 45.2039 5.56261 44.9115 5.42705C44.619 5.2915 44.2984 5.22795 43.9764 5.2417C42.485 5.2417 41.3163 6.41048 41.3163 8.03541C41.3163 9.66045 42.485 10.8292 43.9764 10.8292C44.2984 10.843 44.619 10.7794 44.9115 10.6439C45.2039 10.5083 45.4595 10.3047 45.6571 10.0501V10.6956H46.8147V8.03541ZM42.5073 8.03541C42.5073 7.10046 43.1195 6.33256 44.1212 6.33256C45.0784 6.33256 45.7239 7.06708 45.7239 8.03541C45.7239 9.00374 45.0784 9.73834 44.1212 9.73834C43.1195 9.73834 42.5073 8.97037 42.5073 8.03541Z" fill="#59B8C5"/>
<path d="M17.0742 1.71094H10.0742V14.2901H17.0742V1.71094Z" fill="#59B8C5"/>
<path d="M17.0742 1.71094H10.0742V14.2901H17.0742V1.71094Z" fill="white" fill-opacity="0.4"/>
<path d="M10.525 8C10.5238 6.78853 10.7984 5.59269 11.3278 4.503C11.8571 3.41332 12.6275 2.45835 13.5805 1.7104C12.4003 0.782766 10.983 0.205884 9.49045 0.0456902C7.99793 -0.114504 6.49045 0.148449 5.14031 0.804506C3.79016 1.46056 2.65184 2.48325 1.85545 3.75567C1.05905 5.02809 0.636719 6.4989 0.636719 8C0.636719 9.50109 1.05905 10.9719 1.85545 12.2443C2.65184 13.5167 3.79016 14.5394 5.14031 15.1955C6.49045 15.8515 7.99793 16.1145 9.49045 15.9543C10.983 15.7941 12.4003 15.2172 13.5805 14.2896C12.6275 13.5416 11.8571 12.5867 11.3278 11.497C10.7984 10.4073 10.5239 9.21146 10.525 8Z" fill="#59B8C5"/>
<path d="M26.5176 8C26.5176 9.50107 26.0954 10.9719 25.299 12.2443C24.5027 13.5167 23.3644 14.5394 22.0143 15.1955C20.6641 15.8515 19.1567 16.1145 17.6642 15.9543C16.1717 15.7941 14.7544 15.2172 13.5742 14.2896C14.5264 13.5409 15.2961 12.5858 15.8254 11.4963C16.3547 10.4067 16.6297 9.21127 16.6297 8C16.6297 6.78873 16.3547 5.59326 15.8254 4.50375C15.2961 3.41423 14.5264 2.45912 13.5742 1.71041C14.7544 0.782769 16.1717 0.20588 17.6642 0.0456882C19.1567 -0.114504 20.6641 0.148461 22.0143 0.804524C23.3644 1.46059 24.5027 2.48328 25.299 3.7557C26.0954 5.02812 26.5176 6.49892 26.5176 8Z" fill="#59B8C5"/>
<path d="M25.7661 12.9589V12.7014H25.8699V12.6489H25.6055V12.7014H25.7094V12.9589H25.7661ZM26.2795 12.9589V12.6484H26.1985L26.1052 12.862L26.012 12.6484H25.9308V12.9589H25.9881V12.7247L26.0755 12.9267H26.1349L26.2223 12.7242V12.9589H26.2795Z" fill="#59B8C5"/>
</g>
<defs>
<clipPath id="clip0_810_78600">
<rect width="91.2717" height="16" fill="white" transform="translate(0.636719)"/>
</clipPath>
</defs>
</svg>
