<svg width="45" height="12" viewBox="0 0 45 12" fill="none" xmlns="http://www.w3.org/2000/svg">
<g clip-path="url(#clip0_810_78596)">
<path d="M4.94875 0.00202698C5.33779 -0.00030039 6.49399 -0.104434 6.98373 1.54845C7.31363 2.66185 7.83913 4.48566 8.56025 7.01986H8.85393C9.62726 4.34813 10.1585 2.52432 10.4476 1.54845C10.9425 -0.121652 12.1796 0.00205971 12.6745 0.00205971L16.4923 0.00206447V11.8783H12.601V4.87945H12.3401L10.1709 11.8783H7.24325L5.07407 4.87426H4.81313V11.8783H0.921875V0.00206447L4.94875 0.00202698ZM22.0801 0.00206447V7.00615H22.3905L25.0291 1.24674C25.5413 0.100601 26.633 0.00206447 26.633 0.00206447H30.3985V11.8783H26.426V4.87426H26.1156L23.5287 10.6337C23.0165 11.7746 21.8731 11.8783 21.8731 11.8783H18.1075V0.00206447H22.0801ZM44.1294 5.64575C43.5752 7.21601 41.8351 8.34059 39.9085 8.34059H35.7425V11.8783H31.9648V5.64575H44.1294Z" fill="#59B8C5"/>
<path d="M40.0895 0.00390625H31.7656C31.9637 2.64797 34.2407 4.91146 36.5979 4.91146H44.3907C44.8404 2.71393 43.2923 0.00390625 40.0895 0.00390625Z" fill="#59B8C5"/>
</g>
<defs>
<clipPath id="clip0_810_78596">
<rect width="43.7143" height="12" fill="white" transform="translate(0.921875)"/>
</clipPath>
</defs>
</svg>
