<svg width="97" height="22" viewBox="0 0 97 22" fill="none" xmlns="http://www.w3.org/2000/svg">
<path d="M43.3422 10.1184L45.363 8.61328H38.5977V17.6292H45.363V16.124H40.5306V13.8221H44.6601V12.317H40.5306V10.1184H43.3422Z" fill="#21A038"/>
<path d="M33.4869 12.1252H31.1439V10.1184H34.8927L36.9135 8.61328H29.2109V17.6292H33.2379C35.4931 17.6292 36.7964 16.5962 36.7964 14.796C36.7964 13.0696 35.6249 12.1252 33.4869 12.1252ZM33.1647 16.124H31.1439V13.6303H33.1647C34.3948 13.6303 34.9659 14.0435 34.9659 14.8845C34.9659 15.7256 34.3509 16.124 33.1647 16.124Z" fill="#21A038"/>
<path d="M50.8435 8.61328H47.168V17.6292H49.1009V15.0764H50.8582C53.2012 15.0764 54.6655 13.8369 54.6655 11.8448C54.6655 9.85278 53.2012 8.61328 50.8435 8.61328ZM50.7996 13.5713H49.0863V10.1184H50.7996C52.0443 10.1184 52.7179 10.7381 52.7179 11.8448C52.7179 12.9515 52.0443 13.5713 50.7996 13.5713Z" fill="#21A038"/>
<path d="M25.9015 15.6822C25.3889 15.9626 24.8178 16.1102 24.2321 16.1102C22.4895 16.1102 21.2301 14.8559 21.2301 13.1295C21.2301 11.403 22.4895 10.1488 24.2321 10.1488C24.8618 10.134 25.4768 10.3406 25.9893 10.7095L27.3805 9.67657L27.2926 9.58803C26.4872 8.86499 25.4036 8.49609 24.1735 8.49609C22.8409 8.49609 21.6255 8.95353 20.7469 9.77986C19.8683 10.6357 19.3704 11.8309 19.3997 13.0704C19.385 14.3247 19.8683 15.5347 20.7469 16.42C21.6694 17.2906 22.8995 17.7776 24.1589 17.7481C25.55 17.7481 26.7654 17.2611 27.5855 16.3758L26.3408 15.4461L25.9015 15.6822Z" fill="#21A038"/>
<path d="M77.9049 8.62804V17.6439H79.8379V13.9549H83.9527V17.6439H85.8857V8.62804H83.9527V12.3318H79.8379V8.62804H77.9049ZM74.5808 17.6439H76.6163L72.8382 8.62804H70.8759L67.0246 17.6439H68.9723L69.7484 15.8289H73.8486L74.5808 17.6439ZM70.3341 14.3238L71.8278 10.7086L73.2336 14.3238H70.3341ZM90.2202 13.9992H91.421L94.379 17.6291H96.8685L92.9147 12.9663L96.3706 8.61328H94.1594L91.2892 12.4793H90.2202V8.61328H88.2873V17.6291H90.2202V13.9992ZM60.64 12.1399V10.1331H65.6921V8.62804H58.707V17.6439H62.734C64.9892 17.6439 66.2925 16.611 66.2925 14.8108C66.2925 13.0843 65.121 12.1399 62.983 12.1399H60.64ZM60.64 16.1388V13.6451H62.6608C63.8909 13.6451 64.462 14.0582 64.462 14.8993C64.462 15.7404 63.8616 16.1536 62.6608 16.1536H60.64V16.1388Z" fill="#21A038"/>
<path d="M13.3536 8.55469C13.7051 9.01212 13.9979 9.51382 14.2469 10.045L7.4815 15.0768L4.64062 13.2766V11.1222L7.46686 12.9077L13.3536 8.55469Z" fill="#21A038"/>
<path d="M1.75628 13.1297C1.75628 13.0265 1.75628 12.9379 1.77092 12.8346L0.0576124 12.7461C0.0576124 12.8641 0.0429688 12.9969 0.0429688 13.115C0.0429688 15.1808 0.877659 17.0548 2.22488 18.4124L3.4403 17.1876C2.4006 16.1547 1.75628 14.7234 1.75628 13.1297Z" fill="url(#paint0_linear_810_78540)"/>
<path d="M7.46509 7.37488C7.5676 7.37488 7.65546 7.37488 7.75797 7.38964L7.84583 5.66319C7.72868 5.66319 7.59689 5.64844 7.47974 5.64844C5.42962 5.64844 3.56988 6.48953 2.22266 7.84707L3.43808 9.07181C4.46314 8.02414 5.89822 7.37488 7.46509 7.37488Z" fill="url(#paint1_linear_810_78540)"/>
<path d="M7.46667 18.8844C7.36417 18.8844 7.27631 18.8844 7.1738 18.8697L7.08594 20.5961C7.20309 20.5961 7.33488 20.6109 7.45203 20.6109C9.50214 20.6109 11.3619 19.7698 12.7091 18.4122L11.4937 17.1875C10.4686 18.2499 9.04819 18.8844 7.46667 18.8844Z" fill="url(#paint2_linear_810_78540)"/>
<path d="M10.6904 8.37741L12.1401 7.30023C10.8661 6.26732 9.24064 5.63281 7.46875 5.63281V7.35926C8.66953 7.37401 9.78245 7.74291 10.6904 8.37741Z" fill="url(#paint3_linear_810_78540)"/>
<path d="M14.907 13.1279C14.907 12.6705 14.8631 12.2278 14.7899 11.7852L13.1937 12.9804C13.1937 13.0247 13.1937 13.0837 13.1937 13.1279C13.1937 14.8249 12.4615 16.3447 11.3047 17.3924L12.4615 18.6762C13.9552 17.3186 14.907 15.3266 14.907 13.1279Z" fill="#21A038"/>
<path d="M7.46696 18.884C5.78294 18.884 4.27464 18.1462 3.23494 16.9805L1.96094 18.1462C3.3228 19.666 5.28505 20.6104 7.46696 20.6104V18.884Z" fill="url(#paint4_linear_810_78540)"/>
<path d="M3.64531 8.8658L2.48846 7.58203C0.980164 8.95433 0.0429688 10.9316 0.0429688 13.1303H1.75628C1.75628 11.4481 2.48846 9.91347 3.64531 8.8658Z" fill="url(#paint5_linear_810_78540)"/>
<defs>
<linearGradient id="paint0_linear_810_78540" x1="2.04205" y1="18.2023" x2="0.292674" y2="13.1069" gradientUnits="userSpaceOnUse">
<stop offset="0.1444" stop-color="#F2E913"/>
<stop offset="0.3037" stop-color="#E7E518"/>
<stop offset="0.5823" stop-color="#CADB26"/>
<stop offset="0.891" stop-color="#A3CD39"/>
</linearGradient>
<linearGradient id="paint1_linear_810_78540" x1="2.71104" y1="7.65225" x2="7.15222" y2="5.94683" gradientUnits="userSpaceOnUse">
<stop offset="0.0592" stop-color="#0FA8E0"/>
<stop offset="0.5385" stop-color="#0099F9"/>
<stop offset="0.9234" stop-color="#0291EB"/>
</linearGradient>
<linearGradient id="paint2_linear_810_78540" x1="6.98534" y1="19.1426" x2="12.2799" y2="17.9368" gradientUnits="userSpaceOnUse">
<stop offset="0.1226" stop-color="#A3CD39"/>
<stop offset="0.2846" stop-color="#86C339"/>
<stop offset="0.8693" stop-color="#21A038"/>
</linearGradient>
<linearGradient id="paint3_linear_810_78540" x1="7.11673" y1="6.73243" x2="11.5188" y2="8.10108" gradientUnits="userSpaceOnUse">
<stop offset="0.0566" stop-color="#0291EB"/>
<stop offset="0.79" stop-color="#0C8ACB"/>
</linearGradient>
<linearGradient id="paint4_linear_810_78540" x1="2.39657" y1="18.4197" x2="7.12486" y2="20.1999" gradientUnits="userSpaceOnUse">
<stop offset="0.1324" stop-color="#F2E913"/>
<stop offset="0.2977" stop-color="#EBE716"/>
<stop offset="0.5306" stop-color="#D9E01F"/>
<stop offset="0.8023" stop-color="#BBD62D"/>
<stop offset="0.9829" stop-color="#A3CD39"/>
</linearGradient>
<linearGradient id="paint5_linear_810_78540" x1="1.35575" y1="13.3388" x2="3.24698" y2="8.38128" gradientUnits="userSpaceOnUse">
<stop offset="0.0698" stop-color="#A3CD39"/>
<stop offset="0.2599" stop-color="#81C55F"/>
<stop offset="0.9216" stop-color="#0FA8E0"/>
</linearGradient>
</defs>
</svg>
