<svg width="37" height="12" viewBox="0 0 37 12" fill="none" xmlns="http://www.w3.org/2000/svg">
<path d="M14.0153 0.209897L9.18171 11.8155H6.02603L3.64969 2.55424C3.60397 2.11454 3.33698 1.72932 2.94275 1.53426C2.00638 1.08381 1.01783 0.752691 0 0.548561L0.0723972 0.209897H5.14448C5.83523 0.201778 6.42691 0.705875 6.53281 1.39283L7.81041 8.10842L10.915 0.209897H14.0153ZM26.3655 8.02699C26.3655 4.96276 22.1579 4.79562 22.1877 3.42851C22.1877 2.99994 22.5923 2.57138 23.4653 2.45567C24.4747 2.3589 25.4914 2.53805 26.4081 2.97423L26.9234 0.514276C26.0313 0.177361 25.0867 0.0032095 24.1339 0C21.1869 0 19.1087 1.57711 19.0917 3.85707C19.0917 5.52847 20.5737 6.45845 21.7022 7.01558C22.8308 7.57271 23.2524 7.94985 23.2481 8.45984C23.2481 9.23982 22.3197 9.58267 21.4637 9.59553C20.3962 9.61934 19.3404 9.367 18.3975 8.86269L17.8609 11.3826C18.9184 11.7962 20.0439 12.0056 21.1784 11.9999C24.3128 11.9999 26.3612 10.4441 26.374 8.02699H26.3655ZM34.1631 11.8155H36.9227L34.5123 0.209887H31.9571C31.3962 0.202888 30.8887 0.543391 30.6795 1.06712L26.2164 11.8155H29.3465L29.9683 10.1012H33.8011L34.1631 11.8155ZM30.8328 7.70128L32.4043 3.34279L33.3071 7.70128H30.8328ZM18.2782 0.209996L15.8082 11.8155H12.8271L15.2972 0.209996H18.2782Z" fill="#59B8C5"/>
</svg>
