<svg width="17" height="17" viewBox="0 0 17 17" fill="none" xmlns="http://www.w3.org/2000/svg">
<path fill-rule="evenodd" clip-rule="evenodd" d="M4.63784 4.99305C4.63468 4.44077 5.07983 3.9905 5.63211 3.98735L12.0326 3.95077C12.2998 3.94925 12.5565 4.05471 12.7455 4.24365C12.9344 4.43259 13.0399 4.68928 13.0383 4.95647L13.0018 11.357C12.9986 11.9093 12.5483 12.3544 11.9961 12.3513C11.4438 12.3481 10.9986 11.8979 11.0018 11.3456L11.0245 7.37886L5.67439 12.7289C5.28387 13.1195 4.65071 13.1195 4.26018 12.7289C3.86966 12.3384 3.86966 11.7052 4.26018 11.3147L9.61025 5.96465L5.64353 5.98732C5.09126 5.99047 4.64099 5.54532 4.63784 4.99305Z" fill="white"/>
</svg>
