<svg width="24" height="29" viewBox="0 0 24 29" fill="none" xmlns="http://www.w3.org/2000/svg">
<path d="M14.2739 22.3229V24.3062L19.7572 24.8312L20.4572 24.1312L21.8572 24.5396L21.6822 24.6562L20.3989 25.9396L20.1655 26.1729H19.8739L13.5155 25.5312L12.9322 25.4729V22.3229H14.2739ZM3.42386 12.7562C3.42386 8.43955 6.74886 4.82288 11.0655 4.53122V3.24788C5.81553 3.53955 1.79053 8.08955 2.14053 13.3396C2.43219 18.4145 6.63219 22.3229 11.7072 22.3229V23.6062C10.4239 23.6062 9.08219 23.3729 7.91553 22.9062V28.0396H6.63219V22.3229C1.38219 19.5229 -0.659475 12.9312 2.19886 7.68122C3.94886 4.35622 7.33219 2.19788 11.1239 1.96455V0.681217H12.3489V12.7562H11.0655V9.60622C10.4239 9.72288 9.89886 10.0729 9.43219 10.4812C8.20719 11.7062 8.20719 13.7479 9.43219 14.9729C10.6572 16.1979 12.6989 16.1979 13.9239 14.9729C15.1489 13.7479 15.1489 11.7062 13.9239 10.4812C13.8072 10.3646 13.6905 10.2479 13.5739 10.1896V8.67288C14.0405 8.90622 14.4489 9.19788 14.7989 9.54788C16.5489 11.2979 16.5489 14.0979 14.7989 15.8479C14.0989 16.5479 13.2239 16.9562 12.2905 17.1312V19.2896L20.5739 21.5646V19.9312L21.0405 19.7562L22.4989 19.2312V18.6479L20.0489 14.9729L19.8155 14.6229L20.1655 14.2729L21.2739 13.1646V12.8146C21.2739 10.3062 20.2822 7.85622 18.4739 6.04788C18.2989 5.87288 18.1239 5.69788 17.9489 5.58122C18.1822 5.40622 18.3572 5.23122 18.5905 5.05622C18.7072 4.93955 18.8239 4.82288 18.8822 4.70622C19.0572 4.88122 19.2322 4.99788 19.3489 5.17288C21.3905 7.21455 22.4989 9.95622 22.4989 12.8146V13.6896L22.3239 13.8646L21.4489 14.7396L23.7239 18.1229L23.8405 18.2979V20.2229L23.3739 20.3979L21.9155 20.8645V21.9146L23.3739 22.3229L23.0239 23.5479L21.9155 23.2562L20.6322 22.9062L11.5322 20.3979L11.0655 20.2812V17.1896C10.1322 17.0729 9.25719 16.6062 8.55719 15.9062C6.80719 14.1562 6.80719 11.3562 8.55719 9.60622C9.25719 8.90622 10.1322 8.49788 11.0655 8.32288V5.81455C7.44886 6.16455 4.70719 9.19788 4.70719 12.8146L3.42386 12.7562ZM19.3489 0.0395508C19.3489 1.55622 18.7655 3.01455 17.6572 4.06455C16.6072 5.11455 15.1489 5.75622 13.6322 5.75622V4.47288C14.7989 4.47288 15.9655 4.00622 16.7822 3.18955C17.5989 2.37288 18.0655 1.20622 18.0655 0.0395508H19.3489ZM16.7822 0.0395508C16.7822 0.856217 16.4322 1.67288 15.8489 2.31455C15.2655 2.89788 14.4489 3.24788 13.5739 3.24788V1.96455C14.0989 1.96455 14.5655 1.73122 14.9155 1.38122C15.2655 1.03122 15.4989 0.564551 15.4989 0.0395508H16.7822Z" fill="white"/>
</svg>
