<svg width="20" height="21" viewBox="0 0 20 21" fill="none" xmlns="http://www.w3.org/2000/svg">
<path d="M10 18.3711C5.59 18.3711 2 14.7811 2 10.3711C2 5.96109 5.59 2.37109 10 2.37109C14.41 2.37109 18 5.96109 18 10.3711C18 14.7811 14.41 18.3711 10 18.3711ZM10 0.371094C4.47 0.371094 0 4.84109 0 10.3711C0 15.9011 4.47 20.3711 10 20.3711C15.53 20.3711 20 15.9011 20 10.3711C20 4.84109 15.53 0.371094 10 0.371094ZM12.59 6.37109L10 8.96109L7.41 6.37109L6 7.78109L8.59 10.3711L6 12.9611L7.41 14.3711L10 11.7811L12.59 14.3711L14 12.9611L11.41 10.3711L14 7.78109L12.59 6.37109Z" fill="white"/>
</svg>
