<svg width="17" height="14" viewBox="0 0 17 14" fill="none" xmlns="http://www.w3.org/2000/svg">
<path d="M14.3498 0.050293H2.68311C2.02006 0.050293 1.38418 0.313685 0.915339 0.782526C0.446498 1.25137 0.183105 1.88725 0.183105 2.55029V10.8836C0.183105 11.5467 0.446498 12.1826 0.915339 12.6514C1.38418 13.1202 2.02006 13.3836 2.68311 13.3836H14.3498C15.0128 13.3836 15.6487 13.1202 16.1175 12.6514C16.5864 12.1826 16.8498 11.5467 16.8498 10.8836V2.55029C16.8498 1.88725 16.5864 1.25137 16.1175 0.782526C15.6487 0.313685 15.0128 0.050293 14.3498 0.050293ZM2.68311 1.71696H14.3498C14.5708 1.71696 14.7827 1.80476 14.939 1.96104C15.0953 2.11732 15.1831 2.32928 15.1831 2.55029L8.51644 6.61696L1.84977 2.55029C1.84977 2.32928 1.93757 2.11732 2.09385 1.96104C2.25013 1.80476 2.46209 1.71696 2.68311 1.71696ZM15.1831 10.8836C15.1831 11.1046 15.0953 11.3166 14.939 11.4729C14.7827 11.6292 14.5708 11.717 14.3498 11.717H2.68311C2.46209 11.717 2.25013 11.6292 2.09385 11.4729C1.93757 11.3166 1.84977 11.1046 1.84977 10.8836V4.45029L8.08311 8.25863C8.20979 8.33177 8.35349 8.37027 8.49977 8.37027C8.64605 8.37027 8.78976 8.33177 8.91644 8.25863L15.1831 4.45029V10.8836Z" fill="#237A00"/>
</svg>
