<svg width="275" height="72" viewBox="0 0 275 72" fill="none" xmlns="http://www.w3.org/2000/svg">
<g clip-path="url(#clip0_253_496)">
<path d="M0.759277 30.8428L3.25195 36.5549C3.25195 36.5549 19.7668 33.9443 26.8138 49.032C26.8138 49.032 26.742 33.0978 0.759277 30.8428Z" fill="#06C037"/>
<path d="M53.1918 32.2939L53.3571 36.6047C53.3571 36.6047 43.3576 34.3142 38.0347 49.0676C38.0347 49.0676 38.0706 33.5388 53.1918 32.2939Z" fill="#06C037"/>
<path d="M0.134277 16.6587V24.3413C0.134277 24.3413 24.7665 25.5364 27.331 47.2539C27.331 47.2539 30.6785 24.5547 0.134277 16.6587Z" fill="#A5E396"/>
<path d="M64.4846 15.3569V23.0395C64.4846 23.0395 39.8524 24.2346 37.2879 45.9522C37.2879 45.9522 33.9404 23.2529 64.4846 15.3569Z" fill="#A5E396"/>
<path d="M64.484 0.354492V11.6365C64.484 11.6365 52.5379 13.7706 44.9665 20.3008C44.9665 20.3008 41.3532 10.0502 64.484 0.354492Z" fill="#F1EBE8"/>
<path d="M0.0410156 0.916504V11.6152C0.0410156 11.6152 11.3694 13.6355 18.5529 19.8313C18.5529 19.8385 22.8055 9.77283 0.0410156 0.916504Z" fill="#F1EBE8"/>
<path d="M53.3569 40.0195C53.9388 39.9626 54.2405 39.9626 54.5781 39.9626H55.2821L55.1313 46.7773V47.8657C55.1313 48.9185 55.3468 49.6726 55.7419 50.1563C56.3525 50.8534 57.4443 51.2731 58.5722 51.2731C59.2761 51.2731 59.8221 51.1806 60.7344 50.8818C61.5246 49.886 61.6467 49.7366 62.4081 48.8332L62.1639 48.257C61.4958 48.6197 60.9427 48.7976 60.4614 48.7976C59.8221 48.7976 59.3983 48.5557 59.154 48.0436C58.9385 47.5883 58.881 46.9908 58.881 45.4187V39.8701C60.4327 39.8986 60.6769 39.8986 62.2932 39.9911L62.7817 38.0917L62.5662 37.9424C61.9556 38.0348 60.9858 38.0917 60.1597 38.0917C59.8221 38.0917 59.7359 38.0917 58.9098 38.0633C59.0032 34.7768 59.0319 31.8745 59.1827 30.4234L58.881 30.089C57.2073 30.9 56.9343 31.0209 55.1313 31.5971L55.2821 38.2696L53.3641 39.2655V40.0195H53.3569ZM79.5767 49.5801C78.4489 49.5516 78.2046 49.5232 77.9604 49.4022C77.594 49.2244 77.5366 48.7976 77.5366 46.5355C77.5366 40.4107 77.5653 39.5073 77.7521 36.9465L77.357 36.7046C75.166 37.5511 74.1603 37.793 71.9334 37.9139V39.0592L72.6374 39.0876C74.1029 39.1445 74.1603 39.1801 74.1603 40.0551L74.1891 41.4422C74.2178 42.1038 74.2178 42.3741 74.2178 42.7724C74.2178 43.6759 74.1244 45.881 74.0957 46.2083C73.9448 47.382 72.6949 48.321 71.2941 48.321C70.3818 48.321 69.6491 47.9582 69.3474 47.3251C69.0744 46.8129 68.981 46.0873 68.981 44.6433C68.981 42.5021 69.0744 39.1517 69.1965 37.0745L68.7368 36.7757C66.8475 37.4373 66.1148 37.5867 63.1911 37.9495V39.0947C64.4698 39.0947 64.714 39.1232 64.9583 39.2726C65.26 39.422 65.2959 39.6923 65.2959 42.4096V44.5508C65.2672 45.2479 65.2672 46.2367 65.2672 46.3932C65.2672 48.4419 65.6048 49.4093 66.6105 50.1918C67.3719 50.768 68.4064 51.0668 69.5629 51.0668C70.5973 51.0668 71.1792 50.889 71.7251 50.4337L74.225 48.2925C74.1962 49.3453 74.1962 49.5018 74.0741 50.5546L74.225 50.8249C75.8987 50.768 76.5093 50.7325 77.0553 50.7325C77.7233 50.7325 78.1184 50.7325 79.5839 50.8249V49.5872L79.5767 49.5801ZM88.4914 31.6611C89.5258 31.6896 90.1364 31.718 90.2873 31.8105C90.5602 31.903 90.6536 32.1448 90.6824 33.0198C90.7111 34.4994 90.7111 34.6488 90.7111 37.4231C89.7341 36.9394 88.944 36.7615 88.0029 36.7615C86.9038 36.7615 85.8982 37.1243 84.6842 37.9352C83.3408 38.8387 82.3423 39.5927 82.0334 39.927C81.3295 40.7735 80.7835 42.8507 80.7835 44.6646C80.7835 48.4063 83.0679 51.1166 86.2071 51.1166C87.457 51.1166 87.5504 51.0597 88.9511 49.7579C89.375 49.3667 89.8347 48.9754 90.2873 48.6126L90.7111 48.2498C90.6536 49.3026 90.6177 49.4876 90.5602 50.6044L90.7398 50.7823C91.53 50.7253 91.7455 50.7253 93.1463 50.7253C94.8201 50.7253 95.3373 50.7253 96.343 50.7823V49.6085C95.3085 49.5516 94.7267 49.4307 94.5758 49.2173C94.3603 48.9754 94.3028 47.3749 94.3028 42.7653C94.3028 38.1558 94.3962 32.6641 94.5184 29.5555L94.2167 29.2212C92.8733 29.8827 91.0487 30.274 88.4914 30.5514V31.6682V31.6611ZM90.7183 45.2622C90.7183 46.4074 90.6608 46.6778 90.2585 47.1615C89.6767 47.823 88.671 48.3068 87.7946 48.3068C85.7832 48.3068 84.6554 46.4359 84.6554 43.1495C84.6554 40.1049 85.5965 38.5684 87.4857 38.5684C88.7644 38.5684 89.7701 39.173 90.7111 40.4677V45.2622H90.7183ZM109.043 48.008C108.131 48.6411 107.061 48.9399 105.847 48.9399C103.318 48.9399 101.522 46.9481 101.465 43.996H105.516C106.86 43.996 107.377 43.9391 109.783 43.4838C109.812 42.9716 109.848 42.5519 109.848 42.3385C109.848 40.802 109.359 39.2655 108.627 38.3905C107.772 37.3377 106.278 36.7046 104.726 36.7046C103.57 36.7046 102.715 36.9749 101.221 37.793C99.8485 38.5186 99.0583 39.0592 98.692 39.5144C97.9592 40.4179 97.5642 42.1109 97.5642 44.188C97.5642 46.5711 98.2035 48.321 99.4821 49.5232C100.667 50.64 102.348 51.2446 104.202 51.2446C105.904 51.2446 107.398 50.7894 108.799 49.8575L109.467 48.4704L109.043 48.0151V48.008ZM101.307 42.5164C101.458 39.5287 102.162 38.3265 103.742 38.3265C105.322 38.3265 105.962 39.5002 105.962 42.4879C105.078 42.5448 104.654 42.5448 103.376 42.5448C102.463 42.5448 102.032 42.5448 101.307 42.5164ZM111.356 39.109C112.7 39.1374 112.944 39.1659 113.124 39.3508C113.339 39.5927 113.397 40.5601 113.397 44.3588L113.332 48.1289C113.303 49.0323 113.239 49.2457 113.059 49.3667C112.879 49.5445 112.693 49.5445 111.349 49.6085V50.7823C112.628 50.7253 113.576 50.7253 115.825 50.7253C118.073 50.7253 118.016 50.7253 119.115 50.7538V49.6085C117.774 49.5469 117.084 48.9541 117.046 47.8301L116.988 41.8904C116.988 41.1363 117.046 40.9585 117.506 40.4108C118.051 39.7492 118.755 39.4149 119.639 39.4149C120.616 39.4149 121.342 39.8701 121.65 40.6242C121.988 41.4707 122.074 42.3101 122.074 44.9065C122.074 47.197 122.01 48.5842 121.801 50.6044L121.895 50.7823C123.511 50.7253 123.935 50.6898 124.696 50.6898C125.242 50.6898 125.673 50.6898 127.685 50.7823V49.6085L127.347 49.5801C125.759 49.4876 125.702 49.4022 125.702 46.9836C125.702 46.5639 125.731 45.504 125.759 43.9675L125.788 41.8548C125.788 39.7421 125.544 38.7462 124.811 37.9637C124.078 37.2097 122.987 36.8184 121.586 36.8184C120.185 36.8184 119.603 36.9678 119 37.544L117.017 39.3224C116.988 38.1487 116.988 37.9637 116.924 36.9394L116.529 36.79C114.977 37.4231 113.605 37.7574 111.349 37.9993V39.1161L111.356 39.109ZM128.611 40.0124C129.186 39.9555 129.495 39.9555 129.832 39.9555H130.529L130.378 46.7702V47.8586C130.378 48.9114 130.594 49.6654 130.989 50.1492C131.6 50.8463 132.691 51.266 133.819 51.266C134.516 51.266 135.069 51.1735 135.981 50.8747C136.772 49.8788 136.894 49.7295 137.655 48.826L137.411 48.2498C136.743 48.6126 136.19 48.7905 135.709 48.7905C135.069 48.7905 134.645 48.5486 134.401 48.0364C134.186 47.5812 134.128 46.9836 134.128 45.4116V39.863C135.68 39.8915 135.924 39.8915 137.54 39.9839L138.029 38.0846L137.813 37.9352C137.203 38.0277 136.226 38.0846 135.407 38.0846C135.069 38.0846 134.983 38.0846 134.157 38.0562C134.25 34.7697 134.279 33.8307 134.43 32.3867L134.128 32.0524C132.454 32.8633 132.181 32.9842 130.386 33.5604L130.536 38.2625L128.618 39.2584V40.0124H128.611ZM139.76 46.1656C139.731 48.9114 139.703 49.452 139.544 50.2701C141.218 50.9316 142.712 51.266 144.056 51.266C147.647 51.266 150.298 49.0964 150.298 46.1656C150.298 44.686 149.752 43.6616 148.624 43.057C147.956 42.6942 147.468 42.5164 145.758 42.1251C143.474 41.5845 142.777 41.0723 142.777 39.9555C142.777 38.8387 143.689 38.1771 145.09 38.1771C145.945 38.1771 146.671 38.4474 147.224 38.9027C147.683 39.3224 147.806 39.6567 147.834 40.5601L147.863 41.1648H148.926C148.984 39.4149 149.077 38.419 149.264 37.5156C147.956 36.9394 146.8 36.7046 145.399 36.7046C141.894 36.7046 139.674 38.4545 139.674 41.2288C139.674 42.4025 140.134 43.434 140.924 44.0956C141.534 44.5508 142.202 44.8496 143.574 45.2408C145.313 45.7245 145.399 45.753 145.888 46.0233C146.556 46.3576 146.864 46.8698 146.864 47.6523C146.864 48.9185 145.859 49.7366 144.243 49.7366C143.301 49.7366 142.353 49.4378 141.743 48.8901C141.197 48.4063 141.01 47.8657 141.01 46.6849L140.981 46.1727H139.76V46.1656ZM153.064 50.8107C154.493 50.7182 154.953 50.6898 156.016 50.6898C157.079 50.6898 157.719 50.6898 158.94 50.7467C159.608 50.7751 160.125 50.7751 160.434 50.7751C162.539 50.7751 164.09 50.4764 165.218 49.8433C167.352 48.6695 168.659 46.5568 168.659 44.3516C168.659 42.4523 167.682 40.8233 166.102 40.1262C165.19 39.735 164.514 39.5856 162.876 39.4006C166.317 38.5897 167.934 37.0176 167.934 34.4567C167.934 31.8959 166.016 30.4732 162.424 30.4732C162.058 30.4732 161.418 30.5016 160.657 30.5301C159.012 30.587 158.128 30.6226 156.605 30.6226H155.025L152.683 30.5301L151.922 30.5016V31.7109C153.509 31.8034 153.933 31.8888 154.177 32.1662C154.45 32.5005 154.515 33.8521 154.515 40.553L154.486 42.3029V45.6178C154.486 48.0578 154.429 48.9683 154.271 49.2102C154.055 49.5445 153.725 49.7864 153.085 50.1136V50.8107H153.064ZM158.574 38.8956V38.0491C158.545 36.9038 158.545 36.3276 158.545 36.3276C158.545 35.9079 158.609 32.9487 158.638 32.1662C159.4 32.0453 159.823 32.0168 160.312 32.0168C162.539 32.0168 163.545 33.0127 163.545 35.2463C163.545 37.8428 162.266 38.8956 159.155 38.8956H158.574ZM158.516 41.3355C158.516 41.2786 158.516 40.9158 158.545 40.4321C159.033 40.4036 159.091 40.4036 159.823 40.4036C161.253 40.4036 162.014 40.5815 162.718 41.1292C163.695 41.8263 164.148 43.0001 164.148 44.686C164.148 46.2865 163.724 47.5243 162.869 48.3068C162.165 48.9399 161.224 49.2386 159.852 49.2386C159.184 49.2386 159.091 49.2386 158.602 49.1461C158.583 48.743 158.574 47.3156 158.574 44.8638L158.516 41.3355ZM177.624 36.6619C173.149 36.6619 170.649 39.1659 170.649 43.7185C170.649 48.698 172.876 51.2304 177.229 51.2304C181.827 51.2304 184.42 48.4846 184.42 43.5976C184.42 38.7106 182.258 36.6619 177.624 36.6619ZM177.409 38.1131C179.478 38.1131 180.361 40.1049 180.361 44.75C180.361 48.2498 179.571 49.7864 177.739 49.7864C176.518 49.7864 175.699 49.0892 175.275 47.7377C174.88 46.4715 174.693 44.8994 174.693 43.0641C174.693 39.7136 175.577 38.1202 177.402 38.1202L177.409 38.1131ZM193.205 36.6619C188.73 36.6619 186.23 39.1659 186.23 43.7185C186.23 48.698 188.45 51.2304 192.81 51.2304C197.408 51.2304 200.001 48.4846 200.001 43.5976C200.001 38.7106 197.839 36.6619 193.205 36.6619ZM192.99 38.1131C195.059 38.1131 195.942 40.1049 195.942 44.75C195.942 48.2498 195.152 49.7864 193.32 49.7864C192.099 49.7864 191.28 49.0892 190.856 47.7377C190.461 46.4715 190.274 44.8994 190.274 43.0641C190.274 39.7136 191.158 38.1202 192.982 38.1202L192.99 38.1131ZM201.481 31.6896L202.242 31.718C203.003 31.7465 203.276 31.839 203.427 32.1733C203.549 32.5645 203.607 34.9191 203.607 40.1973L203.549 47.9795C203.521 48.9754 203.492 49.2173 203.276 49.3667C203.061 49.5445 202.759 49.5801 201.416 49.5801V50.7894C203.212 50.7325 204.246 50.6969 205.525 50.6969C206.804 50.6969 207.63 50.7253 209.239 50.7538V49.5801H208.664C207.263 49.5232 207.235 49.4591 207.199 47.0192C207.199 45.4827 207.199 44.9349 207.17 43.8537C209.117 45.8455 210.855 47.8373 213.111 50.7609C213.721 50.7325 214.54 50.7325 215.668 50.7325C216.609 50.7325 216.796 50.7325 218.441 50.7894V49.5801C217.378 49.6085 217.069 49.4591 216.372 48.6482C216.185 48.4348 216.034 48.257 215.883 48.072L210.675 42.2176L213.872 39.3793C215 38.4474 215.244 38.3265 216.458 38.2909L217.126 38.2625V37.0887C215.819 37.1456 215.546 37.1456 215.021 37.1456C214.382 37.1456 214.109 37.1456 212.831 37.0887C212.831 37.6649 212.651 37.9637 211.674 38.988C208.901 41.7623 208.815 41.8548 207.17 43.2704V36.8469C207.17 33.2546 207.199 31.5971 207.321 29.6053L206.897 29.3919C205.59 29.9966 203.672 30.4163 201.473 30.5656V31.6825L201.481 31.6896ZM222.686 46.6208C221.501 46.6208 220.495 47.6736 220.495 48.9754C220.495 50.2772 221.501 51.266 222.658 51.266C223.907 51.266 224.884 50.2416 224.884 48.947C224.884 47.6523 223.907 46.628 222.693 46.628L222.686 46.6208ZM227.528 50.8107C229.597 50.7182 230.207 50.6898 231.184 50.6898C232.161 50.6898 233.009 50.7182 234.381 50.8107V49.573H233.986C232.643 49.452 232.398 49.4236 232.219 49.2102C231.975 48.8474 231.917 47.2824 231.881 41.1292C231.881 38.4474 231.881 37.1812 231.852 35.1539C233.921 38.0206 236.91 41.6058 244.826 50.8107C246.047 50.9885 246.255 51.0241 247.448 51.2944C247.354 46.315 247.354 45.1697 247.354 42.5448L247.383 34.8266C247.412 32.7424 247.441 32.5076 247.656 32.2018C247.9 31.903 248.482 31.7465 249.883 31.718V30.5087C247.994 30.6012 247.232 30.6297 246.076 30.6297C244.919 30.6297 244.215 30.6012 243.001 30.5087V31.718L243.368 31.7465C245.106 31.8959 245.163 31.8959 245.35 32.3511C245.566 33.0767 245.623 35.8794 245.623 42.7867V45.2622C242.944 42.3385 240.839 39.7705 233.497 30.5443C232.614 30.6368 232.19 30.6368 230.969 30.6368C229.626 30.6368 228.684 30.6083 227.499 30.5443V31.7536C229.084 31.9148 229.918 32.2373 229.999 32.721C230.092 33.1123 230.15 36.2778 230.15 39.2655C230.15 41.3782 230.092 47.0477 230.028 47.7732C229.999 48.7976 229.906 49.0679 229.69 49.2813C229.417 49.4947 229.115 49.5232 227.528 49.5801V50.8178V50.8107ZM262.31 48.008C261.398 48.6411 260.328 48.9399 259.114 48.9399C256.585 48.9399 254.789 46.9481 254.725 43.996H258.776C260.119 43.996 260.637 43.9391 263.043 43.4838C263.072 42.9716 263.101 42.5519 263.101 42.3385C263.101 40.802 262.612 39.2655 261.879 38.3905C261.025 37.3377 259.538 36.7046 257.979 36.7046C256.822 36.7046 255.967 36.9749 254.473 37.793C253.101 38.5186 252.311 39.0592 251.945 39.5144C251.212 40.4179 250.817 42.1109 250.817 44.188C250.817 46.5711 251.456 48.321 252.735 49.5232C253.92 50.64 255.601 51.2446 257.454 51.2446C259.164 51.2446 260.651 50.7894 262.052 49.8575L262.72 48.4704L262.296 48.0151L262.31 48.008ZM254.574 42.5164C254.725 39.5287 255.429 38.3265 257.009 38.3265C258.589 38.3265 259.236 39.5002 259.236 42.4879C258.352 42.5448 257.928 42.5448 256.65 42.5448C255.738 42.5448 255.314 42.5448 254.581 42.5164H254.574ZM264.623 40.0124C265.198 39.9555 265.507 39.9555 265.845 39.9555H266.541L266.391 46.7702V47.8586C266.391 48.9114 266.606 49.6654 267.001 50.1492C267.612 50.8463 268.704 51.266 269.832 51.266C270.536 51.266 271.081 51.1735 271.994 50.8747C272.784 49.8788 272.906 49.7295 273.668 48.826L273.423 48.2498C272.755 48.6126 272.202 48.7905 271.721 48.7905C271.081 48.7905 270.658 48.5486 270.413 48.0364C270.198 47.5812 270.14 46.9836 270.14 45.4116V39.863C271.692 39.8915 271.936 39.8915 273.553 39.9839L274.041 38.0846L273.826 37.9352C273.215 38.0277 272.245 38.0846 271.419 38.0846C271.081 38.0846 270.995 38.0846 270.169 38.0562C270.263 34.7697 270.291 33.8307 270.442 32.3867L270.14 32.0524C268.467 32.8633 268.194 32.9842 266.391 33.5604L266.541 38.2625L264.623 39.2584V40.0124Z" fill="#0A730D"/>
<path d="M47.9549 70.9352H46.8918V69.0288H41.4323V70.9352H40.3691V68.0613H40.8289C41.3174 67.2646 41.7125 66.2261 42.0142 64.9385C42.3159 63.6438 42.4667 62.2354 42.4667 60.7131H47.1647V68.0685H47.9621V70.9423L47.9549 70.9352ZM46.0369 68.0613V61.6734H43.5083C43.458 63.0179 43.2856 64.2414 42.9983 65.344C42.711 66.4395 42.3446 67.35 41.8992 68.0685H46.0297L46.0369 68.0613ZM54.1471 65.9202C54.1471 66.973 53.8885 67.7839 53.3784 68.3601C52.8684 68.9292 52.186 69.2137 51.3312 69.2137C50.4763 69.2137 49.758 68.9221 49.2551 68.3317C48.7523 67.7412 48.5009 66.9303 48.5009 65.9202C48.5009 64.91 48.7595 64.0635 49.2767 63.4873C49.7939 62.9112 50.4835 62.6195 51.3312 62.6195C52.1788 62.6195 52.8684 62.9112 53.3784 63.4873C53.8885 64.0635 54.1471 64.8745 54.1471 65.9202ZM53.048 65.9202C53.048 65.1092 52.8972 64.5117 52.6026 64.1205C52.3081 63.7221 51.8843 63.53 51.3312 63.53C50.778 63.53 50.347 63.7292 50.0453 64.1205C49.7508 64.5117 49.5999 65.1163 49.5999 65.9202C49.5999 66.724 49.7508 67.3002 50.0453 67.7057C50.347 68.1111 50.778 68.3103 51.3312 68.3103C51.8843 68.3103 52.3009 68.1111 52.5954 67.7199C52.8972 67.3215 53.048 66.724 53.048 65.9202ZM57.746 69.1853C57.315 69.1853 56.9127 69.1213 56.5536 68.9861C56.1944 68.8509 55.8783 68.6518 55.6197 68.3814C55.3611 68.1111 55.16 67.7768 55.0163 67.3713C54.8726 66.9587 54.8008 66.4821 54.8008 65.9273C54.8008 65.3724 54.8726 64.9029 55.0235 64.5046C55.1743 64.1062 55.3755 63.7719 55.6197 63.4945C55.8711 63.2241 56.18 63.0107 56.5464 62.8685C56.9199 62.7191 57.3222 62.648 57.746 62.648C58.0908 62.648 58.4284 62.6977 58.7445 62.7902C59.0678 62.8898 59.3551 62.9965 59.6065 63.1246V64.3054H59.5419C59.4701 64.2414 59.3695 64.1702 59.2474 64.0849C59.1324 63.9995 58.9888 63.9213 58.8164 63.8359C58.6727 63.7648 58.4931 63.6936 58.2991 63.6367C58.098 63.5798 57.9041 63.5514 57.7245 63.5514C57.1713 63.5514 56.7331 63.7577 56.3955 64.1702C56.0651 64.5828 55.8999 65.1661 55.8999 65.9202C55.8999 66.6742 56.0579 67.2362 56.3811 67.6488C56.7044 68.0613 57.157 68.2676 57.7245 68.2676C58.0693 68.2676 58.3997 68.1965 58.7158 68.0542C59.0319 67.912 59.3048 67.727 59.5491 67.5065H59.6137V68.6873C59.506 68.7371 59.3767 68.794 59.2186 68.8652C59.0606 68.9292 58.9169 68.9861 58.7876 69.0145C58.608 69.0643 58.4428 69.107 58.2991 69.1355C58.1555 69.1639 57.9687 69.1782 57.746 69.1782V69.1853ZM65.2025 63.715H63.0546V69.043H61.9915V63.715H59.8436V62.7902H65.2025V63.715ZM69.5198 67.5065V65.7708C69.2683 65.7921 68.9451 65.8277 68.5572 65.8633C68.1693 65.8988 67.8604 65.9557 67.6233 66.0269C67.3432 66.1122 67.1061 66.2474 66.9193 66.4252C66.7326 66.6031 66.6392 66.8449 66.6392 67.165C66.6392 67.5207 66.7397 67.791 66.9481 67.976C67.1492 68.1609 67.4509 68.2534 67.8388 68.2534C68.1764 68.2534 68.4782 68.1823 68.7511 68.04C69.0241 67.8977 69.2755 67.7199 69.5126 67.5065H69.5198ZM69.5198 68.3814C69.4336 68.4455 69.3186 68.5379 69.1678 68.6518C69.0241 68.7656 68.8876 68.8509 68.7511 68.9221C68.5644 69.0217 68.3776 69.0928 68.2052 69.1426C68.0328 69.1924 67.7885 69.2208 67.4725 69.2208C67.2139 69.2208 66.9624 69.171 66.7326 69.0786C66.4955 68.979 66.2944 68.8438 66.1148 68.6731C65.9424 68.5024 65.8059 68.289 65.7053 68.04C65.6048 67.7839 65.5545 67.5207 65.5545 67.2362C65.5545 66.8022 65.6479 66.4323 65.8346 66.1336C66.0214 65.8277 66.3087 65.5858 66.711 65.408C67.063 65.2444 67.4868 65.1377 67.9681 65.0808C68.4494 65.0168 68.9738 64.9741 69.5269 64.9385V64.7393C69.5269 64.4904 69.491 64.2983 69.412 64.1489C69.3402 63.9924 69.2324 63.8786 69.0959 63.7932C68.9594 63.7079 68.7942 63.651 68.6003 63.6225C68.4063 63.5941 68.2052 63.5798 67.9969 63.5798C67.7526 63.5798 67.4653 63.6154 67.1348 63.6936C66.8044 63.7648 66.474 63.8715 66.1363 64.0066H66.0717V62.9396C66.2656 62.8827 66.5458 62.8187 66.9121 62.7547C67.2785 62.6906 67.6377 62.6551 67.9969 62.6551C68.4279 62.6551 68.7942 62.6906 69.0959 62.7547C69.3905 62.8187 69.6634 62.9396 69.9005 63.1174C70.1304 63.2882 70.3028 63.5087 70.4177 63.7861C70.5326 64.0564 70.5901 64.3908 70.5901 64.782V69.0572H69.5341V68.3886L69.5198 68.3814ZM77.0265 67.1579C77.0265 67.4638 76.969 67.727 76.8541 67.9618C76.7392 68.1965 76.5739 68.3886 76.3728 68.5451C76.1142 68.7442 75.8484 68.8794 75.5611 68.9505C75.2809 69.0146 74.9433 69.0501 74.5554 69.0501H72.0699V62.7973H74.3902C74.8571 62.7973 75.1947 62.8116 75.4102 62.84C75.6257 62.8685 75.8412 62.9396 76.0495 63.0534C76.2722 63.1744 76.4375 63.3308 76.538 63.53C76.6458 63.7292 76.6961 63.964 76.6961 64.2343C76.6961 64.533 76.6099 64.8033 76.4446 65.0381C76.2794 65.2728 76.0567 65.4578 75.7838 65.5858L75.8125 65.6285C76.1573 65.7139 76.4446 65.8846 76.6745 66.1478C76.9116 66.411 77.0265 66.7453 77.0265 67.1579ZM75.6042 64.3979C75.6042 64.2556 75.5826 64.1347 75.5323 64.028C75.4892 63.9213 75.403 63.843 75.2881 63.779C75.1516 63.7079 75.0008 63.6652 74.8284 63.6581C74.6631 63.6438 74.4333 63.6367 74.1316 63.6367H73.1187V65.3511H74.3399C74.5985 65.3511 74.7853 65.3369 74.893 65.3155C75.0008 65.2871 75.1229 65.2373 75.2522 65.159C75.3743 65.0879 75.4677 64.9812 75.518 64.8531C75.5683 64.7251 75.597 64.5757 75.597 64.3908L75.6042 64.3979ZM75.9274 67.165C75.9274 66.9516 75.8987 66.7809 75.834 66.6529C75.7766 66.5248 75.6401 66.4039 75.4246 66.3043C75.2953 66.2403 75.1516 66.2047 75.0008 66.1834C74.8499 66.1691 74.6416 66.162 74.3758 66.162H73.1259V68.2036H74.0454C74.4261 68.2036 74.7206 68.1894 74.9361 68.1609C75.1444 68.1325 75.3312 68.0685 75.4821 67.9831C75.6401 67.8835 75.755 67.7768 75.8269 67.6488C75.8987 67.5207 75.9346 67.3571 75.9346 67.165H75.9274ZM83.2259 69.0501H81.9041L79.7419 66.1691H79.2103V69.0501H78.1471V62.7973H79.2103V65.5218C79.4833 65.5218 79.7203 65.4649 79.9143 65.3511C80.1082 65.2373 80.2734 65.0239 80.4099 64.7038C80.453 64.6113 80.4961 64.5046 80.5464 64.3765C80.5967 64.2556 80.6398 64.1418 80.6685 64.0493C80.8338 63.5869 81.0636 63.2668 81.3582 63.0748C81.6527 62.8827 82.0334 62.7902 82.5075 62.7902H82.7948V63.7008H82.5506C82.2561 63.7008 82.0262 63.7648 81.8754 63.8857C81.7317 64.0066 81.6024 64.2272 81.5018 64.5473C81.3941 64.8745 81.2719 65.1235 81.1283 65.3084C80.9846 65.4862 80.8266 65.6285 80.6542 65.721L83.2259 69.0501ZM87.4354 67.5136V65.7779C87.184 65.7992 86.8607 65.8348 86.4728 65.8704C86.0849 65.9059 85.776 65.9629 85.5389 66.034C85.2588 66.1193 85.0217 66.2545 84.835 66.4323C84.6482 66.6102 84.5548 66.852 84.5548 67.1721C84.5548 67.5278 84.6554 67.7981 84.8637 67.9831C85.0648 68.168 85.3665 68.2605 85.7545 68.2605C86.0921 68.2605 86.3938 68.1894 86.6668 68.0471C86.9397 67.9048 87.1912 67.727 87.4282 67.5136H87.4354ZM87.4354 68.3886C87.3492 68.4526 87.2342 68.5451 87.0834 68.6589C86.9397 68.7727 86.8032 68.8581 86.6668 68.9292C86.48 69.0288 86.2932 69.0999 86.1208 69.1497C85.9484 69.1995 85.7042 69.228 85.3881 69.228C85.1295 69.228 84.8781 69.1782 84.6482 69.0857C84.4111 68.9861 84.21 68.8509 84.0304 68.6802C83.858 68.5095 83.7215 68.2961 83.621 68.0471C83.5204 67.791 83.4701 67.5278 83.4701 67.2433C83.4701 66.8094 83.5635 66.4395 83.7503 66.1407C83.937 65.8348 84.2244 65.5929 84.6266 65.4151C84.9786 65.2515 85.4025 65.1448 85.8838 65.0879C86.365 65.0239 86.8894 64.9812 87.4426 64.9456V64.7464C87.4426 64.4975 87.4067 64.3054 87.3276 64.156C87.2486 63.9995 87.148 63.8857 87.0116 63.8003C86.8751 63.715 86.7099 63.6581 86.5159 63.6296C86.3219 63.6012 86.1208 63.5869 85.9125 63.5869C85.6683 63.5869 85.3809 63.6225 85.0505 63.7008C84.72 63.7719 84.3896 63.8786 84.052 64.0137H83.9873V62.9467C84.1813 62.8898 84.4614 62.8258 84.8278 62.7618C85.1941 62.6977 85.5533 62.6622 85.9125 62.6622C86.3435 62.6622 86.7099 62.6977 87.0116 62.7618C87.3061 62.8258 87.5791 62.9467 87.8161 63.1246C88.046 63.2953 88.2184 63.5158 88.3333 63.7932C88.4483 64.0635 88.5057 64.3979 88.5057 64.7891V69.0643H87.4498V68.3957L87.4354 68.3886ZM98.5985 69.0572H97.5354V63.7079H94.6764V69.0572H93.6132V62.8045H98.5985V69.0572ZM105.337 65.9344C105.337 66.9872 105.078 67.7981 104.568 68.3743C104.058 68.9434 103.376 69.228 102.521 69.228C101.666 69.228 100.948 68.9363 100.445 68.3459C99.9419 67.7555 99.6904 66.9445 99.6904 65.9344C99.6904 64.9243 99.949 64.0778 100.466 63.5016C100.983 62.9254 101.673 62.6337 102.521 62.6337C103.368 62.6337 104.058 62.9254 104.568 63.5016C105.078 64.0778 105.337 64.8887 105.337 65.9344ZM104.238 65.9344C104.238 65.1235 104.087 64.5259 103.792 64.1347C103.49 63.7363 103.074 63.5443 102.521 63.5443C101.968 63.5443 101.537 63.7434 101.235 64.1347C100.933 64.5259 100.79 65.1306 100.79 65.9344C100.79 66.7382 100.94 67.3144 101.235 67.7199C101.537 68.1254 101.96 68.3245 102.521 68.3245C103.081 68.3245 103.49 68.1254 103.785 67.7341C104.087 67.3358 104.238 66.7382 104.238 65.9344ZM114.998 67.165C114.998 67.4709 114.941 67.7341 114.826 67.9689C114.711 68.2036 114.546 68.3957 114.345 68.5522C114.086 68.7514 113.82 68.8865 113.533 68.9576C113.253 69.0217 112.922 69.0572 112.527 69.0572H110.042V62.8045H112.362C112.829 62.8045 113.167 62.8187 113.382 62.8471C113.598 62.8756 113.813 62.9467 114.021 63.0605C114.244 63.1815 114.409 63.338 114.51 63.5371C114.618 63.7363 114.668 63.9711 114.668 64.2414C114.668 64.5401 114.582 64.8105 114.417 65.0452C114.251 65.28 114.029 65.4649 113.756 65.5929L113.784 65.6356C114.129 65.721 114.417 65.8917 114.646 66.1549C114.876 66.4181 114.998 66.7524 114.998 67.165ZM113.576 64.405C113.576 64.2627 113.555 64.1418 113.504 64.0351C113.461 63.9284 113.375 63.8501 113.26 63.7861C113.124 63.715 112.973 63.6723 112.8 63.6652C112.635 63.651 112.405 63.6438 112.104 63.6438H111.091V65.3582H112.312C112.57 65.3582 112.757 65.344 112.865 65.3226C112.973 65.2942 113.095 65.2444 113.224 65.1661C113.346 65.095 113.44 64.9883 113.49 64.8603C113.54 64.7322 113.569 64.5828 113.569 64.3979L113.576 64.405ZM113.899 67.1721C113.899 66.9587 113.871 66.788 113.806 66.66C113.749 66.5319 113.612 66.411 113.397 66.3114C113.267 66.2474 113.124 66.2118 112.973 66.1905C112.822 66.1763 112.614 66.1691 112.348 66.1691H111.098V68.2107H112.017C112.398 68.2107 112.693 68.1965 112.908 68.168C113.116 68.1396 113.303 68.0756 113.454 67.9902C113.612 67.8906 113.727 67.7839 113.799 67.6559C113.871 67.5278 113.907 67.3642 113.907 67.1721H113.899ZM118.626 69.1995C118.195 69.1995 117.793 69.1355 117.434 69.0003C117.074 68.8652 116.758 68.666 116.5 68.3957C116.241 68.1254 116.04 67.791 115.896 67.3856C115.753 66.973 115.681 66.4964 115.681 65.9415C115.681 65.3867 115.753 64.9172 115.904 64.5188C116.054 64.1204 116.256 63.7861 116.5 63.5087C116.751 63.2384 117.06 63.025 117.426 62.8827C117.8 62.7333 118.202 62.6622 118.626 62.6622C118.971 62.6622 119.309 62.712 119.625 62.8045C119.948 62.904 120.235 63.0107 120.494 63.1388V64.3196H120.429C120.357 64.2556 120.257 64.1845 120.135 64.0991C120.02 64.0137 119.876 63.9355 119.704 63.8501C119.56 63.779 119.38 63.7079 119.186 63.651C118.985 63.5941 118.791 63.5656 118.612 63.5656C118.059 63.5656 117.62 63.7719 117.283 64.1845C116.952 64.5971 116.787 65.1804 116.787 65.9344C116.787 66.6884 116.945 67.2504 117.268 67.663C117.592 68.0756 118.044 68.2819 118.612 68.2819C118.957 68.2819 119.287 68.2107 119.603 68.0685C119.912 67.9262 120.192 67.7412 120.436 67.5207H120.501V68.7016C120.393 68.7514 120.264 68.8083 120.106 68.8794C119.948 68.9434 119.804 69.0003 119.675 69.0288C119.495 69.0786 119.33 69.1213 119.186 69.1497C119.043 69.1782 118.856 69.1924 118.633 69.1924L118.626 69.1995ZM124.208 69.1995C123.202 69.1995 122.419 68.9221 121.859 68.3601C121.306 67.7981 121.025 66.9943 121.025 65.9629C121.025 64.9314 121.298 64.1347 121.837 63.53C122.376 62.9254 123.08 62.6195 123.949 62.6195C124.344 62.6195 124.689 62.6764 124.991 62.7902C125.292 62.904 125.558 63.0748 125.781 63.3166C126.011 63.5585 126.183 63.8501 126.298 64.1987C126.42 64.5401 126.478 64.967 126.478 65.4649V66.034H122.103C122.103 66.7596 122.29 67.3215 122.656 67.7057C123.022 68.0898 123.54 68.2819 124.186 68.2819C124.423 68.2819 124.646 68.2534 124.869 68.2036C125.098 68.1538 125.3 68.0827 125.479 68.0044C125.673 67.9191 125.831 67.8337 125.968 67.7555C126.097 67.6701 126.212 67.599 126.298 67.5278H126.363V68.6731C126.241 68.7229 126.083 68.7798 125.896 68.8581C125.709 68.9292 125.544 68.9861 125.4 69.0288C125.192 69.0857 125.005 69.1284 124.833 69.1568C124.667 69.1853 124.459 69.1995 124.201 69.1995H124.208ZM125.45 65.2302C125.443 64.9456 125.407 64.7038 125.35 64.4975C125.292 64.2912 125.199 64.1205 125.091 63.9782C124.969 63.8217 124.804 63.7008 124.61 63.6225C124.416 63.5371 124.179 63.5016 123.892 63.5016C123.604 63.5016 123.367 63.5443 123.166 63.6296C122.972 63.715 122.793 63.8359 122.627 63.9924C122.469 64.156 122.347 64.341 122.268 64.5402C122.189 64.7393 122.132 64.967 122.11 65.2373H125.45V65.2302ZM132.548 69.0572H131.499V64.3908L128.525 69.0572H127.562V62.8045H128.611V67.3927L131.549 62.8045H132.548V69.0572ZM132.074 59.895C132.074 60.2151 132.031 60.5068 131.951 60.7771C131.872 61.0403 131.758 61.2608 131.614 61.4387C131.441 61.6378 131.255 61.7872 131.039 61.8868C130.824 61.9864 130.551 62.0291 130.213 62.0291C129.904 62.0291 129.631 61.9793 129.401 61.8797C129.171 61.773 128.978 61.6307 128.819 61.4387C128.669 61.2537 128.547 61.0261 128.468 60.77C128.388 60.5068 128.345 60.2222 128.345 59.9021H129.265C129.265 60.4072 129.344 60.77 129.502 60.9976C129.66 61.2181 129.897 61.3248 130.213 61.3248C130.515 61.3248 130.745 61.2181 130.91 60.9976C131.075 60.7771 131.161 60.4143 131.161 59.9021H132.081L132.074 59.895ZM143.107 63.2313C143.107 63.594 143.043 63.9355 142.906 64.2627C142.777 64.5828 142.597 64.8603 142.368 65.0879C142.08 65.3724 141.735 65.5858 141.34 65.7352C140.945 65.8775 140.45 65.9557 139.853 65.9557H138.905V69.0643H137.784V60.7273H139.896C140.392 60.7273 140.816 60.77 141.168 60.8482C141.52 60.9336 141.829 61.0616 142.095 61.2466C142.411 61.46 142.655 61.7303 142.827 62.0575C143.007 62.3848 143.093 62.776 143.093 63.2384L143.107 63.2313ZM141.944 63.2597C141.944 62.9752 141.893 62.7191 141.793 62.5128C141.692 62.2994 141.541 62.1287 141.34 61.9935C141.161 61.8797 140.952 61.7943 140.715 61.7445C140.478 61.6947 140.191 61.6734 139.839 61.6734H138.912V65.0025H139.674C140.126 65.0025 140.493 64.967 140.773 64.8958C141.053 64.8247 141.283 64.6895 141.47 64.5046C141.635 64.3339 141.757 64.156 141.829 63.9568C141.901 63.7577 141.944 63.53 141.944 63.2597ZM149.292 65.9273C149.292 66.9801 149.034 67.791 148.524 68.3672C148.014 68.9363 147.331 69.2208 146.477 69.2208C145.622 69.2208 144.903 68.9292 144.4 68.3388C143.898 67.7483 143.646 66.9374 143.646 65.9273C143.646 64.9172 143.905 64.0707 144.422 63.4945C144.939 62.9183 145.629 62.6266 146.477 62.6266C147.324 62.6266 148.014 62.9183 148.524 63.4945C149.034 64.0707 149.292 64.8816 149.292 65.9273ZM148.193 65.9273C148.193 65.1163 148.043 64.5188 147.748 64.1276C147.453 63.7292 147.022 63.5371 146.477 63.5371C145.931 63.5371 145.492 63.7363 145.191 64.1276C144.896 64.5188 144.745 65.1235 144.745 65.9273C144.745 66.7311 144.896 67.3073 145.191 67.7128C145.492 68.1182 145.923 68.3174 146.477 68.3174C147.03 68.3174 147.446 68.1182 147.741 67.727C148.043 67.3286 148.193 66.7311 148.193 65.9273ZM152.891 69.1924C152.46 69.1924 152.058 69.1284 151.699 68.9932C151.34 68.8581 151.024 68.6589 150.765 68.3886C150.506 68.1182 150.305 67.7839 150.162 67.3784C150.018 66.9659 149.946 66.4893 149.946 65.9344C149.946 65.3795 150.018 64.9101 150.169 64.5117C150.32 64.1133 150.521 63.779 150.765 63.5016C151.016 63.2313 151.325 63.0179 151.692 62.8756C152.065 62.7262 152.468 62.6551 152.891 62.6551C153.236 62.6551 153.574 62.7049 153.89 62.7973C154.213 62.8969 154.5 63.0036 154.752 63.1317V64.3125H154.687C154.608 64.2485 154.515 64.1774 154.393 64.092C154.278 64.0066 154.134 63.9284 153.962 63.843C153.818 63.7719 153.638 63.7008 153.445 63.6438C153.243 63.5869 153.049 63.5585 152.87 63.5585C152.317 63.5585 151.879 63.7648 151.541 64.1774C151.21 64.5899 151.045 65.1733 151.045 65.9273C151.045 66.6813 151.203 67.2433 151.527 67.6559C151.85 68.0685 152.295 68.2747 152.87 68.2747C153.215 68.2747 153.545 68.2036 153.861 68.0613C154.177 67.9191 154.45 67.7341 154.694 67.5136H154.759V68.6944C154.651 68.7442 154.522 68.8011 154.364 68.8723C154.206 68.9363 154.062 68.9932 153.933 69.0217C153.753 69.0715 153.588 69.1141 153.445 69.1426C153.301 69.171 153.114 69.1853 152.891 69.1853V69.1924ZM158.243 69.1924C157.812 69.1924 157.41 69.1284 157.051 68.9932C156.691 68.8581 156.375 68.6589 156.117 68.3886C155.858 68.1182 155.657 67.7839 155.513 67.3784C155.37 66.9659 155.298 66.4893 155.298 65.9344C155.298 65.3795 155.37 64.9101 155.521 64.5117C155.671 64.1133 155.873 63.779 156.124 63.5016C156.375 63.2313 156.684 63.0179 157.051 62.8756C157.424 62.7262 157.826 62.6551 158.25 62.6551C158.595 62.6551 158.933 62.7049 159.249 62.7973C159.572 62.8969 159.859 63.0036 160.111 63.1317V64.3125H160.046C159.974 64.2485 159.874 64.1774 159.752 64.092C159.637 64.0066 159.493 63.9284 159.321 63.843C159.17 63.7719 158.997 63.7008 158.803 63.6438C158.602 63.5869 158.408 63.5585 158.229 63.5585C157.676 63.5585 157.237 63.7648 156.9 64.1774C156.569 64.5899 156.404 65.1733 156.404 65.9273C156.404 66.6813 156.562 67.2433 156.885 67.6559C157.209 68.0685 157.661 68.2747 158.229 68.2747C158.574 68.2747 158.904 68.2036 159.22 68.0613C159.529 67.9191 159.809 67.7341 160.053 67.5136H160.118V68.6944C160.01 68.7442 159.881 68.8011 159.723 68.8723C159.565 68.9363 159.421 68.9932 159.292 69.0217C159.112 69.0715 158.947 69.1141 158.803 69.1426C158.66 69.171 158.473 69.1853 158.25 69.1853L158.243 69.1924ZM166.066 69.0501H165.017V64.3837L162.043 69.0501H161.081V62.7973H162.129V67.3856L165.067 62.7973H166.059V69.0501H166.066ZM172.596 69.0501H171.547V64.3837L168.573 69.0501H167.61V62.7973H168.659V67.3856L171.597 62.7973H172.596V69.0501ZM182.739 69.0501H181.69V64.3837L178.716 69.0501H177.753V62.7973H178.802V67.3856L181.74 62.7973H182.739V69.0501ZM190.404 69.1924C189.973 69.1924 189.57 69.1284 189.211 68.9932C188.852 68.8581 188.536 68.6589 188.277 68.3886C188.019 68.1182 187.818 67.7839 187.674 67.3784C187.53 66.9659 187.458 66.4893 187.458 65.9344C187.458 65.3795 187.53 64.9101 187.681 64.5117C187.832 64.1133 188.033 63.779 188.277 63.5016C188.529 63.2313 188.838 63.0179 189.204 62.8756C189.577 62.7262 189.98 62.6551 190.404 62.6551C190.748 62.6551 191.086 62.7049 191.402 62.7973C191.725 62.8969 192.013 63.0036 192.271 63.1317V64.3125H192.207C192.128 64.2485 192.034 64.1774 191.912 64.092C191.797 64.0066 191.654 63.9284 191.481 63.843C191.33 63.7719 191.158 63.7008 190.957 63.6438C190.756 63.5869 190.569 63.5585 190.382 63.5585C189.829 63.5585 189.391 63.7648 189.053 64.1774C188.723 64.5899 188.557 65.1733 188.557 65.9273C188.557 66.6813 188.715 67.2433 189.039 67.6559C189.362 68.0685 189.815 68.2747 190.382 68.2747C190.727 68.2747 191.057 68.2036 191.373 68.0613C191.689 67.9191 191.962 67.7341 192.207 67.5136H192.271V68.6944C192.164 68.7442 192.034 68.8011 191.876 68.8723C191.718 68.9363 191.575 68.9932 191.445 69.0217C191.266 69.0715 191.1 69.1141 190.957 69.1426C190.813 69.171 190.626 69.1853 190.404 69.1853V69.1924ZM197.86 63.7221H195.712V69.0501H194.649V63.7221H192.501V62.7973H197.86V63.7221ZM203.952 65.7637C203.952 66.8022 203.7 67.6345 203.19 68.2534C202.687 68.8723 202.055 69.1782 201.287 69.1782C200.971 69.1782 200.698 69.1426 200.453 69.0715C200.216 69.0003 199.965 68.8936 199.713 68.7442V71.362H198.65V62.7973H199.713V63.4518C199.979 63.217 200.267 63.0179 200.59 62.8614C200.913 62.6977 201.265 62.6195 201.646 62.6195C202.371 62.6195 202.932 62.904 203.334 63.4731C203.743 64.0422 203.944 64.8033 203.944 65.7566L203.952 65.7637ZM202.853 65.8846C202.853 65.1733 202.738 64.6184 202.508 64.2272C202.278 63.8288 201.904 63.6367 201.387 63.6367C201.085 63.6367 200.791 63.7008 200.511 63.8359C200.231 63.964 199.965 64.1347 199.713 64.3481V67.8906C199.994 68.0258 200.231 68.1182 200.425 68.168C200.626 68.2178 200.856 68.2392 201.107 68.2392C201.66 68.2392 202.084 68.04 202.393 67.6416C202.702 67.2433 202.853 66.66 202.853 65.8917V65.8846ZM208.578 67.5207V65.785C208.326 65.8064 208.003 65.8419 207.615 65.8775C207.227 65.9131 206.918 65.97 206.681 66.0411C206.401 66.1265 206.164 66.2616 205.977 66.4395C205.791 66.6173 205.697 66.8592 205.697 67.1793C205.697 67.5349 205.798 67.8053 206.006 67.9902C206.207 68.1752 206.509 68.2676 206.897 68.2676C207.234 68.2676 207.536 68.1965 207.809 68.0542C208.082 67.912 208.334 67.7341 208.571 67.5207H208.578ZM208.578 68.3957C208.492 68.4597 208.377 68.5522 208.226 68.666C208.082 68.7798 207.946 68.8652 207.809 68.9363C207.622 69.0359 207.436 69.107 207.263 69.1568C207.091 69.2066 206.847 69.2351 206.531 69.2351C206.272 69.2351 206.021 69.1853 205.791 69.0928C205.554 68.9932 205.352 68.8581 205.173 68.6873C205 68.5166 204.871 68.3032 204.763 68.0542C204.663 67.7981 204.613 67.5349 204.613 67.2504C204.613 66.8165 204.706 66.4466 204.893 66.1478C205.079 65.8419 205.367 65.6001 205.769 65.4222C206.121 65.2586 206.545 65.1519 207.026 65.095C207.507 65.031 208.032 64.9883 208.585 64.9527V64.7536C208.585 64.5046 208.549 64.3125 208.47 64.1631C208.391 64.0066 208.29 63.8928 208.154 63.8075C208.018 63.7221 207.852 63.6652 207.658 63.6367C207.464 63.6083 207.263 63.5941 207.055 63.5941C206.811 63.5941 206.523 63.6296 206.193 63.7079C205.862 63.779 205.532 63.8857 205.194 64.0209H205.13V62.9538C205.324 62.8969 205.604 62.8329 205.97 62.7689C206.337 62.7049 206.696 62.6693 207.055 62.6693C207.486 62.6693 207.852 62.7049 208.154 62.7689C208.456 62.8329 208.721 62.9538 208.959 63.1317C209.188 63.3024 209.361 63.5229 209.476 63.8003C209.591 64.0707 209.648 64.405 209.648 64.7962V69.0715H208.592V68.4028L208.578 68.3957ZM216.12 69.0643H215.057V66.2474H212.198V69.0643H211.135V62.8116H212.198V65.344H215.057V62.8116H216.12V69.0643ZM221.185 67.5278V65.7921C220.933 65.8135 220.61 65.849 220.222 65.8846C219.834 65.9202 219.525 65.9771 219.288 66.0482C219.008 66.1336 218.771 66.2687 218.584 66.4466C218.398 66.6244 218.304 66.8663 218.304 67.1864C218.304 67.542 218.405 67.8124 218.613 67.9973C218.814 68.1823 219.116 68.2747 219.504 68.2747C219.842 68.2747 220.143 68.2036 220.416 68.0613C220.689 67.9191 220.941 67.7412 221.178 67.5278H221.185ZM221.185 68.4028C221.099 68.4668 220.984 68.5593 220.833 68.6731C220.689 68.7869 220.553 68.8723 220.416 68.9434C220.229 69.043 220.043 69.1141 219.87 69.1639C219.698 69.2137 219.454 69.2422 219.138 69.2422C218.879 69.2422 218.628 69.1924 218.398 69.0999C218.161 69.0003 217.959 68.8652 217.78 68.6944C217.607 68.5237 217.471 68.3103 217.37 68.0613C217.27 67.8053 217.22 67.5421 217.22 67.2575C217.22 66.8236 217.313 66.4537 217.5 66.1549C217.686 65.849 217.974 65.6072 218.376 65.4293C218.728 65.2657 219.145 65.159 219.633 65.1021C220.115 65.0381 220.639 64.9954 221.192 64.9598V64.7607C221.192 64.5117 221.156 64.3196 221.077 64.1702C220.998 64.0137 220.898 63.8999 220.761 63.8146C220.625 63.7292 220.459 63.6723 220.265 63.6438C220.071 63.6154 219.87 63.6012 219.662 63.6012C219.418 63.6012 219.13 63.6367 218.8 63.715C218.469 63.7861 218.139 63.8928 217.801 64.028H217.737V62.9609C217.931 62.904 218.211 62.84 218.577 62.776C218.944 62.712 219.303 62.6764 219.662 62.6764C220.093 62.6764 220.459 62.712 220.761 62.776C221.056 62.84 221.329 62.9609 221.566 63.1388C221.795 63.3095 221.968 63.53 222.083 63.8075C222.198 64.0778 222.255 64.4121 222.255 64.8033V69.0786H221.199V68.4099L221.185 68.4028ZM229.597 69.0715H228.548V64.156L227.032 67.35H226.242L224.741 64.156V69.0715H223.742V62.8187H225.028L226.687 66.2901L228.296 62.8187H229.604V69.0715H229.597ZM238.131 69.2208C237.578 69.2208 237.075 69.1284 236.608 68.9434C236.148 68.7585 235.753 68.4881 235.415 68.1254C235.078 67.7626 234.819 67.3144 234.632 66.7738C234.446 66.2332 234.352 65.6143 234.352 64.9101C234.352 64.2058 234.438 63.6012 234.618 63.0819C234.798 62.5626 235.063 62.1144 235.408 61.7303C235.746 61.3604 236.141 61.0759 236.601 60.8767C237.06 60.6775 237.578 60.5779 238.145 60.5779C238.425 60.5779 238.691 60.5993 238.935 60.6419C239.187 60.6846 239.417 60.7344 239.625 60.7984C239.804 60.8553 239.991 60.9265 240.178 61.0118C240.372 61.0972 240.559 61.1826 240.746 61.2893V62.6266H240.652C240.552 62.5341 240.429 62.4274 240.271 62.2994C240.121 62.1713 239.927 62.0504 239.704 61.9224C239.488 61.8086 239.259 61.709 239 61.6378C238.749 61.5596 238.454 61.524 238.124 61.524C237.764 61.524 237.427 61.5952 237.103 61.7445C236.78 61.8868 236.5 62.1073 236.263 62.3919C236.026 62.6764 235.839 63.0321 235.71 63.4589C235.581 63.8857 235.509 64.3694 235.509 64.9101C235.509 65.4791 235.581 65.9771 235.717 66.3897C235.854 66.8022 236.047 67.1508 236.285 67.4282C236.522 67.7057 236.795 67.912 237.111 68.0542C237.427 68.1894 237.764 68.2605 238.116 68.2605C238.44 68.2605 238.741 68.2178 239.014 68.1396C239.287 68.0613 239.539 67.9618 239.747 67.8408C239.955 67.727 240.135 67.6061 240.286 67.4851C240.437 67.3642 240.559 67.2575 240.645 67.1721H240.731V68.4953C240.544 68.5806 240.372 68.666 240.207 68.7442C240.042 68.8225 239.848 68.9007 239.611 68.9719C239.366 69.0501 239.136 69.107 238.928 69.1497C238.72 69.1924 238.447 69.2137 238.116 69.2137L238.131 69.2208ZM247.907 69.0715H246.787V64.9883H242.915V69.0715H241.794V60.7344H242.915V64.0066H246.787V60.7344H247.907V69.0715ZM254.617 61.7161H250.745V69.0715H249.624V60.7344H254.617V61.7232V61.7161Z" fill="#9A9A9A"/>
<path d="M44.0828 31.5115C43.3645 30.9851 42.6533 30.5156 41.935 30.1102C41.2166 29.7047 40.2756 29.2494 39.1047 28.7444C37.9338 28.2393 36.5043 27.6702 34.809 27.0442C32.3378 26.0697 30.5132 25.3228 29.3423 24.7964C28.193 24.2486 27.1082 23.6297 26.0882 22.9397C24.1127 21.5597 23.1286 19.8311 23.1286 17.7398C23.1286 15.8333 23.89 14.2826 25.4058 13.0875C26.9215 11.8711 28.8754 11.2665 31.2603 11.2665C32.9484 11.2665 34.5647 11.5937 36.1092 12.241C37.668 12.8883 39.0041 13.7918 40.1104 14.9441C40.8072 15.6555 41.4321 16.5376 41.9996 17.5904C42.5599 18.6432 43.1346 20.0801 43.7237 21.9083H44.8299V8.12939L44.715 8.29301C43.7452 9.66591 42.3085 10.6405 40.6563 10.989C39.8302 11.1669 38.8173 11.2878 37.5746 11.302L36.0158 10.7472C34.1481 10.2777 32.46 10.05 30.9442 10.05C28.5378 10.05 26.3396 10.5266 24.3426 11.4799C22.3671 12.4331 20.8083 13.742 19.659 15.3994C18.5312 17.064 17.9708 18.8921 17.9708 20.8982C17.9708 22.1928 18.2223 23.4092 18.7179 24.5474C19.2136 25.6784 19.9894 26.7384 21.0238 27.7058C22.0654 28.6803 23.3728 29.5766 24.9604 30.4089C25.7865 30.8357 28.1139 31.8245 31.9499 33.3895C34.5935 34.4423 36.6767 35.4737 38.1924 36.491C39.7081 37.4869 40.8072 38.5468 41.4752 39.6849C42.1505 40.8018 42.4809 42.0537 42.4809 43.4551C42.4809 45.0343 42.0499 46.4428 41.1807 47.6805C40.3115 48.897 39.1119 49.8573 37.5746 50.5686C36.0589 51.2586 34.3133 51.6001 32.3378 51.6001C28.4803 51.6001 25.1543 50.0067 22.3528 46.8269C20.2265 44.3941 18.6892 41.6269 17.7338 38.5326H16.7568L17.7338 50.0493L18.6461 50.3552C21.2896 51.2871 23.4231 51.9344 25.0538 52.2972C27.805 52.8876 30.2331 53.1793 32.3378 53.1793C35.3765 53.1793 38.1349 52.6315 40.6276 51.5361C43.1203 50.4192 45.0742 48.8898 46.4821 46.9478C47.8901 45.0059 48.5941 42.822 48.5941 40.4105C48.5941 36.7471 47.0855 33.7736 44.0757 31.5044L44.0828 31.5115ZM43.7452 11.0317L43.774 18.9348C42.9694 17.0071 41.7482 14.6596 40.1894 13.557C39.4279 13.0164 39.0831 12.7745 38.724 12.4473C40.0888 12.3121 42.5025 11.9494 43.7452 11.0317ZM18.6533 48.8187L18.1792 42.7864C18.1792 42.7864 19.7164 46.0871 20.4204 47.0759C21.1962 48.1643 22.7982 49.6012 24.2492 50.8176C22.0367 50.1063 20.0828 49.5941 18.6533 48.8258V48.8187ZM40.4767 49.779C41.6045 48.8472 42.4163 47.8868 42.9191 46.8909C43.4363 45.8808 43.7021 44.7213 43.7021 43.4267C43.7021 40.752 42.5671 38.433 40.29 36.4696C38.8604 35.2319 36.26 33.859 32.4887 32.3367C29.3639 31.0634 27.6973 30.3734 27.4818 30.2667C25.7721 29.534 24.2492 28.7088 22.9275 27.7769C20.4132 26.0341 19.1561 23.6653 19.1561 20.6634C19.1561 17.6615 21.3615 13.6708 24.673 12.3548C23.7033 13.5072 23.1861 14.3182 22.9346 14.7521C22.6114 15.314 22.166 16.1321 21.9936 16.7367C21.8212 17.3272 21.6129 18.003 21.6129 18.7356C21.6129 21.204 22.087 22.705 24.2564 24.3269C25.298 25.1165 26.5479 25.9203 27.5393 26.3827C28.5593 26.8522 30.8724 27.7912 34.2271 29.1285C38.2786 30.7077 41.4178 32.2371 43.0197 33.5958C44.126 34.485 44.9736 35.5733 45.5555 36.8467C46.1589 38.1057 46.6474 39.5213 46.6474 40.8587C46.6474 44.2447 44.8156 47.773 40.4696 49.7719L40.4767 49.779Z" fill="#0A730D"/>
</g>
<defs>
<clipPath id="clip0_253_496">
<rect width="274" height="71" fill="white" transform="translate(0.0410156 0.354492)"/>
</clipPath>
</defs>
</svg>
