<svg width="20" height="21" viewBox="0 0 20 21" fill="none" xmlns="http://www.w3.org/2000/svg">
<path d="M10 0.487793C8.68678 0.487793 7.38642 0.746451 6.17317 1.249C4.95991 1.75154 3.85752 2.48814 2.92893 3.41673C1.05357 5.29209 0 7.83563 0 10.4878C0 13.14 1.05357 15.6835 2.92893 17.5589C3.85752 18.4874 4.95991 19.224 6.17317 19.7266C7.38642 20.2291 8.68678 20.4878 10 20.4878C12.6522 20.4878 15.1957 19.4342 17.0711 17.5589C18.9464 15.6835 20 13.14 20 10.4878C20 9.17457 19.7413 7.87421 19.2388 6.66096C18.7362 5.4477 17.9997 4.34531 17.0711 3.41673C16.1425 2.48814 15.0401 1.75154 13.8268 1.249C12.6136 0.746451 11.3132 0.487793 10 0.487793ZM5.07 16.7678C5.5 15.8678 8.12 14.9878 10 14.9878C11.88 14.9878 14.5 15.8678 14.93 16.7678C13.57 17.8478 11.86 18.4878 10 18.4878C8.14 18.4878 6.43 17.8478 5.07 16.7678ZM16.36 15.3178C14.93 13.5778 11.46 12.9878 10 12.9878C8.54 12.9878 5.07 13.5778 3.64 15.3178C2.62 13.9878 2 12.3078 2 10.4878C2 6.07779 5.59 2.48779 10 2.48779C14.41 2.48779 18 6.07779 18 10.4878C18 12.3078 17.38 13.9878 16.36 15.3178ZM10 4.48779C8.06 4.48779 6.5 6.04779 6.5 7.98779C6.5 9.92779 8.06 11.4878 10 11.4878C11.94 11.4878 13.5 9.92779 13.5 7.98779C13.5 6.04779 11.94 4.48779 10 4.48779ZM10 9.48779C9.60218 9.48779 9.22064 9.32976 8.93934 9.04845C8.65804 8.76715 8.5 8.38562 8.5 7.98779C8.5 7.58997 8.65804 7.20844 8.93934 6.92713C9.22064 6.64583 9.60218 6.48779 10 6.48779C10.3978 6.48779 10.7794 6.64583 11.0607 6.92713C11.342 7.20844 11.5 7.58997 11.5 7.98779C11.5 8.38562 11.342 8.76715 11.0607 9.04845C10.7794 9.32976 10.3978 9.48779 10 9.48779Z" fill="#237A00"/>
</svg>
