<svg width="11" height="17" viewBox="0 0 11 17" fill="none" xmlns="http://www.w3.org/2000/svg">
<path d="M10.1364 14.4509C10.1788 14.5546 10.2003 14.6598 10.2003 14.7665C10.2003 14.9144 10.1624 15.0519 10.0863 15.1802C10.0105 15.308 9.90384 15.406 9.76713 15.4736L9.12441 15.7846C8.87364 15.9025 8.6225 15.9882 8.37099 16.0416C8.11948 16.0949 7.86536 16.1218 7.60828 16.1218C7.19479 16.1218 6.7865 16.0508 6.38304 15.9087C5.97958 15.7666 5.59358 15.563 5.22504 15.2984C4.8565 15.0338 4.51062 14.7135 4.18778 14.3383C3.86494 13.9627 3.57553 13.5441 3.32031 13.0821C3.15758 12.826 2.98669 12.5337 2.80725 12.2054C2.6553 11.9258 2.48181 11.5909 2.28639 11.2003C2.09098 10.8102 1.89408 10.3766 1.69495 9.90075C1.49136 9.42454 1.32975 9.00862 1.2105 8.653C1.09124 8.29699 0.998736 8.00128 0.933722 7.76586C0.857562 7.49089 0.805179 7.25509 0.776573 7.05884C0.671807 6.69439 0.594533 6.33185 0.545122 5.97124C0.495711 5.61062 0.471191 5.25347 0.471191 4.90015C0.471191 4.43815 0.516144 3.99381 0.605678 3.56637C0.695212 3.13894 0.833043 2.74145 1.01843 2.37393C1.20381 2.0064 1.43898 1.67766 1.72392 1.38771C2.00887 1.09776 2.34583 0.861958 2.7348 0.679539L3.3686 0.378067C3.46854 0.333902 3.56885 0.312012 3.66915 0.312012C3.81033 0.312012 3.94184 0.352336 4.0637 0.433369C4.18518 0.514401 4.27657 0.626157 4.33713 0.76902L5.5568 3.63205C5.59952 3.73574 5.6207 3.83943 5.6207 3.94312C5.6207 4.09558 5.5828 4.23653 5.50664 4.36595C5.43048 4.49537 5.32349 4.59253 5.18529 4.65705L3.93144 5.25308C3.76575 5.33181 3.63906 5.44702 3.55064 5.59949C3.46259 5.75195 3.41838 5.91594 3.41838 6.09183C3.41838 6.22547 3.44253 6.35106 3.4912 6.46896L5.54974 11.3282C5.63036 11.5153 5.74144 11.6527 5.88373 11.7407C6.02564 11.8286 6.18056 11.8728 6.34774 11.8728C6.4618 11.8728 6.57808 11.8459 6.69659 11.7925L7.95044 11.1965C8.04926 11.1527 8.14883 11.1304 8.24913 11.1304C8.38734 11.1304 8.51811 11.1708 8.64108 11.2518C8.76405 11.3328 8.85693 11.4438 8.91934 11.5851L10.1364 14.4509Z" fill="#00C170"/>
</svg>
