<svg width="30" height="36" viewBox="0 0 30 36" fill="none" xmlns="http://www.w3.org/2000/svg">
<path d="M20.1463 5.47129C21.5135 4.02111 22.4383 2.00771 22.1852 0C20.2154 0.0696445 17.8282 1.14555 16.4143 2.59562C15.1469 3.87935 14.0372 5.93102 14.3334 7.89934C16.5313 8.04666 18.7768 6.91913 20.1463 5.47129ZM24.3411 19.3366C24.2991 14.8355 27.938 12.6737 28.0991 12.5692C26.0534 9.51265 22.8673 9.09441 21.7326 9.04724C19.0197 8.76508 16.4428 10.675 15.0655 10.675C13.6937 10.675 11.5719 9.08429 9.32189 9.12701C6.3639 9.17529 3.63837 10.8818 2.11918 13.5865C-0.953592 19.0275 1.33161 27.0876 4.32586 31.5011C5.78958 33.6616 7.53236 36.0854 9.82093 35.9977C12.0301 35.91 12.8629 34.5419 15.5283 34.5419C18.1947 34.5419 18.9413 35.9977 21.2741 35.9539C23.6478 35.91 25.15 33.7517 26.6013 31.5843C28.2805 29.0786 28.9727 26.6526 29.0124 26.5301C28.9614 26.5008 24.3899 24.7191 24.3411 19.3366Z" fill="#59B8C5"/>
</svg>
