<svg width="76" height="14" viewBox="0 0 76 14" fill="none" xmlns="http://www.w3.org/2000/svg">
<path fill-rule="evenodd" clip-rule="evenodd" d="M64.0974 8.38248H68.7979L66.4473 3.8523L64.0974 8.38248ZM71.2172 13.2797L70.0987 11.1002H62.7836L61.6781 13.279H57.5014L64.2033 0.766105H68.9031L75.6021 13.2797H71.2172ZM53.0227 0.76682H56.8037V13.2797H53.0227V0.76682ZM46.474 0.76682H51.4642L44.7287 6.62006L52.3258 13.2797H46.9856L40.0876 6.75387L46.474 0.76682ZM36.3074 13.2797H40.0876V0.76682H36.3074V13.2797ZM29.8387 10.268C30.6659 10.268 30.9571 10.2186 31.1553 10.0354C31.34 9.86368 31.4215 9.64329 31.4215 8.9077V5.08949C31.4215 4.3539 31.34 4.13494 31.1553 3.96321C30.9571 3.77859 30.6659 3.72994 29.8387 3.72994H23.9654C23.139 3.72994 22.8485 3.77859 22.651 3.96321C22.4649 4.13494 22.3834 4.3539 22.3834 5.08949V8.9077C22.3834 9.64329 22.4649 9.86439 22.651 10.0354C22.8485 10.2186 23.139 10.268 23.9654 10.268H29.8394H29.8387ZM34.8304 9.41073C34.8304 11.1495 34.5278 11.7499 34.0269 12.3245C33.2598 13.181 32.1428 13.4386 29.9911 13.4386H23.8145C21.6628 13.4386 20.5444 13.181 19.778 12.3245C19.2771 11.7499 18.9752 11.1502 18.9752 9.41073V4.58646C18.9752 2.84766 19.2778 2.24945 19.778 1.67343C20.5451 0.816194 21.6628 0.558594 23.8145 0.558594H29.9919C32.1428 0.558594 33.2598 0.816194 34.0276 1.67343C34.5278 2.24945 34.8304 2.84837 34.8304 4.58646V9.41073ZM4.0866 13.2797H0.46875V0.76682H6.72557L13.9033 10.1084V0.76682H17.5212V13.2797H11.391L4.0866 3.77859V13.2797Z" fill="#59B8C5"/>
</svg>
