<svg width="84" height="20" viewBox="0 0 84 20" fill="none" xmlns="http://www.w3.org/2000/svg">
<path d="M28.5863 11.5367C28.5863 9.66214 27.7211 8.17211 25.9908 8.17211C24.2604 8.17211 23.3472 9.66214 23.3472 11.5367C23.3472 13.4112 24.2124 14.9013 25.9908 14.9013C27.7692 14.8532 28.5863 13.4112 28.5863 11.5367ZM21.4246 11.5367C21.4246 8.70083 23.203 6.58596 25.9908 6.58596C28.7786 6.58596 30.557 8.70083 30.557 11.5367C30.557 14.3725 28.7786 16.4393 25.9908 16.4393C23.203 16.4393 21.4246 14.3725 21.4246 11.5367ZM32.1912 6.77822H34.1619L37.3342 12.0654C37.6226 12.5941 38.0071 13.4112 38.0071 13.4112H38.0552C38.0552 13.4112 38.0071 12.4499 38.0071 11.777V6.77822H39.8816V16.2471H38.0071L34.7387 11.008C34.4503 10.5273 34.0657 9.7102 34.0657 9.7102H34.0177C34.0177 9.7102 34.0657 10.7196 34.0657 11.3444V16.2471H32.1912V6.77822ZM41.9965 6.77822H48.966V8.36437H43.9191V10.4792H48.3411V12.0654H43.9191V14.6129H49.0141V16.2471H41.9965V6.77822ZM52.8593 11.2483H54.83C55.8393 11.2483 56.3681 10.6715 56.3681 9.8544C56.3681 8.98922 55.7913 8.4605 54.878 8.4605H52.8593V11.2483ZM50.8886 6.77822H55.0703C56.1758 6.77822 56.9929 7.11467 57.5697 7.64339C58.0984 8.17211 58.4349 8.94116 58.4349 9.80633C58.4349 11.5847 57.2332 12.7864 55.2626 12.7864H52.9554V16.199H50.9847V6.77822H50.8886ZM59.7807 6.77822H61.7033V14.6129H66.1253V16.2471H59.7807V6.77822ZM67.1828 13.1709V6.77822H69.1054V13.219C69.1054 14.1803 69.586 14.9013 70.8838 14.9013C72.0854 14.9013 72.6622 14.1803 72.6622 13.219V6.77822H74.5848V13.219C74.5848 15.2377 73.3351 16.4393 70.9318 16.4393C68.4324 16.3913 67.1828 15.2377 67.1828 13.1709ZM75.9306 13.3151H77.8052C77.9494 14.4687 78.5742 14.9013 79.9201 14.9013C80.8814 14.9013 81.7466 14.5648 81.7466 13.6996C81.7466 12.7864 80.8333 12.5941 79.3913 12.2577C77.7091 11.8731 76.1229 11.4406 76.1229 9.46987C76.1229 7.59533 77.661 6.63402 79.7278 6.63402C81.8427 6.63402 83.2366 7.69146 83.3808 9.56601H81.5543C81.4582 8.6047 80.6891 8.12405 79.7278 8.12405C78.7184 8.12405 77.9975 8.55663 77.9975 9.22955C77.9975 9.99859 78.6704 10.2389 80.0643 10.5273C82.0349 10.9599 83.6211 11.3925 83.6211 13.4593C83.6211 15.3819 82.083 16.4393 79.9201 16.4393C77.4207 16.4393 75.9787 15.2858 75.9306 13.3151ZM0.179688 3.41364V19.5636H16.3296V10.335H14.5512V17.7852H1.9581V5.24013H9.40823V3.41364H0.179688ZM14.5512 0.433594V3.41364H11.5231V5.24013H14.5512V8.22018H16.3296V5.24013H19.3097V3.41364H16.3296V0.433594H14.5512Z" fill="#59B8C5"/>
<path d="M9.40823 15.3819V7.4992H7.82208C7.82208 8.02792 7.62981 8.4605 7.34142 8.70083C7.05303 8.94116 6.62044 9.03729 6.09172 9.03729H5.89946V10.335H7.58175V15.3819H9.40823Z" fill="#59B8C5"/>
</svg>
