<svg width="59" height="20" viewBox="0 0 59 20" fill="none" xmlns="http://www.w3.org/2000/svg">
<path d="M25.2707 10.507C25.2707 13.2866 23.0962 15.3348 20.4277 15.3348C17.7591 15.3348 15.5846 13.2866 15.5846 10.507C15.5846 7.70782 17.7591 5.67918 20.4277 5.67918C23.0962 5.67918 25.2707 7.70782 25.2707 10.507ZM23.1507 10.507C23.1507 8.77003 21.8904 7.58158 20.4277 7.58158C18.965 7.58158 17.7047 8.77003 17.7047 10.507C17.7047 12.2266 18.965 13.4324 20.4277 13.4324C21.8904 13.4324 23.1507 12.2244 23.1507 10.507Z" fill="#59B8C5"/>
<path d="M35.7187 10.507C35.7187 13.2866 33.5442 15.3348 30.8756 15.3348C28.207 15.3348 26.0326 13.2866 26.0326 10.507C26.0326 7.71 28.207 5.67918 30.8756 5.67918C33.5442 5.67918 35.7187 7.70782 35.7187 10.507ZM33.5986 10.507C33.5986 8.77003 32.3383 7.58158 30.8756 7.58158C29.4129 7.58158 28.1526 8.77003 28.1526 10.507C28.1526 12.2266 29.4129 13.4324 30.8756 13.4324C32.3383 13.4324 33.5986 12.2244 33.5986 10.507Z" fill="#59B8C5"/>
<path d="M45.7313 5.97085V14.6383C45.7313 18.2037 43.6286 19.6598 41.1429 19.6598C38.803 19.6598 37.3947 18.0948 36.8636 16.815L38.7094 16.0466C39.0381 16.8324 39.8434 17.7596 41.1407 17.7596C42.7319 17.7596 43.7179 16.7779 43.7179 14.93V14.2356H43.6439C43.1694 14.8211 42.2552 15.3327 41.1015 15.3327C38.6876 15.3327 36.4762 13.23 36.4762 10.5244C36.4762 7.79924 38.6876 5.67918 41.1015 5.67918C42.253 5.67918 43.1672 6.19069 43.6439 6.7588H43.7179V5.97303H45.7313V5.97085ZM43.8681 10.5244C43.8681 8.82445 42.734 7.58158 41.2909 7.58158C39.8282 7.58158 38.6027 8.82445 38.6027 10.5244C38.6027 12.207 39.8282 13.4324 41.2909 13.4324C42.734 13.4324 43.8681 12.207 43.8681 10.5244Z" fill="#59B8C5"/>
<path d="M49.0507 0.890538V15.0388H46.9829V0.890538H49.0507Z" fill="#59B8C5"/>
<path d="M57.1087 12.096L58.7542 13.193C58.2231 13.9788 56.9432 15.3327 54.7318 15.3327C51.9892 15.3327 49.9409 13.2126 49.9409 10.5048C49.9409 7.63382 52.0066 5.677 54.4945 5.677C56.9998 5.677 58.2253 7.67082 58.6258 8.74827L58.8456 9.29678L52.3919 11.9697C52.886 12.9383 53.6543 13.4324 54.7318 13.4324C55.8114 13.4324 56.5602 12.9013 57.1087 12.096ZM52.0436 10.359L56.3577 8.5676C56.1205 7.96467 55.4065 7.54457 54.5663 7.54457C53.4889 7.54457 51.9892 8.49577 52.0436 10.359Z" fill="#59B8C5"/>
<path d="M7.75736 9.25107V7.20284H14.6595C14.727 7.55981 14.7618 7.98208 14.7618 8.43918C14.7618 9.9759 14.3417 11.8761 12.9879 13.23C11.671 14.6013 9.98843 15.3327 7.75953 15.3327C3.62824 15.3327 0.154297 11.9675 0.154297 7.83625C0.154297 3.70495 3.62824 0.339844 7.75953 0.339844C10.045 0.339844 11.6732 1.23663 12.8964 2.40549L11.4511 3.85079C10.5739 3.02801 9.38549 2.38808 7.75736 2.38808C4.74051 2.38808 2.38102 4.8194 2.38102 7.83625C2.38102 10.8531 4.74051 13.2844 7.75736 13.2844C9.71417 13.2844 10.8286 12.4986 11.5426 11.7847C12.1216 11.2057 12.5025 10.3786 12.6527 9.2489L7.75736 9.25107Z" fill="#59B8C5"/>
</svg>
