<svg width="55" height="14" viewBox="0 0 55 14" fill="none" xmlns="http://www.w3.org/2000/svg">
<path d="M54.2535 1.12683C54.0641 0.87428 53.8746 0.684868 52.9276 0.621731C52.675 0.621731 51.9174 0.558594 50.5915 0.558594C47.119 0.558594 44.7197 1.63193 43.5201 3.71546C43.8358 1.63193 41.8154 0.558594 37.3958 0.558594C32.2186 0.558594 28.9354 2.64212 27.6095 6.87232C27.1044 8.45075 27.1044 9.7135 27.4833 10.7237H26.2205C25.2735 10.7868 24.0107 10.85 23.1899 10.85C21.2958 10.85 20.0962 10.5343 19.6543 9.90291C19.2754 9.33467 19.2754 8.26134 19.7805 6.68291C20.6013 4.09428 22.5586 2.95781 25.7154 2.95781C27.357 2.95781 28.9354 3.14722 28.9354 3.14722C29.1248 3.14722 29.2511 2.89467 29.2511 2.70526L29.188 2.51585L29.0617 1.63193C28.9986 1.06369 28.5566 0.748006 27.799 0.621731C27.1044 0.558594 26.5362 0.558594 25.7786 0.558594C25.7786 0.558594 25.7786 0.558594 25.7154 0.558594C21.6115 0.558594 18.7072 1.94761 17.1288 4.59938C17.697 1.88448 15.8029 0.558594 11.4464 0.558594C8.98406 0.558594 7.21621 0.621731 6.20602 0.748006C5.38523 0.87428 4.88013 1.18997 4.69072 1.7582L4.3119 2.89467C4.24876 3.08408 4.37504 3.21036 4.62759 3.21036C4.817 3.21036 5.57464 3.08408 6.83739 3.02095C8.5421 2.89467 9.7417 2.83154 10.5625 2.83154C12.9617 2.83154 14.035 3.46291 13.6562 4.66252C13.5931 4.91506 13.4037 5.10448 13.088 5.16761C10.815 5.54644 8.98406 5.79899 7.65817 5.9884C3.86994 6.4935 1.66013 7.62997 1.0919 9.52409C0.271115 12.1127 2.29151 13.3755 7.15308 13.3755C9.55229 13.3755 11.6358 13.2492 13.2774 12.9335C14.2244 12.7441 14.7295 12.5547 14.919 11.9233L15.8029 9.01899C15.7397 11.9233 17.697 13.3755 21.8641 13.3755C23.6319 13.3755 25.3366 13.3123 26.1574 13.186C26.9782 13.0598 27.4201 12.8704 27.6095 12.239L27.799 11.3551C28.6829 12.7441 30.6401 13.4386 33.6076 13.4386C36.7645 13.4386 38.5954 13.3755 39.1005 13.186C39.5425 13.0598 39.795 12.8072 39.9213 12.4915C39.9213 12.4284 39.9213 12.3653 39.9845 12.3021L40.3633 11.1025C40.4264 10.9131 40.3001 10.7868 40.0476 10.7868L38.0272 10.9131C36.7013 10.9762 35.628 11.0394 34.8703 11.0394C33.4182 11.0394 32.4711 10.9131 31.9029 10.7237C31.0821 10.408 30.7033 9.83977 30.7664 8.89271L37.1433 8.07193C39.9845 7.6931 41.9417 6.80918 42.8888 5.42016L40.679 12.8072C40.6158 12.9335 40.679 13.0598 40.7421 13.1229C40.8052 13.186 40.9315 13.2492 41.1841 13.2492H43.8358C44.2778 13.2492 44.4672 12.9966 44.5303 12.8072L46.8664 4.66252C47.1821 3.58918 48.1292 3.08408 49.897 3.08408C51.4754 3.08408 52.6119 3.08408 53.3695 3.14722H53.4327C53.559 3.14722 53.8115 3.08408 54.0009 2.7684L54.3797 1.63193C54.3797 1.44252 54.3797 1.2531 54.2535 1.12683ZM11.699 10.85C10.8782 10.9762 9.67857 11.0394 8.16327 11.0394C5.44837 11.0394 4.3119 10.4711 4.62759 9.39781C4.88013 8.64016 5.57465 8.13507 6.71112 8.00879L12.8354 7.18801L11.699 10.85ZM39.9213 4.28369C39.6688 5.10448 38.4692 5.67271 36.3225 5.9884L31.2084 6.68291L31.3346 6.24095C31.7766 4.85193 32.3448 3.96801 33.1025 3.46291C33.8601 2.95781 35.1229 2.70526 36.8907 2.70526C39.2268 2.7684 40.237 3.2735 39.9213 4.28369Z" fill="#59B8C5"/>
</svg>
