<svg width="45" height="16" viewBox="0 0 45 16" fill="none" xmlns="http://www.w3.org/2000/svg">
<path d="M8.30371 8.0242C8.30371 6.33186 7.18085 5.37055 5.59116 5.37055H4.61824V10.6796H5.56349C7.0416 10.6796 8.30371 9.87631 8.30371 8.0242ZM25.61 9.93433L18.4426 15.5781L11.8919 10.4208C10.9467 12.6915 8.66253 14.2687 6.03209 14.2687H0.425781V1.77969H6.03209C8.97137 1.77969 11.0895 3.64876 11.8901 5.64011L18.4426 0.488125L20.8695 2.39825L14.8642 7.11823L16.0183 8.02152L22.0218 3.30422L24.4523 5.20899L18.4479 9.93433L19.6002 10.8394L25.61 6.11318V1.77969H29.9667V10.6234H34.3127V14.2839H25.61V9.93433ZM39.8315 10.6252H44.1757V14.2839H35.4704V1.77969H39.8315V10.6252Z" fill="#59B8C5"/>
</svg>
