<svg width="30" height="36" viewBox="0 0 30 36" fill="none" xmlns="http://www.w3.org/2000/svg">
<path d="M14.6805 0.029652C14.9374 -0.0178222 15.1984 0.00231635 15.4577 0.0176349L15.4609 0.0763668C15.5577 0.0853137 15.6558 0.0957461 15.7533 0.107829C16.2873 0.256855 16.8302 0.373658 17.3667 0.515388C17.7388 0.634601 18.1174 0.729616 18.4912 0.844009C18.5733 0.870619 18.6555 0.896403 18.7385 0.921361C18.8179 0.948117 18.8976 0.973892 18.9777 0.99868C19.3023 1.09779 19.6205 1.21862 19.9442 1.32086C20.0216 1.34988 20.0996 1.37884 20.1778 1.40786C20.2599 1.43605 20.3422 1.46352 20.425 1.49165C20.5539 1.5513 20.6868 1.60363 20.8262 1.63826C20.9582 1.70023 21.0944 1.75741 21.2337 1.80581C21.3127 1.83318 21.3925 1.86137 21.473 1.8896C21.6542 1.98217 21.8451 2.05546 22.0368 2.12637C22.1656 2.19168 22.2994 2.24882 22.4404 2.28993C22.6699 2.41716 22.918 2.50742 23.1564 2.61779C23.2039 2.63469 23.299 2.66932 23.3465 2.68623L23.3642 2.72891C23.7138 2.84565 24.0263 3.04545 24.3694 3.17596C24.4097 3.19689 24.4903 3.23957 24.5306 3.26051C24.5709 3.28064 24.6514 3.32092 24.6908 3.34106C24.7454 3.36773 24.7999 3.39456 24.8544 3.42155C24.9599 3.47794 25.0694 3.52713 25.1814 3.5714C25.2837 3.63261 25.3891 3.68903 25.4971 3.74294C25.5375 3.76387 25.618 3.80494 25.6582 3.82594C25.6986 3.84363 25.7799 3.87991 25.8201 3.89761C26.1624 4.09731 26.5168 4.27625 26.868 4.4607C27.0485 4.57909 27.2401 4.67978 27.4319 4.77879C27.6979 4.94622 27.9678 5.10736 28.2414 5.26208C28.454 5.39902 28.6627 5.54085 28.8834 5.66482C29.1443 5.8735 29.4617 6.00401 29.713 6.22467C29.7493 7.33219 29.7154 8.44216 29.6953 9.54971C29.6325 10.1852 29.5858 10.8231 29.5471 11.4603C29.5093 11.4418 29.4718 11.423 29.4344 11.4039C26.9253 10.0991 24.3114 8.99633 21.6365 8.07891C19.8201 7.45626 17.945 7.035 16.0699 6.63629C15.7203 6.57099 15.3756 6.47036 15.0196 6.45428C14.6305 6.46874 14.2487 6.55498 13.8685 6.63065C12.1625 6.99951 10.463 7.40628 8.7981 7.93067C7.08969 8.46471 5.42397 9.12436 3.78396 9.83803C2.69902 10.3479 1.59626 10.8263 0.55803 11.428C0.552631 11.3395 0.533876 11.2524 0.502401 11.1695C0.477476 10.741 0.495963 10.3051 0.42188 9.8823C0.376023 9.42726 0.444494 8.9512 0.338883 8.50898C0.333303 7.93787 0.33086 7.36679 0.340533 6.79654C0.422639 6.6185 0.376023 6.41718 0.384805 6.22781C0.827821 5.93547 1.26605 5.63336 1.71306 5.34505C2.45089 4.89232 3.208 4.4711 3.96997 4.05951C4.18664 3.95806 4.39608 3.84201 4.61031 3.73488C4.65137 3.71475 4.73279 3.67447 4.7731 3.65433C5.03322 3.50534 5.30868 3.38536 5.57692 3.25245C5.72189 3.17916 5.86527 3.10019 6.02159 3.05189L6.03929 2.98421C6.07478 2.98824 6.14562 2.99715 6.18029 3.00115L6.19795 2.92703C6.50567 2.8513 6.76579 2.6548 7.07031 2.5686L7.08567 2.52343C7.34654 2.45179 7.59065 2.32855 7.83231 2.20934C7.97328 2.16985 8.11022 2.11667 8.23746 2.04423C8.37638 2.00379 8.511 1.94984 8.63941 1.88316C8.77714 1.8412 8.91247 1.79049 9.04214 1.72687C9.33775 1.62053 9.63656 1.52149 9.92652 1.40069C10.0065 1.37481 10.0862 1.34823 10.1657 1.32093C10.5653 1.17752 10.9704 1.04946 11.3748 0.918192C11.4567 0.89477 11.5384 0.870326 11.6197 0.844868C11.9934 0.730507 12.3728 0.63229 12.7465 0.517897C12.8536 0.494523 12.9632 0.472766 13.0679 0.438135C13.2821 0.380987 13.5004 0.336683 13.7147 0.277026C13.8234 0.256095 13.9305 0.231071 14.0369 0.197264C14.1424 0.172339 14.2495 0.148238 14.3559 0.119945C14.463 0.09327 14.5749 0.0691368 14.6805 0.029652ZM13.4312 1.31284C13.3025 1.45071 13.167 1.58253 13.0316 1.71429C12.8355 1.90505 12.6395 2.09568 12.4647 2.30432C12.4645 2.52382 12.4619 2.74395 12.4593 2.96426C12.4527 3.53063 12.4461 4.09824 12.4792 4.65957C12.6126 4.79501 12.7499 4.92676 12.8872 5.05858C13.0718 5.23572 13.2566 5.41301 13.4321 5.59958C13.4807 5.59962 13.5293 5.59966 13.578 5.5997C14.5152 5.60042 15.4533 5.60115 16.3905 5.59958C16.4779 5.61901 16.5373 5.56004 16.594 5.50371C16.61 5.48785 16.6258 5.47221 16.6419 5.45858C16.8031 5.29295 16.9666 5.12941 17.1303 4.9658C17.238 4.85805 17.3458 4.75027 17.453 4.64185C17.4518 4.23985 17.4519 3.83788 17.4521 3.4359C17.4522 3.29819 17.4522 3.16048 17.4522 3.02277C17.0074 3.02314 16.5625 3.02304 16.1177 3.02295C15.5324 3.02282 14.9473 3.02269 14.3624 3.02363C14.6359 3.29877 14.911 3.57312 15.1861 3.84751C15.2066 3.86795 15.2271 3.88839 15.2476 3.90883H16.1433V4.63376H13.7671V2.27774C14.1349 2.27714 14.5028 2.27747 14.8707 2.27779C15.4681 2.27832 16.0656 2.27885 16.6627 2.2754C16.8289 2.11297 16.9888 1.94451 17.1487 1.77605C17.2973 1.61948 17.4459 1.46291 17.5995 1.31119C17.095 1.31151 16.5905 1.31129 16.0859 1.31107C15.201 1.31067 14.3161 1.31028 13.4312 1.31284ZM10.2898 2.82389C10.2565 2.89907 10.2218 2.97376 10.1871 3.04848C10.1017 3.23241 10.0162 3.41651 9.95145 3.60841C9.92816 3.94474 9.93988 4.28201 9.9516 4.61926C9.95851 4.8183 9.96543 5.01733 9.96515 5.21616C10.0147 5.3549 10.1041 5.47424 10.1935 5.59355C10.2463 5.66403 10.2991 5.7345 10.3437 5.80896C10.7247 5.68981 11.1073 5.57459 11.4923 5.46908C11.5313 5.37848 11.5739 5.28943 11.6164 5.20042C11.6934 5.03931 11.7703 4.87836 11.8258 4.70873C11.849 4.36399 11.8317 4.01856 11.8145 3.67368C11.8126 3.63581 11.8107 3.59794 11.8089 3.56007C11.4222 3.66803 11.0364 3.77836 10.6546 3.8984C10.7617 4.07397 10.8753 4.24716 10.9897 4.41953C11.0127 4.41367 11.0357 4.40781 11.0587 4.40194C11.1493 4.37883 11.24 4.3557 11.3312 4.3326C11.33 4.45276 11.3302 4.57338 11.3304 4.69412C11.3304 4.73603 11.3305 4.77796 11.3305 4.81989C11.0397 4.90276 10.7505 4.9882 10.4629 5.07922C10.4626 4.8225 10.4567 4.56597 10.4508 4.30945C10.4444 4.02751 10.4379 3.74559 10.4388 3.46348C10.7664 3.36604 11.0928 3.26589 11.4197 3.16556C11.4495 3.1564 11.4794 3.14723 11.5093 3.13806C11.5954 2.94517 11.6824 2.75276 11.7693 2.56048C11.801 2.49014 11.8328 2.41981 11.8645 2.34948C11.4182 2.46528 10.9788 2.60501 10.5394 2.74469C10.4562 2.77115 10.373 2.7976 10.2898 2.82389ZM18.5049 2.61607C18.3784 2.83495 18.2425 3.04818 18.1066 3.26133C18.0885 3.28979 18.0703 3.31824 18.0522 3.3467C18.1525 3.58349 18.2558 3.81933 18.3589 4.05492C18.3891 4.12386 18.4193 4.19277 18.4494 4.26169C18.8223 4.35915 19.192 4.46951 19.5593 4.58876C19.5808 4.64509 19.6029 4.70164 19.6251 4.75839C19.647 4.81443 19.669 4.87066 19.6906 4.92709C19.676 4.95239 19.6536 4.99142 19.6318 5.02955C19.6126 5.063 19.5939 5.09578 19.5811 5.11801C19.2149 5.01197 18.8449 4.92034 18.4754 4.82885L18.4719 4.82798C18.3406 4.99632 18.2101 5.16466 18.082 5.33461C18.2422 5.37372 18.4026 5.41199 18.5631 5.45026C19.0304 5.56173 19.4979 5.67325 19.9597 5.80579C19.9947 5.72666 20.0317 5.64827 20.0687 5.56985C20.1398 5.41926 20.211 5.26856 20.2682 5.1123C20.2322 4.89184 20.1605 4.67986 20.0888 4.46801C20.0497 4.35239 20.0106 4.23682 19.9774 4.11993C19.7337 4.04126 19.4888 3.9688 19.2438 3.89631C19.1024 3.85448 18.961 3.81263 18.8198 3.76958C18.7868 3.70241 18.7541 3.63525 18.7216 3.56834C18.7057 3.53574 18.6899 3.50319 18.6741 3.47074C18.7296 3.38732 18.7863 3.30461 18.8439 3.22264C19.0402 3.2711 19.2342 3.32696 19.4283 3.38283C19.592 3.42995 19.7558 3.47708 19.9209 3.5198C19.9638 3.48453 20.0069 3.4495 20.0501 3.41448C20.1615 3.32399 20.2728 3.23351 20.3808 3.13885C20.2653 3.10458 20.1498 3.06984 20.0343 3.03509C19.5281 2.88278 19.021 2.73021 18.5049 2.61607ZM9.1573 3.11627C9.15046 3.38315 9.1585 3.64984 9.16654 3.9166C9.17555 4.21507 9.18455 4.51363 9.17271 4.81266C9.01982 4.604 8.87108 4.39225 8.72234 4.18051C8.54894 3.93366 8.37555 3.68682 8.1956 3.44489C8.09091 3.48437 7.98695 3.52386 7.88309 3.56414C7.9064 4.28213 7.9173 5.00049 7.92819 5.71897C7.93459 6.14095 7.94099 6.56297 7.94991 6.98498C8.02858 6.8698 8.10222 6.75115 8.17596 6.63235C8.24037 6.52857 8.30485 6.42467 8.37282 6.32289C8.35356 5.98993 8.35186 5.65667 8.35016 5.32329C8.34902 5.0994 8.34788 4.87546 8.34142 4.65152C8.50228 4.89698 8.67143 5.13681 8.84058 5.37666C8.99665 5.59795 9.15272 5.81925 9.30229 6.04498C9.36327 6.02929 9.42469 6.01314 9.48645 5.99691C9.53895 5.98311 9.5917 5.96924 9.64462 5.95554C9.61675 5.46036 9.6122 4.96456 9.60764 4.46887C9.60313 3.97685 9.59861 3.48494 9.57129 2.99385C9.50844 3.01259 9.44524 3.03117 9.3821 3.04973C9.30688 3.07185 9.23172 3.09394 9.1573 3.11627ZM20.6401 3.21128C20.617 3.66541 20.59 4.11951 20.5629 4.57361C20.5346 5.04985 20.5063 5.52608 20.4824 6.00232C20.8617 6.11427 21.2395 6.23028 21.6141 6.3559C21.816 6.4572 21.9767 6.3157 22.132 6.17888C22.1991 6.11976 22.2653 6.06152 22.3333 6.02411C22.1792 5.97283 22.0261 5.91829 21.8731 5.86375C21.5957 5.76492 21.3183 5.66609 21.0349 5.58667C21.0389 5.42639 21.0493 5.2669 21.0607 5.10662C21.1756 5.1422 21.2883 5.18461 21.4009 5.22702C21.5331 5.27677 21.6652 5.32651 21.8009 5.36518C21.9374 5.31316 22.0522 5.21998 22.1671 5.12668C22.2319 5.07408 22.2967 5.02144 22.3656 4.97611C21.9451 4.80533 21.519 4.6499 21.0921 4.4985C21.099 4.4147 21.105 4.33075 21.111 4.24677C21.119 4.13462 21.127 4.02243 21.1372 3.91052C21.3367 3.97697 21.5345 4.04818 21.7324 4.11939C21.8509 4.16207 21.9695 4.20475 22.0884 4.2464C22.2251 4.14645 22.3624 4.04657 22.4998 3.94666C22.5219 3.93058 22.544 3.91448 22.5661 3.8984C21.933 3.64469 21.2894 3.4191 20.6401 3.21128ZM7.08075 3.88714C7.11544 5.01725 7.13472 6.14894 7.14361 7.27983C7.23059 7.15653 7.31462 7.03111 7.39864 6.9057C7.46011 6.81396 7.52157 6.72223 7.58418 6.63134C7.58936 6.10901 7.57742 5.5869 7.56547 5.06464C7.55513 4.61245 7.54478 4.16014 7.54555 3.70748C7.39006 3.76593 7.23512 3.82582 7.08075 3.88714ZM22.8738 3.99985C22.859 4.62632 22.8344 5.25253 22.8098 5.87877C22.7903 6.37579 22.7708 6.87284 22.7562 7.37003C22.8097 7.2979 22.8687 7.22967 22.9277 7.16149C23.0294 7.04388 23.1311 6.92641 23.2039 6.78924C23.2096 6.67036 23.2116 6.55136 23.2136 6.43232C23.2167 6.24651 23.2198 6.06063 23.237 5.87502C23.3014 5.90697 23.3711 5.93436 23.4414 5.96197C23.6636 6.04926 23.8913 6.13875 23.9765 6.38169C24.1179 6.565 24.0931 6.78589 24.0688 7.00203C24.0613 7.06892 24.0538 7.13535 24.0514 7.20007C24.1161 7.23078 24.181 7.26113 24.2459 7.29153C24.3225 7.32733 24.3991 7.36319 24.4758 7.39977C24.4775 7.27202 24.4851 7.14456 24.4926 7.01713C24.5028 6.84493 24.513 6.67279 24.5088 6.50007C24.4607 6.38174 24.3968 6.27124 24.3331 6.16084C24.2988 6.10139 24.2644 6.04198 24.2326 5.98139C24.2513 5.95249 24.2699 5.9236 24.2886 5.8947C24.3713 5.76653 24.4539 5.63846 24.5387 5.51101C24.4629 5.22583 24.3889 4.94148 24.3164 4.65634C23.8452 4.41794 23.3676 4.18675 22.8738 3.99985ZM6.25114 4.25519C6.17388 4.51655 6.10425 4.78021 6.03463 5.04389C5.93515 5.42062 5.83567 5.79737 5.7139 6.16742C5.53668 5.71797 5.34896 5.27172 5.14853 4.83194C5.09969 4.86249 5.04715 4.88916 4.99448 4.9159C4.89164 4.96811 4.78832 5.02057 4.7111 5.10259C4.71836 6.17954 4.73368 7.25804 4.76673 8.33496C4.81024 8.25553 4.85567 8.17693 4.90113 8.09828C4.98101 7.96006 5.06098 7.82171 5.13077 7.67848C5.16457 7.36658 5.15192 7.05345 5.13926 6.74017C5.129 6.48634 5.11875 6.23241 5.13318 5.97895C5.247 6.2045 5.34285 6.43834 5.43872 6.67225C5.49487 6.80926 5.55104 6.94628 5.61083 7.08168C5.69972 7.03635 5.78888 6.99151 5.87828 6.94718C5.92591 6.75279 5.98095 6.56011 6.036 6.36743C6.13171 6.03238 6.22743 5.69731 6.28422 5.35313C6.34333 5.9124 6.33935 6.47545 6.33538 7.03718C6.33524 7.0571 6.3351 7.07702 6.33496 7.09693C6.47747 7.03575 6.62031 6.97534 6.76348 6.91572C6.74224 6.31815 6.73432 5.72056 6.7264 5.12296C6.72169 4.76766 6.71698 4.41236 6.70947 4.05707C6.55483 4.1191 6.40254 4.18678 6.25114 4.25519ZM24.9277 4.96486C24.8698 6.01599 24.8351 7.06957 24.8005 8.12149C24.9707 8.00836 25.1329 7.88376 25.2862 7.74857C25.2878 7.31146 25.3074 6.87477 25.327 6.43808C25.3457 6.02179 25.3644 5.60549 25.3675 5.18882C25.2194 5.1155 25.0735 5.04052 24.9277 4.96486ZM3.05581 5.97654C2.92451 6.23672 2.83184 6.52186 2.75703 6.80377C2.75813 7.18268 2.76627 7.56193 2.77441 7.94135C2.78411 8.3935 2.79382 8.84591 2.79163 9.29831C2.82383 9.24287 2.85689 9.18775 2.88998 9.13257C2.9968 8.95444 3.10397 8.77572 3.1839 8.58386C3.21039 8.39017 3.19584 8.19443 3.18134 7.99943C3.17733 7.94554 3.17333 7.89172 3.1702 7.838C3.38251 7.70036 3.6013 7.57318 3.81997 7.44605C3.85846 7.42368 3.89695 7.4013 3.9354 7.37888C3.93841 7.49859 3.94388 7.61829 3.94936 7.73806C3.9556 7.8746 3.96185 8.01124 3.96445 8.14807C4.04676 8.10117 4.12974 8.05519 4.21276 8.00918C4.2637 7.98095 4.31466 7.95271 4.36551 7.92423C4.36932 7.62229 4.36169 7.32069 4.35406 7.01911C4.34549 6.6803 4.33693 6.34152 4.34458 6.00232C4.36815 5.81333 4.25648 5.66898 4.14636 5.52663C4.10209 5.4694 4.05807 5.41249 4.02318 5.35313C3.9699 5.38568 3.91645 5.41805 3.86297 5.45044C3.58821 5.61685 3.31267 5.78373 3.05581 5.97654ZM25.7719 5.38932C25.758 5.71054 25.7465 6.03187 25.735 6.35322C25.7158 6.88927 25.6966 7.42539 25.6663 7.96124C26.0127 8.10056 26.3582 8.2415 26.6973 8.39858C26.8141 8.33969 26.9309 8.28149 27.0476 8.22328C27.1097 8.19233 27.1717 8.16139 27.2338 8.13034C26.8681 7.93949 26.4887 7.77359 26.1101 7.61083C26.1158 7.47954 26.1223 7.34748 26.1312 7.21618C26.3003 7.28951 26.4703 7.36359 26.6369 7.44494C26.8432 7.34104 27.0453 7.22823 27.2451 7.11149C27.0585 7.03759 26.8766 6.95333 26.6948 6.86911C26.5139 6.78535 26.3332 6.70162 26.148 6.62817C26.1504 6.4525 26.1609 6.27776 26.1746 6.10374C26.2519 6.14185 26.3285 6.1814 26.4052 6.22097C26.5571 6.29939 26.7091 6.37788 26.8666 6.4453C27.0055 6.42783 27.1314 6.35803 27.2564 6.28871C27.3097 6.25917 27.3628 6.22972 27.4167 6.20443C27.3855 6.18817 27.3542 6.1719 27.323 6.15563C26.8114 5.88908 26.2995 5.6224 25.7719 5.38932ZM27.755 6.33821C27.7205 6.44952 27.6799 6.55901 27.6394 6.66855C27.5825 6.82216 27.5256 6.97586 27.4852 7.13477C27.515 7.30535 27.5621 7.47218 27.6091 7.63885C27.628 7.70599 27.647 7.7731 27.6648 7.84041C27.9814 7.97891 28.2987 8.11908 28.6072 8.27616C28.641 8.41066 28.6748 8.54919 28.6273 8.68692C28.547 8.64803 28.4667 8.60889 28.3864 8.56975C28.2205 8.48887 28.0546 8.40798 27.8879 8.32925C27.7309 8.42516 27.5778 8.52658 27.4256 8.62895C27.561 8.69373 27.6969 8.75749 27.8329 8.82127C28.1314 8.96125 28.43 9.1013 28.7233 9.25236C28.8178 9.06668 28.9106 8.88096 29.0037 8.69478C29.0192 8.66373 29.0347 8.63266 29.0502 8.60158C29.0356 8.53346 29.0209 8.46539 29.0061 8.39735C28.9647 8.2063 28.9233 8.01546 28.8859 7.82427C28.5838 7.66884 28.2753 7.52622 27.9628 7.39251C27.9233 7.25402 27.904 7.10984 27.9362 6.96808C28.1022 7.04201 28.2598 7.1318 28.4175 7.2216C28.4848 7.25991 28.5521 7.29823 28.6201 7.33533C28.7586 7.24679 28.898 7.15897 29.0397 7.07356C28.6233 6.80859 28.19 6.57013 27.755 6.33821ZM1.31356 7.11787C1.21366 7.3555 1.13231 7.60281 1.06945 7.85335C1.0517 8.28143 1.05333 8.7101 1.07434 9.13803C1.07016 9.25183 1.11532 9.34925 1.17399 9.44156C1.17806 9.44796 1.18219 9.45434 1.18637 9.46069C1.20581 9.49021 1.2264 9.51927 1.24693 9.54827C1.26463 9.57326 1.28229 9.5982 1.29915 9.62333C1.31601 9.64845 1.33206 9.67376 1.34654 9.6995C1.37722 9.68265 1.40782 9.66568 1.43837 9.64862C1.52429 9.60063 1.60976 9.55193 1.69522 9.50325C1.77643 9.457 1.85761 9.41076 1.93915 9.36513C1.96013 9.35339 1.98112 9.34169 2.00215 9.33004C2.06786 9.29365 2.13385 9.25775 2.20031 9.22268C2.20343 9.21306 2.20659 9.20347 2.20979 9.19388C2.21388 9.18163 2.21822 9.16888 2.22243 9.15667C2.29749 8.93921 2.39 8.72729 2.44194 8.50337C2.45722 8.25771 2.45145 8.01163 2.44916 7.7657C2.44818 7.66091 2.44784 7.55614 2.45003 7.45144C2.2243 7.57214 2.00499 7.70383 1.78728 7.83789C1.72449 7.87655 1.66183 7.91541 1.59919 7.95426L1.59601 7.95623C1.58854 7.96086 1.58108 7.96549 1.57361 7.97012C1.65905 8.10462 1.74604 8.23922 1.83214 8.37451C1.8549 8.36267 1.88623 8.34624 1.91944 8.32882L1.92064 8.32819C1.93682 8.31971 1.95342 8.311 1.96969 8.30248C2.00314 8.28495 2.03516 8.26823 2.05905 8.25593C2.0611 8.25487 2.06309 8.25385 2.06502 8.25286C2.07694 8.38757 2.07881 8.52298 2.0706 8.65797C1.86766 8.79736 1.64538 8.90607 1.43676 9.03658C1.46337 8.57022 1.42065 8.10462 1.42224 7.63827C1.46077 7.61383 1.49928 7.5893 1.53779 7.56476C1.54776 7.55841 1.55774 7.55206 1.56771 7.54571C1.71729 7.45044 1.86722 7.35536 2.01992 7.26534C2.35901 7.10185 2.33653 6.65884 2.48073 6.35759C2.08447 6.59842 1.67199 6.82394 1.31356 7.11787Z" fill="#59B8C5"/>
<path d="M23.2749 4.70229C23.3525 4.74573 23.4439 4.77999 23.5367 4.81482C23.7829 4.90719 24.0396 5.00349 24.0788 5.28542C24.1068 5.36346 24.073 5.43513 24.0395 5.50627C24.0239 5.53944 24.0083 5.57249 23.9991 5.60602C23.9208 5.57055 23.8409 5.53795 23.7609 5.50535C23.5866 5.43425 23.4122 5.36311 23.2548 5.26205C23.2568 5.18327 23.2605 5.10462 23.2641 5.02599C23.269 4.91815 23.274 4.81034 23.2749 4.70229ZM3.14848 6.54121C3.36109 6.39851 3.57885 6.26386 3.79694 6.12901C3.83744 6.10398 3.87794 6.07893 3.91843 6.05382C3.91688 6.2842 3.92087 6.5146 3.9418 6.74415C3.68406 6.894 3.42715 7.04616 3.17819 7.2105C3.17511 7.06524 3.16756 6.92067 3.16002 6.77613C3.15594 6.69785 3.15185 6.61958 3.14848 6.54121Z" fill="#59B8C5"/>
<path d="M13.8685 6.63065C14.2487 6.55498 14.6305 6.46874 15.0196 6.45428C15.3756 6.47036 15.7203 6.57099 16.0699 6.63629C17.945 7.035 19.8201 7.45626 21.6365 8.07891C24.3114 8.99633 26.9253 10.0991 29.4344 11.4039C29.5213 11.4861 29.5358 11.6092 29.5439 11.7228C29.4255 11.9749 29.477 12.2601 29.4496 12.5291C29.3594 12.7337 29.3893 12.9617 29.3683 13.1791C29.2805 13.5738 29.2362 13.9813 29.2064 14.3857C29.1388 14.5396 29.1379 14.7087 29.1235 14.8738C29.0115 15.4892 28.8972 16.1054 28.7988 16.7232C28.7078 17.0977 28.6281 17.4747 28.5564 17.8533C28.3961 18.4985 28.2414 19.1453 28.0739 19.7889C28.0095 19.9741 27.9595 20.1634 27.9128 20.3527C27.8041 20.7014 27.6921 21.0503 27.5874 21.3998C27.5617 21.4804 27.5358 21.5617 27.5125 21.6431C27.3731 22.016 27.245 22.393 27.1105 22.7676C27.0808 22.8466 27.0515 22.9258 27.0227 23.0051C26.9631 23.1381 26.9116 23.275 26.8656 23.4135C26.8012 23.5428 26.7471 23.6769 26.7038 23.8147C26.5918 24.0547 26.488 24.2996 26.3865 24.5444C25.2652 27.0044 23.854 29.3628 21.9837 31.3281C20.525 32.8956 18.79 34.2053 16.8786 35.172C16.8375 35.1913 16.7561 35.2307 16.7159 35.2509C16.6756 35.271 16.5967 35.3129 16.5564 35.3339C16.2576 35.4604 15.9692 35.6094 15.6704 35.7349C15.5336 35.7826 15.3987 35.8356 15.266 35.8937C15.1818 35.9282 15.098 35.9636 15.0147 36C14.7964 35.9114 14.5798 35.8196 14.3591 35.7391C11.8717 34.6928 9.62685 33.0802 7.83145 31.0665C6.41218 29.4982 5.25959 27.7061 4.29136 25.8293C4.24288 25.7188 4.18913 25.6107 4.13028 25.5054L4.05296 25.3443L3.96917 25.1832C3.74933 24.7024 3.52292 24.2231 3.32646 23.7318C3.27823 23.5962 3.22449 23.4626 3.16538 23.3315C3.05013 23.039 2.95756 22.7386 2.83831 22.4486C2.54514 21.5964 2.28093 20.7353 2.03772 19.8687C1.93214 19.461 1.82422 19.0543 1.71953 18.6459C1.63333 18.3027 1.57044 17.9532 1.47466 17.6124C1.33294 16.9407 1.21851 16.2617 1.06793 15.5939C1.05582 15.4312 1.04614 15.2677 0.988962 15.1138C0.94545 14.7626 0.920524 14.4026 0.823067 14.0627C0.806163 13.8718 0.828646 13.6712 0.744097 13.4932C0.725576 13.254 0.744097 13.0091 0.662717 12.7795C0.636141 12.5363 0.671631 12.2825 0.581371 12.049C0.570938 11.842 0.562057 11.635 0.55803 11.428C1.59626 10.8263 2.69902 10.3479 3.78396 9.83803C5.42397 9.12436 7.08969 8.46471 8.7981 7.93067C10.463 7.40628 12.1625 6.99951 13.8685 6.63065ZM14.4526 7.26772C14.5605 7.6592 14.7787 8.00634 15.0068 8.33777C15.6826 9.36549 16.6379 10.1605 17.5884 10.9233C17.044 10.9276 16.5861 10.6118 16.1524 10.3126C16.0996 10.2762 16.0472 10.2401 15.9951 10.2048C15.7663 10.39 15.5127 10.5455 15.2388 10.6542C14.5222 10.9455 13.7632 11.0792 13.0045 11.2128C12.5736 11.2887 12.1427 11.3646 11.7196 11.4694C11.6649 11.4802 11.6677 11.53 11.6702 11.5738L11.6705 11.5797L11.7832 11.5007C12.4164 11.5209 13.0446 11.6328 13.6609 11.7738C12.5123 11.8037 11.3668 12.009 10.2787 12.3755C9.16218 12.767 8.078 13.3429 7.24922 14.1991C7.38745 14.1479 7.52383 14.0917 7.66018 14.0355C7.91635 13.93 8.17243 13.8246 8.4405 13.752C8.36459 13.8262 8.28834 13.9002 8.21207 13.9741C7.78007 14.393 7.34747 14.8125 6.97368 15.2849C6.25685 16.1878 5.55854 17.2205 5.57224 18.4223C5.66079 18.3373 5.74682 18.2489 5.83295 18.1604C6.07662 17.91 6.3211 17.6587 6.62578 17.4814C6.1312 18.5946 5.72605 19.7528 5.49644 20.9514C5.39016 21.6094 5.33054 22.349 5.71314 22.9345C5.72197 22.8792 5.72813 22.8225 5.73433 22.7655C5.75585 22.5675 5.77776 22.3659 5.91287 22.2096C6.45424 23.6159 7.25886 24.9628 8.43723 25.9252C8.37254 25.8204 8.30623 25.7165 8.23994 25.6126C8.05528 25.3233 7.87077 25.0343 7.72198 24.7243C6.92783 23.2044 6.66361 21.4121 7.01561 19.7319C7.30798 18.3271 7.89517 16.9538 8.85931 15.8769C9.8017 14.8112 11.126 14.1209 12.5178 13.8623C13.9451 13.5933 15.4433 13.6657 16.8367 14.079C16.8907 13.781 16.9712 13.4701 17.1872 13.2445C17.4505 12.9481 17.8879 12.8804 18.2608 12.9618C18.206 12.988 18.1489 13.0137 18.091 13.0398C17.7184 13.2076 17.3082 13.3924 17.196 13.8156C17.0068 14.7153 18.2399 15.4395 18.9697 14.936C19.2621 14.7588 19.6311 14.7853 19.9234 14.9481C19.9594 14.9348 19.9957 14.918 20.0323 14.901C20.1534 14.8448 20.2779 14.7871 20.4091 14.8514C20.5078 14.8914 20.6095 14.9259 20.7114 14.9604C20.9112 15.0281 21.1115 15.0959 21.2903 15.2058C21.2963 15.2238 21.3056 15.2509 21.315 15.2781C21.3246 15.3057 21.3341 15.3334 21.3402 15.3516C21.1939 15.6062 20.9306 15.7486 20.6783 15.8849C20.6361 15.9077 20.5943 15.9303 20.5533 15.9533C20.7354 15.9388 20.9165 15.9012 21.0976 15.8635C21.4197 15.7966 21.7415 15.7296 22.0684 15.793C22.3387 15.8784 22.2537 16.1782 22.1933 16.3911C22.1882 16.4091 22.1833 16.4265 22.1788 16.443C22.4486 16.3471 22.7015 16.1756 22.8369 15.917C23.006 15.5837 22.9987 15.1946 22.9601 14.8321C22.8795 14.9153 22.8023 15.0018 22.7289 15.0914C22.7369 14.8498 22.7313 14.6009 22.6105 14.3842C22.6346 14.7128 22.4784 15.0085 22.1796 15.1503C21.9476 14.7556 21.6915 14.373 21.3845 14.0331C21.3732 14.1586 21.3643 14.2844 21.3579 14.4108C21.339 14.3898 21.3203 14.368 21.3015 14.3461C21.2087 14.2378 21.1123 14.1253 20.9697 14.0918C20.8644 14.0691 20.755 14.0717 20.6458 14.0742C20.4801 14.0782 20.3152 14.0821 20.1666 13.9976C20.0224 13.9226 19.8307 13.772 19.9298 13.5883C20.0666 13.4107 20.2852 13.347 20.4935 13.2862C20.5317 13.2751 20.5695 13.2641 20.6064 13.2525C20.6461 13.3687 20.6869 13.4844 20.7279 13.6004C20.7452 13.6493 20.7624 13.6981 20.7796 13.7471C20.8129 13.7256 20.8465 13.7036 20.8803 13.6814C21.2217 13.4577 21.5902 13.2163 22.016 13.2822C22.0234 13.2839 22.0312 13.2855 22.0392 13.2872C22.1504 13.3107 22.3104 13.3445 22.2818 13.4917C22.2436 13.6345 22.1465 13.745 22.0503 13.8546C22.0086 13.9021 21.9671 13.9495 21.9306 13.9992C22.2544 13.938 22.5022 13.7242 22.7452 13.5146C22.8001 13.4672 22.8548 13.4201 22.9101 13.3749C23.0558 13.6785 23.0897 14.0144 23.1042 14.3471C23.4388 13.994 23.4366 13.4961 23.4345 13.0322C23.4341 12.9512 23.4337 12.8713 23.4352 12.7933C23.7735 12.9456 24.0232 13.2203 24.2665 13.4901C24.0773 13.0728 23.751 12.7104 23.3353 12.5106C23.1772 12.4466 23.0913 12.3046 23.0066 12.1648C22.9774 12.1166 22.9483 12.0685 22.9165 12.0241C22.8495 12.0415 22.7838 12.0671 22.7181 12.0926C22.5983 12.1393 22.4785 12.1859 22.351 12.1828C22.1399 12.1554 22.0554 11.9436 21.9942 11.7695C21.7372 11.8179 21.4311 11.8227 21.2475 11.6044C21.0744 11.4354 21.0137 11.2085 20.9533 10.9827C20.9279 10.8878 20.9025 10.7932 20.869 10.7032C20.6554 10.5163 20.3751 10.4067 20.0949 10.381C19.9251 10.3634 19.7644 10.4101 19.6038 10.4569C19.4474 10.5024 19.2912 10.5479 19.1266 10.534C18.7071 10.5033 18.3075 10.3559 17.9306 10.1771C16.7224 9.61327 15.6801 8.73529 14.8359 7.71073C14.809 7.67721 14.7825 7.64321 14.756 7.60919C14.6621 7.4888 14.5681 7.36818 14.4526 7.26772ZM13.4562 8.75219C13.9201 9.33456 14.4098 9.92657 15.0405 10.335C15.2721 10.4896 15.4866 10.303 15.6662 10.1469C15.6807 10.1343 15.695 10.1218 15.709 10.1098C15.7249 10.0962 15.7405 10.0831 15.7558 10.0708C15.2844 9.85764 14.8462 9.58569 14.4082 9.31391C14.0948 9.11938 13.7814 8.92493 13.4562 8.75219ZM4.21651 12.3197C4.4557 12.3809 4.73682 12.3704 4.93506 12.5395C5.07201 12.633 4.94553 12.7739 4.90446 12.8843C4.70869 13.2225 4.77551 13.6438 4.91493 13.9901C5.03331 14.3261 5.39977 14.5621 5.33457 14.9543C5.05745 14.8916 4.81668 14.7304 4.58786 14.5709C4.36722 14.4082 4.38891 14.0941 4.21414 13.8984C3.84441 13.4803 3.18793 13.3409 2.69018 13.6068C2.99225 13.6341 3.34026 13.5947 3.59153 13.7977C3.82833 14.0047 3.80014 14.3462 3.83877 14.6289C3.92332 14.7989 4.17142 14.7465 4.29789 14.873C4.45174 15.0374 4.55646 15.2484 4.74256 15.3837C5.06068 15.606 5.49885 15.5859 5.79046 15.854C5.94265 16.0409 5.83793 16.3012 5.84275 16.5186C6.14803 15.7888 6.66602 15.1855 7.21052 14.6241C6.93099 14.7434 6.71508 14.981 6.40822 15.0422C6.28577 14.7587 6.23427 14.418 6.37689 14.1329C6.45576 13.9338 6.72555 14.078 6.85123 13.9403C7.04139 13.7615 7.01237 13.4457 6.89395 13.2355C6.69339 12.923 6.37517 12.7087 6.06348 12.5194C6.18508 12.6749 6.33413 12.807 6.45256 12.9665C6.55645 13.1115 6.59511 13.3466 6.42027 13.4538C6.29065 13.3749 6.14803 13.3322 5.99739 13.3249C5.77273 13.7357 5.85163 14.2109 5.82182 14.658C5.56081 14.252 5.33694 13.78 5.36755 13.2854C5.43117 13.279 5.55844 13.267 5.62209 13.2605C5.60353 12.5951 4.8383 12.0949 4.21651 12.3197ZM11.531 14.6056C10.3293 15.1678 9.28133 16.0676 8.5774 17.1953C7.63657 18.6943 7.28217 20.5283 7.53271 22.2755C7.73327 23.6215 8.16262 24.94 8.84158 26.1216C9.03805 25.8234 9.13234 25.4816 9.22659 25.1399C9.3128 24.8274 9.39898 24.515 9.5633 24.236C9.85233 23.9505 10.255 23.8789 10.6494 23.8087C10.7913 23.7835 10.9322 23.7584 11.0663 23.7237C11.0926 23.7145 11.1229 23.7072 11.1541 23.6996C11.2682 23.6721 11.3953 23.6414 11.3909 23.5054C10.2826 22.5268 9.32164 21.2106 9.23944 19.6859C9.68816 20.8377 10.4034 21.9444 11.4917 22.5816C12.0304 22.8853 12.6241 23.1647 13.258 23.1438C12.8794 23.0382 12.4985 22.9214 12.1625 22.7112C11.2893 22.1941 10.6949 21.3291 10.2431 20.4413C10.2137 20.3776 10.175 20.3135 10.1357 20.2485C10.022 20.0604 9.90357 19.8644 9.99334 19.6472C10.0852 19.4586 10.3374 19.503 10.5008 19.5537C12.0078 20.1079 13.6591 20.3366 15.2508 20.0668C16.4243 19.8485 17.5875 19.3837 18.4727 18.5638C18.418 18.5908 18.3632 18.6178 18.3084 18.6449C17.6339 18.9783 16.9557 19.3135 16.2286 19.5199C15.0856 19.8509 13.8323 20.0257 12.682 19.6286C12.2197 19.4756 11.7718 19.2654 11.3764 18.981C11.266 18.9029 11.1332 18.7232 11.2765 18.6105C11.4693 18.4506 11.7301 18.4257 11.9728 18.4024C11.9968 18.4001 12.0206 18.3979 12.0441 18.3955C13.1686 18.3592 14.2963 18.2376 15.3868 17.9524C16.5226 17.648 17.6519 17.1679 18.5041 16.3366C18.508 16.3324 18.512 16.3282 18.5159 16.3239C18.7598 16.0618 19.02 15.7822 19.0977 15.4208C18.957 15.5298 18.8339 15.6583 18.7108 15.7869C18.561 15.9433 18.4111 16.0999 18.2294 16.2214C17.0284 17.0945 15.5431 17.4603 14.0948 17.6633C13.3385 17.7575 12.5451 17.8541 11.8121 17.5819C11.3828 17.4312 10.9502 17.1598 10.8085 16.7015C10.7534 16.7667 10.7013 16.836 10.649 16.9055C10.5044 17.0981 10.3584 17.2924 10.1424 17.4055C10.0087 17.4756 9.96997 17.2999 9.96429 17.2049C9.91725 16.9314 10.0766 16.7021 10.225 16.4886C10.2381 16.4699 10.251 16.4512 10.2638 16.4327C10.2695 16.4243 10.2753 16.4159 10.2809 16.4075C10.3838 16.2667 10.4846 16.124 10.5854 15.9811C10.9479 15.4677 11.311 14.9533 11.7767 14.5267C11.6934 14.5484 11.6114 14.5747 11.531 14.6056ZM18.5307 17.4925C16.6813 18.5871 14.4646 18.8441 12.3534 18.7482C12.2174 18.7393 11.9355 18.7643 12.0047 18.9705C12.2917 19.2215 12.6924 19.2479 13.0606 19.272C13.0953 19.2743 13.1298 19.2766 13.1638 19.279C15.2926 19.3225 17.519 18.7345 19.1283 17.2862C19.1621 17.2546 19.1971 17.2234 19.2322 17.1921C19.3855 17.0554 19.5417 16.9161 19.6164 16.7208C19.4942 16.8074 19.3754 16.8988 19.2566 16.9902C19.0231 17.1698 18.7896 17.3494 18.5307 17.4925ZM17.7485 19.6979C17.8194 19.7206 17.8907 19.743 17.962 19.7654C18.5058 19.9365 19.057 20.1099 19.5326 20.4324C19.6687 20.5364 19.8604 20.7039 19.7605 20.8947C19.6099 21.1445 19.3151 21.2621 19.0412 21.3176C18.7425 21.376 18.4666 21.2456 18.2025 21.1208C18.1604 21.1009 18.1186 21.0812 18.0771 21.0623C18.4927 21.6302 19.2088 21.8928 19.8982 21.8106C19.8186 21.6689 19.7687 21.5142 19.7928 21.3515C20.3018 21.217 20.9068 21.3467 21.3079 21.6955C21.0856 21.0076 20.5926 20.4115 19.945 20.0869C19.2725 19.7486 18.4936 19.6342 17.7485 19.6979ZM10.55 19.9057C10.5766 20.0273 10.5758 20.165 10.6572 20.2681C11.0003 20.7442 11.5005 21.0881 12.0354 21.3176C13.229 21.83 14.5991 21.8912 15.85 21.5714C15.0897 21.5931 14.3245 21.5762 13.577 21.4232C12.5967 21.2477 11.5883 20.849 10.9576 20.0426C10.8617 19.913 10.6917 19.9226 10.55 19.9057ZM17.7107 21.5923C17.9579 21.9871 18.3954 22.2126 18.8373 22.3189C18.9283 22.4913 19.1289 22.7249 18.9494 22.9077C18.6707 23.1155 18.2817 23.0406 17.9747 22.9407C17.3271 22.6958 16.9357 22.0925 16.5603 21.548C16.8294 22.364 17.4342 23.0768 18.2309 23.4167C19.129 23.8267 20.1778 23.685 21.0686 23.3289C20.5893 23.2999 20.069 23.3612 19.6324 23.1211C19.3835 22.9826 19.3763 22.6539 19.5068 22.43C20.164 22.5323 20.8172 22.2705 21.4753 22.3776C21.9973 22.4421 22.5796 22.6612 22.7988 23.1815C23.1201 23.9379 22.9397 24.7908 22.694 25.5424C22.3275 26.583 21.8676 27.5948 21.2804 28.5299C21.0597 28.8682 20.8342 29.2106 20.5338 29.4837C19.9272 30.0008 19.1966 30.3511 18.4443 30.5992C17.1926 31.0229 15.8273 31.2452 14.5241 30.9375C13.8757 30.7886 13.2925 30.3705 12.9889 29.7728C12.3767 28.5992 12.2985 27.2307 12.3896 25.9339C11.9184 26.3762 11.3328 26.7837 10.6602 26.7805C10.2511 26.7685 9.767 26.5187 9.75809 26.0588C9.80962 25.6488 10.1705 25.3572 10.5217 25.1897C10.8382 25.0415 11.2216 25.2598 11.3328 25.5715C11.34 25.7873 11.0823 25.8857 10.9067 25.9292C10.6852 25.8897 10.5563 25.6899 10.3816 25.5707C10.3421 25.8205 10.3694 26.1297 10.6183 26.2642C11.0267 26.4785 11.5648 26.3867 11.92 26.1072C12.4251 25.6078 12.5249 24.6154 11.9305 24.1466C11.419 23.8268 10.7835 24.0443 10.2503 24.1933C9.85957 24.3004 9.64455 24.6807 9.57123 25.0544C9.43673 25.6851 9.21923 26.3069 8.83663 26.8321C9.19431 26.8619 9.59784 26.9118 9.85317 27.1921C10.082 27.4564 10.0498 27.8422 9.93778 28.1498C9.83227 28.4333 9.78876 28.7611 9.94663 29.035C10.2648 29.615 11.022 29.7269 11.3731 30.2763C11.519 30.5356 11.5068 30.849 11.6228 31.1204C11.7114 31.308 11.9135 31.4111 12.1109 31.4434C12.5362 31.5208 12.9864 31.5231 13.3803 31.7213C13.7678 31.9194 13.8073 32.4841 14.2462 32.6178C14.591 32.7071 14.9075 32.472 15.2458 32.4374C15.6212 32.3342 16.0095 32.4075 16.3703 32.53C16.8133 32.6774 17.3344 32.671 17.7211 32.3834C18.2141 32.0169 18.6587 31.5739 19.2233 31.3129C19.8073 31.0174 20.4968 30.994 21.0582 30.6477C21.3707 30.4583 21.5101 30.099 21.5833 29.7584C21.7372 29.031 21.9281 28.294 22.33 27.6592C22.5419 27.3177 22.8947 27.0761 23.0525 26.6991C23.3233 26.0595 23.3216 25.3507 23.4892 24.6846C23.5786 24.2923 23.9434 23.9806 23.8726 23.5529C23.7856 23.1993 23.6124 22.8715 23.4424 22.5517C23.2532 22.2029 22.9149 21.9282 22.5113 21.8872C21.6438 21.8155 20.7804 21.9734 19.9201 22.0579C19.3111 22.1063 18.6443 22.0225 18.157 21.6246C17.7622 21.3112 17.5891 20.8127 17.5141 20.3309C17.4038 20.7515 17.4819 21.2227 17.7107 21.5923ZM23.7179 22.6701C23.7002 22.7933 23.7509 22.8497 23.8694 22.8385C24.0287 22.7977 24.0927 22.6434 24.1505 22.5042C24.1539 22.496 24.1572 22.488 24.1605 22.48C24.1634 22.4732 24.1662 22.4665 24.169 22.4599C24.1366 22.473 24.1038 22.4855 24.0709 22.498C23.9478 22.5448 23.8241 22.5919 23.7179 22.6701ZM23.6438 24.7676C23.6463 24.8027 23.6507 24.8601 23.6549 24.9122C23.6574 24.9436 23.6597 24.9732 23.6616 24.9947C23.9555 25.1332 24.2608 24.919 24.4589 24.712C24.3523 24.7263 24.2439 24.7224 24.1357 24.7185C23.9684 24.7125 23.8018 24.7065 23.6438 24.7676ZM13.5648 25.5722C13.2862 25.8034 13.3732 26.2948 13.7284 26.3987C13.7525 26.7523 13.5721 27.1019 13.291 27.3104C13.1846 27.3975 12.9897 27.3934 12.9551 27.2364C12.941 27.1764 12.9305 27.1147 12.9201 27.053C12.8876 26.8611 12.8549 26.6684 12.711 26.5227C12.6362 27.3467 12.7481 28.1868 13.0106 28.9706C13.0133 28.9439 13.0154 28.9157 13.0175 28.8867C13.0314 28.6989 13.0478 28.4758 13.2515 28.4124C13.4872 28.3579 13.7149 28.4155 13.9431 28.4732C14.14 28.523 14.3373 28.5729 14.5403 28.5509C14.6833 28.5366 14.8146 28.4825 14.9462 28.4283C15.0458 28.3872 15.1456 28.3461 15.2507 28.3221C15.3349 28.3106 15.4181 28.3281 15.5013 28.3456C15.5981 28.366 15.6949 28.3863 15.7928 28.3608C15.8455 28.2984 15.8939 28.2287 15.9427 28.1584C16.0806 27.9599 16.2216 27.7568 16.4702 27.7027C16.7319 27.6519 16.9618 27.7822 17.1846 27.9086C17.2519 27.9467 17.3186 27.9845 17.3853 28.0168C17.1057 27.5182 16.4558 27.2935 15.9161 27.4401C15.7703 27.4696 15.6616 27.5651 15.5529 27.6604C15.4393 27.76 15.3258 27.8596 15.1702 27.8839C14.9342 27.9207 14.6943 27.9042 14.4566 27.8878C14.4079 27.8844 14.3593 27.8811 14.3108 27.8782C14.2512 27.6736 14.4742 27.5279 14.6378 27.4618C15.0929 27.287 15.5303 26.9689 15.7002 26.4953C15.7433 26.393 15.7518 26.2836 15.7603 26.1746C15.768 26.0758 15.7756 25.9773 15.8089 25.8847C16.0118 25.7651 16.2267 25.8466 16.4352 25.9257C16.5173 25.9568 16.5983 25.9875 16.6773 26.0055C16.5049 25.759 16.1915 25.664 15.9032 25.6728C15.5253 25.664 15.1025 25.7849 14.8931 26.124C14.9124 26.1496 14.9474 26.1713 14.9834 26.1936C15.0571 26.2393 15.1346 26.2873 15.088 26.3761C14.8731 26.7372 14.5175 26.9744 14.1719 27.2048C14.1083 27.2473 14.0449 27.2895 13.9829 27.3322C14.0385 27.1663 14.1298 27.013 14.221 26.8598C14.369 26.6113 14.5167 26.3632 14.5113 26.0627C14.4784 25.9375 14.3632 25.9144 14.2436 25.8904C14.1431 25.8703 14.0395 25.8495 13.9789 25.7671C14.111 25.446 14.4375 25.3425 14.7422 25.2459C14.7867 25.2318 14.8308 25.2178 14.8737 25.2033C14.4211 25.2235 13.933 25.2871 13.5648 25.5722ZM9.03082 27.3274C8.42835 27.7277 8.13997 28.4542 8.0852 29.1535C8.27887 28.7377 8.6868 28.5636 9.08739 28.3927C9.09641 28.3888 9.10544 28.385 9.11444 28.3811C9.24949 28.3234 9.38313 28.2655 9.50685 28.1981C9.73805 28.0943 9.74772 27.8123 9.71791 27.5956C9.705 27.2774 9.25957 27.1397 9.03082 27.3274ZM22.1852 28.1731C22.074 28.3181 22.2004 28.4986 22.3527 28.5412C22.7087 28.6523 23.0857 28.5018 23.3885 28.314C23.1445 28.314 22.923 28.2247 22.7152 28.1079C22.5516 28.012 22.2858 27.9685 22.1852 28.1731ZM10.8633 30.2005C10.2705 30.4921 9.8911 31.1325 9.85406 31.7849C10.0464 31.4283 10.4226 31.2837 10.7834 31.1451C10.8577 31.1165 10.9314 31.0882 11.0027 31.0584C11.1887 30.994 11.3756 30.8635 11.3667 30.6427C11.4352 30.3543 11.1355 30.1055 10.8633 30.2005ZM18.997 31.929C19.175 32.3141 19.5085 32.6468 19.9136 32.7885C19.7824 32.5751 19.6736 32.3431 19.6527 32.0893C19.6467 32.0523 19.6422 32.0124 19.6377 31.9711C19.6151 31.7684 19.5893 31.536 19.3611 31.4844C19.1002 31.4063 18.8867 31.6866 18.997 31.929ZM12.6386 31.971C12.281 32.4124 12.169 33.0076 12.2077 33.5634C12.3044 33.1794 12.6285 32.9798 12.9468 32.7838C13.0659 32.7104 13.1842 32.6376 13.2894 32.5557C13.5689 32.385 13.511 31.9162 13.2395 31.7688C13.0196 31.7172 12.7796 31.7954 12.6386 31.971ZM15.5286 32.6306C15.1332 33.039 15.0897 33.6738 15.1815 34.2069C15.2557 33.8952 15.4812 33.6947 15.7073 33.4937C15.8322 33.3827 15.9573 33.2715 16.0571 33.1414C16.2689 32.8215 15.8371 32.4245 15.5286 32.6306Z" fill="#59B8C5"/>
<path d="M19.7735 11.1534C19.9223 11.1991 20.0755 11.2269 20.2288 11.2548C20.3401 11.2751 20.4515 11.2954 20.5613 11.3225C20.6756 11.4101 20.7165 11.5487 20.7564 11.6837C20.7693 11.7276 20.7821 11.771 20.7973 11.8122C20.3269 11.8719 20.0216 11.486 19.7735 11.1534Z" fill="#59B8C5"/>
<path fill-rule="evenodd" clip-rule="evenodd" d="M24.1505 22.5042C24.1539 22.496 24.1572 22.488 24.1605 22.48C24.1634 22.4732 24.1662 22.4665 24.169 22.4599C24.1629 22.4743 24.1567 22.4893 24.1505 22.5042Z" fill="#59B8C5"/>
</svg>
