<svg width="37" height="36" viewBox="0 0 37 36" fill="none" xmlns="http://www.w3.org/2000/svg">
<path d="M18.8359 36C18.657 36 18.4788 35.9967 18.301 35.9916L21.9796 25.8818H27.042C27.9306 25.8818 28.906 25.1987 29.21 24.3641L33.2009 13.402C33.8539 11.6072 32.8259 10.1389 30.9161 10.1389H23.8929L18 26.3319H17.9978L14.6571 35.5112C6.73126 33.627 0.835938 26.5023 0.835938 18C0.835938 9.74289 6.39601 2.78508 13.9762 0.664499L10.5291 10.1389H10.5281L4.79751 25.8818L8.61234 25.8821L13.4857 12.5046H16.3527L11.4793 25.8821L15.2927 25.8828L19.8342 13.402C20.4876 11.6072 19.4595 10.1389 17.5515 10.1389H14.3447L18.0269 0.0189166C18.2953 0.00699998 18.5647 0 18.8359 0C28.777 0 36.8359 8.05881 36.8359 18C36.8359 27.941 28.777 36 18.8359 36ZM29.7269 12.495H26.8606L22.8467 23.5081H25.713L29.7269 12.495Z" fill="#59B8C5"/>
</svg>
