<svg width="93" height="14" viewBox="0 0 93 14" fill="none" xmlns="http://www.w3.org/2000/svg">
<path d="M91.5402 5.94363C91.4251 4.74514 91.1669 2.95286 90.2113 1.90717C89.4472 1.07161 88.2242 0.558594 87.0895 0.558594H87.0792C85.9467 0.558594 84.722 1.07161 83.9574 1.90717C83.0023 2.95286 82.7447 4.74514 82.6296 5.94363C82.5608 6.86215 82.7649 8.18836 82.9641 8.70083C83.4744 10.0041 84.2952 11.0973 85.109 12.1833C85.5723 12.8011 86.4041 13.4386 87.0792 13.4386H87.0895C87.7668 13.4386 88.598 12.8011 89.0603 12.1833C89.8751 11.0973 90.6954 10.0041 91.2051 8.70083C91.4054 8.18836 91.609 6.86215 91.5402 5.94363ZM83.2228 7.20162C83.5415 7.30204 83.9732 7.30804 84.3253 7.42374C85.5647 7.82925 86.2971 9.01737 86.737 10.7393C85.3617 10.921 83.0646 9.73232 83.2228 7.20162ZM87.4841 10.7393C87.9246 9.01737 88.6575 7.82925 89.8942 7.42374C90.249 7.30804 90.6807 7.30204 90.9977 7.20162C91.1555 9.73232 88.86 10.921 87.4841 10.7393ZM8.70164 8.81325L8.10894 7.64532H3.53326L2.93947 8.81325H0.534297L4.20182 1.89735H7.47531L11.0937 8.81325H8.70164ZM7.36889 6.12592L6.03559 3.5068H5.61535L4.2826 6.12646L7.36889 6.12592ZM11.4059 1.89735H13.6179V7.04553H18.5385V8.81325H11.4059V1.89735ZM19.022 8.81325H21.2329V1.89626H19.022V8.81325ZM22.2044 1.89735H29.8696V3.51827H24.2793V4.51701H29.5852V6.03587H24.2788V7.14759H29.9034V8.81325H22.2044V1.89735ZM30.5649 1.89735H34.2586L37.8808 7.0559H38.0992L38.0478 1.89735H40.1916V8.81325H36.529L32.8904 3.65416H32.6634L32.7092 8.81325H30.5649V1.89735ZM40.5376 1.89735H42.6852L44.5397 7.07882H44.9299L46.4952 1.89735H49.039L50.6157 7.07937H51.0114L52.8751 1.89735H55.11L52.4194 8.81325H49.1672L47.7777 3.74312L46.4051 8.81325H43.1409L40.5376 1.89735ZM61.5255 8.81325L60.9333 7.64532H56.3582L55.7655 8.81325H53.3587L57.0262 1.89735H60.3002L63.9175 8.81325H61.5255ZM60.1938 6.12592L58.8605 3.5068H58.4403L57.1081 6.12646L60.1938 6.12592ZM64.2319 8.81325V1.89735H69.3266C70.5218 1.90117 71.2395 1.91372 71.4758 1.93555C71.7121 1.95738 71.9397 2.03543 72.1602 2.17132C72.4238 2.32959 72.6039 2.54844 72.7027 2.82842C72.7993 3.10621 72.8479 3.54555 72.8479 4.14426C72.8479 4.64745 72.8173 5.01748 72.7551 5.25488C72.6918 5.49011 72.575 5.68003 72.4031 5.82248C72.2153 5.9742 71.9359 6.07953 71.5604 6.13629C72.0025 6.16958 72.3185 6.29783 72.5117 6.51505C72.6219 6.64767 72.6929 6.80758 72.7245 6.99368C72.754 7.18143 72.7693 7.57383 72.7693 8.17035V8.81325H70.6948V8.44432C70.6948 8.05956 70.6806 7.78504 70.6517 7.62076C70.6222 7.45758 70.5693 7.33151 70.4913 7.24419C70.4138 7.16232 70.3068 7.11048 70.1704 7.08919C70.0323 7.06736 69.7463 7.0559 69.3108 7.0559H66.3396V8.81325H64.2319ZM66.3396 5.33238H69.3053C69.8205 5.32256 70.1272 5.31328 70.226 5.30509C70.3164 5.29931 70.4041 5.27219 70.482 5.22596C70.5742 5.16606 70.6418 5.07502 70.6725 4.96945C70.7101 4.85484 70.7281 4.68238 70.7281 4.45097C70.7281 4.22339 70.7074 4.05366 70.6654 3.94178C70.6272 3.8345 70.5484 3.7465 70.446 3.69673C70.3617 3.66077 70.2717 3.64025 70.1802 3.63615C69.8868 3.62589 69.5934 3.62079 69.2999 3.62087H66.3396V5.33238ZM73.5699 1.89735H81.2352V3.51827H75.6454V4.51701H80.9519V6.03587H75.6454V7.14759H81.2695V8.81325H73.5694L73.5699 1.89735ZM0.496094 10.1378H0.856297V11.2703H3.32205V10.1378H3.68117V12.8197H3.32205V11.5906H0.856297V12.8197H0.496094V10.1378Z" fill="#59B8C5"/>
<path d="M4.53692 12.8197V10.1378V12.8197Z" fill="#59B8C5"/>
<path d="M6.86023 11.4591H8.61977C8.61704 11.875 8.60285 12.1446 8.57829 12.2696C8.55155 12.4076 8.50789 12.5108 8.4484 12.5796C8.38946 12.6494 8.29941 12.7045 8.1777 12.7455C8.01179 12.799 7.64013 12.8262 7.06162 12.8262C6.51804 12.8262 6.13273 12.8082 5.90733 12.7728C5.7114 12.7406 5.56841 12.656 5.48109 12.5168C5.38231 12.3624 5.33373 12.0158 5.33373 11.4793C5.33373 11.1076 5.36048 10.8168 5.41341 10.6083C5.43362 10.5166 5.4782 10.432 5.54246 10.3635C5.60672 10.295 5.68828 10.2451 5.77853 10.2191C5.97064 10.1575 6.34721 10.1264 6.91044 10.1264C7.096 10.1264 7.30339 10.1313 7.53261 10.1416C7.76292 10.1509 7.9201 10.1618 8.0047 10.1744C8.17552 10.1979 8.31578 10.2644 8.42275 10.3736C8.48824 10.4402 8.53245 10.5171 8.55919 10.6055C8.58484 10.694 8.59958 10.8184 8.60231 10.9783H8.23228C8.22846 10.7682 8.19953 10.6361 8.1455 10.5815C8.10366 10.5435 8.05209 10.5178 7.99651 10.5073C7.89534 10.4856 7.79258 10.4721 7.68925 10.4669C7.4503 10.4525 7.21094 10.446 6.97157 10.4473C6.59499 10.4473 6.32484 10.4571 6.15893 10.4773C5.99411 10.4964 5.88495 10.5319 5.83092 10.5826C5.78126 10.6301 5.74633 10.7152 5.72723 10.8375C5.70867 10.9608 5.69939 11.1573 5.69939 11.4275C5.69939 11.8313 5.71522 12.096 5.74797 12.2215C5.76332 12.2862 5.79796 12.3446 5.8473 12.3891C5.8915 12.424 5.95863 12.4491 6.04814 12.4644C6.22278 12.4917 6.60754 12.5059 7.1997 12.5059C7.52715 12.5059 7.77002 12.4922 7.92556 12.4671C8.06746 12.4431 8.15751 12.3913 8.19571 12.3132C8.23392 12.2352 8.25575 12.0556 8.26011 11.7795H6.86023V11.4591ZM9.22066 10.1378H9.58086V11.2703H12.0461V10.1378H12.4063V12.8197H12.0461V11.5906H9.58086V12.8197H9.22066V10.1378Z" fill="#59B8C5"/>
<path d="M13.6692 12.0431V11.6872V12.0431Z" fill="#59B8C5"/>
<path d="M14.9288 12.8197V10.1378H16.6294C17.0758 10.1471 17.3443 10.158 17.4371 10.1695C17.5215 10.1811 17.6019 10.2125 17.6718 10.2612C17.7438 10.3103 17.7973 10.373 17.8328 10.4451C17.8912 10.5635 17.9196 10.7393 17.9196 10.9696C17.9196 11.1502 17.9037 11.2932 17.8732 11.3969C17.848 11.4927 17.7948 11.5788 17.7204 11.6441C17.6489 11.7058 17.5736 11.7478 17.4955 11.7697C17.4169 11.7915 17.2963 11.804 17.1315 11.8106C17.0731 11.8117 16.905 11.8128 16.6294 11.8133H15.289V12.8197H14.9288ZM15.289 11.4929H16.6294C16.9585 11.4924 17.1626 11.4869 17.2428 11.4788C17.3165 11.4718 17.3866 11.4437 17.4448 11.398C17.4878 11.3612 17.5177 11.3114 17.5299 11.2561C17.5457 11.1966 17.5539 11.1049 17.5539 10.9805C17.5539 10.844 17.5463 10.7463 17.5326 10.6885C17.5221 10.6363 17.4935 10.5896 17.4518 10.5564C17.3933 10.5148 17.3247 10.4894 17.2532 10.4827C17.0456 10.4674 16.8375 10.4594 16.6294 10.4587H15.289V11.4929ZM18.438 12.8197V10.1378H21.0686V10.4587H18.7982V11.2703H20.972V11.5906H18.7982V12.5004H21.0686V12.8197H18.438ZM21.5958 12.8197V10.1378H23.2713C23.7243 10.1433 24.0136 10.1542 24.1402 10.1717C24.3618 10.2006 24.5146 10.3005 24.5997 10.4718C24.6559 10.5853 24.6843 10.7447 24.6843 10.9505C24.6843 11.106 24.6761 11.2244 24.6581 11.3041C24.6455 11.3757 24.6143 11.4427 24.5675 11.4984C24.4982 11.5759 24.389 11.6316 24.2411 11.6621C24.3452 11.6762 24.4421 11.7226 24.5184 11.7948C24.5692 11.8495 24.6033 11.9177 24.6166 11.9912C24.6314 12.0665 24.6395 12.2177 24.6395 12.4426V12.8197H24.2783V12.5643C24.2783 12.3476 24.2733 12.197 24.2646 12.114C24.2379 11.9448 24.1418 11.8466 23.9759 11.8182C23.9175 11.8092 23.8587 11.8035 23.7996 11.8013C23.6235 11.798 23.4474 11.7964 23.2713 11.7964H21.956V12.8197H21.5958ZM21.956 11.4766H23.2713C23.6195 11.4766 23.8427 11.4728 23.941 11.4624C24.0392 11.452 24.1194 11.4269 24.1811 11.3887C24.2722 11.3276 24.3186 11.1813 24.3186 10.945C24.3186 10.7431 24.2755 10.6126 24.1909 10.5521C24.1364 10.5133 24.049 10.4871 23.9328 10.4762C23.8149 10.4642 23.5944 10.4587 23.2713 10.4587H21.956V11.4766ZM25.2879 12.8197V10.1378H27.811V10.4587H25.6481V11.2992H27.7133V11.619H25.6481V12.8197H25.2879ZM30.0055 10.1264C30.4639 10.1264 30.7876 10.1416 30.9742 10.1711C31.1625 10.2011 31.3006 10.2584 31.3857 10.3436C31.4413 10.3972 31.4837 10.463 31.5096 10.5357C31.5374 10.6094 31.5587 10.7131 31.5746 10.8468C31.5947 11.017 31.604 11.2304 31.604 11.488C31.604 11.8199 31.5887 12.0704 31.5582 12.2401C31.5276 12.4098 31.4736 12.5348 31.3977 12.6134C31.3197 12.6969 31.1903 12.7553 31.0102 12.7859C30.8301 12.8164 30.5349 12.8323 30.125 12.8323C29.9236 12.8323 29.6999 12.8279 29.4543 12.8219C29.2928 12.8194 29.1313 12.8128 28.9702 12.8022C28.8623 12.7944 28.7559 12.7728 28.6536 12.7378C28.575 12.7062 28.5045 12.6574 28.4473 12.5948C28.3677 12.5113 28.3142 12.3935 28.288 12.2412C28.2607 12.0895 28.2476 11.8313 28.2476 11.4689C28.2476 11.0416 28.2765 10.7387 28.3354 10.557C28.4064 10.3447 28.5679 10.2202 28.8212 10.1809C29.0526 10.1466 29.4483 10.128 30.0055 10.1264ZM29.7986 10.4473C29.4242 10.4473 29.1503 10.462 28.974 10.492C28.8725 10.51 28.7988 10.5395 28.7535 10.5804C28.7077 10.6225 28.6766 10.6885 28.658 10.7824C28.628 10.933 28.6132 11.1524 28.6132 11.4411C28.6132 11.7391 28.6214 11.9558 28.6378 12.0917C28.6547 12.2281 28.6842 12.3192 28.7279 12.3645C28.7611 12.4038 28.8103 12.43 28.8736 12.448C28.9385 12.465 29.04 12.4781 29.1787 12.4873C29.4073 12.5037 29.6731 12.5113 29.9777 12.5113C30.4088 12.5113 30.7226 12.4939 30.9185 12.4584C31.0725 12.4317 31.1641 12.3405 31.1931 12.1833C31.2231 12.0158 31.2384 11.7871 31.2384 11.4968C31.2384 11.1431 31.2253 10.8937 31.2002 10.7491C31.1734 10.6017 31.0708 10.5144 30.8951 10.4871C30.7794 10.4695 30.6628 10.4591 30.5458 10.456C30.4159 10.4505 30.167 10.4484 29.7986 10.4473ZM32.2235 12.8197V10.1378H33.8968C34.3514 10.1433 34.6406 10.1542 34.7667 10.1717C34.9883 10.2006 35.1411 10.3005 35.2268 10.4718C35.283 10.5853 35.3114 10.7447 35.3114 10.9505C35.3114 11.106 35.3032 11.2244 35.2852 11.3041C35.2732 11.3759 35.2419 11.4431 35.1946 11.4984C35.1247 11.5759 35.0161 11.6316 34.8671 11.6621C34.9714 11.6761 35.0685 11.7225 35.1449 11.7948C35.196 11.8494 35.2301 11.9176 35.2432 11.9912C35.2584 12.0665 35.265 12.2177 35.265 12.4426V12.8197H34.9048V12.5643C34.9048 12.3476 34.9004 12.197 34.8906 12.114C34.865 11.9448 34.7689 11.8466 34.6024 11.8182C34.5441 11.8092 34.4852 11.8035 34.4262 11.8013C34.2497 11.798 34.0732 11.7963 33.8968 11.7964H32.5831V12.8197H32.2235ZM32.5837 11.4766H33.8968C34.2461 11.4766 34.4693 11.4728 34.5681 11.4624C34.6663 11.452 34.7449 11.4269 34.8077 11.3887C34.8999 11.3276 34.9463 11.1813 34.9463 10.945C34.9463 10.7431 34.9032 10.6126 34.8169 10.5521C34.7624 10.5133 34.6761 10.4871 34.5588 10.4762C34.4414 10.4642 34.221 10.4587 33.8968 10.4587H32.5831L32.5837 11.4766ZM35.9156 10.1378H36.6332L38.0877 12.4126L39.5181 10.1378H40.2391V12.8197H39.8789V10.4751H39.7304L38.235 12.8197H37.9441L36.4335 10.4751H36.2763V12.8197H35.9156V10.1378ZM43.8853 12.8197L43.5671 12.2543H41.3972L41.0768 12.8197H40.6713L42.1929 10.1378H42.7654L44.2832 12.8197H43.8853ZM43.3963 11.9345L42.5608 10.4587H42.4172L41.5702 11.9345H43.3963ZM44.7122 10.1378H45.3103L47.6549 12.4873H47.7373V10.1378H48.0981V12.8197H47.4901L45.1509 10.4751H45.0729V12.8197H44.7127L44.7122 10.1378ZM51.5031 11.8995H51.8513C51.8415 12.143 51.8273 12.3116 51.8076 12.4027C51.765 12.603 51.633 12.7247 51.4092 12.77C51.228 12.8077 50.906 12.8257 50.4449 12.8257C49.8456 12.8257 49.4396 12.805 49.2278 12.7624C49.028 12.7231 48.8922 12.6178 48.8234 12.448C48.7541 12.2772 48.7197 11.9678 48.7197 11.5181C48.7197 11.0896 48.7448 10.7785 48.7983 10.5848C48.8605 10.355 49.022 10.2213 49.2829 10.1831C49.5351 10.1455 49.904 10.1264 50.3897 10.1264C50.8531 10.1264 51.1849 10.1498 51.3857 10.1962C51.4856 10.218 51.5713 10.2606 51.6444 10.3272C51.7131 10.386 51.7616 10.4648 51.7831 10.5526C51.8027 10.6328 51.8136 10.79 51.8158 11.0247H51.4829V10.9319C51.4829 10.8009 51.4692 10.7098 51.4447 10.6536C51.4143 10.5943 51.362 10.5493 51.299 10.528C51.1669 10.4735 50.858 10.4473 50.3728 10.4473C50.0208 10.4473 49.7566 10.4571 49.5793 10.4751C49.4024 10.4942 49.2878 10.5253 49.2349 10.5662C49.1825 10.6088 49.1454 10.6956 49.1208 10.8271C49.0939 11.0085 49.082 11.1917 49.0854 11.3751C49.0854 11.4853 49.0897 11.6272 49.099 11.8019C49.1088 11.9765 49.1175 12.0971 49.1257 12.1626C49.1399 12.2663 49.1743 12.3416 49.2251 12.3891C49.2769 12.4349 49.3582 12.4639 49.4701 12.4748C49.6726 12.4955 49.9629 12.5059 50.3401 12.5059C50.4547 12.5059 50.6053 12.5026 50.7925 12.4955C50.9781 12.4868 51.0981 12.4808 51.1483 12.4737C51.2482 12.4611 51.3224 12.4409 51.3699 12.4137C51.4178 12.3879 51.4537 12.3444 51.4698 12.2925C51.4873 12.2456 51.4982 12.1135 51.5031 11.8995ZM52.4156 12.8197V10.1378H55.0462V10.4587H52.7769V11.2703H54.9496V11.5906H52.7769V12.5004H55.0462V12.8197H52.4156ZM56.7757 11.9792H57.1233C57.1233 12.0103 57.1233 12.03 57.1261 12.0393C57.1277 12.191 57.1397 12.293 57.1572 12.3443C57.1763 12.3956 57.2194 12.4349 57.2822 12.4628C57.3826 12.5064 57.7084 12.5294 58.2591 12.5294C58.6597 12.5294 58.9467 12.5081 59.1208 12.4693C59.2917 12.4317 59.3784 12.2979 59.3784 12.0698C59.3784 11.9541 59.3642 11.8668 59.3364 11.8089C59.3227 11.7795 59.303 11.7533 59.2786 11.732C59.2541 11.7107 59.2255 11.6947 59.1945 11.6851C59.1036 11.6575 59.009 11.6437 58.914 11.6441C58.5231 11.6374 58.1321 11.6353 57.7411 11.6376C57.5185 11.6376 57.3395 11.6179 57.2058 11.5754C57.0852 11.5426 56.9777 11.4734 56.8979 11.3772C56.8117 11.2708 56.7702 11.1071 56.7702 10.8861C56.7702 10.6437 56.8374 10.4686 56.9722 10.3599C57.0387 10.3054 57.1108 10.2644 57.1905 10.2371C57.2702 10.2099 57.3831 10.1869 57.5261 10.17C57.7635 10.1416 58.0451 10.1264 58.3731 10.1264C58.6749 10.1264 58.908 10.1422 59.0734 10.1727C59.2387 10.2044 59.3675 10.2568 59.4587 10.3327C59.5304 10.3885 59.5847 10.4637 59.6153 10.5493C59.6437 10.6328 59.659 10.7605 59.6617 10.933H59.3042V10.8915C59.3042 10.7589 59.2889 10.6716 59.2606 10.6268C59.218 10.5559 59.1274 10.5068 58.986 10.4751C58.8458 10.4451 58.6357 10.4303 58.3562 10.4303C58.0097 10.4303 57.7488 10.4429 57.5747 10.4686C57.4011 10.4958 57.2833 10.5395 57.2227 10.5995C57.1648 10.6574 57.1359 10.7523 57.1359 10.8861C57.1359 11.0072 57.1506 11.0935 57.1796 11.1442C57.2079 11.1961 57.2636 11.2343 57.3477 11.261C57.4694 11.2998 57.704 11.321 58.0522 11.3238C58.1701 11.3243 58.461 11.3265 58.926 11.3276C59.1187 11.3287 59.266 11.3478 59.3697 11.3822C59.4703 11.4164 59.5581 11.4806 59.6213 11.5661C59.7032 11.6763 59.7441 11.8335 59.7441 12.0387C59.7441 12.2341 59.7103 12.3885 59.6437 12.5015C59.5634 12.6325 59.4161 12.7198 59.1989 12.7646C58.9811 12.8099 58.5925 12.8323 58.0304 12.8323C57.7335 12.8323 57.5141 12.8224 57.3739 12.805C57.257 12.7949 57.1432 12.7617 57.0393 12.7073C56.9482 12.6605 56.8754 12.5846 56.8325 12.4917C56.7943 12.4038 56.7757 12.2739 56.7757 12.1004V11.9792ZM59.9646 10.1378H60.4481L61.7449 11.4247L63.0001 10.1378H63.4995L61.9255 11.7233V12.8202H61.5653V11.7233L59.9646 10.1378ZM63.75 11.9792H64.0971C64.0971 12.0103 64.0987 12.03 64.0998 12.0393C64.1026 12.191 64.1129 12.293 64.132 12.3443C64.1511 12.3956 64.1926 12.4349 64.257 12.4628C64.3563 12.5064 64.6822 12.5294 65.2339 12.5294C65.6334 12.5294 65.9199 12.5081 66.0946 12.4693C66.2654 12.4317 66.3522 12.2979 66.3522 12.0698C66.3522 11.9541 66.3375 11.8668 66.3102 11.8089C66.2965 11.7797 66.2769 11.7536 66.2527 11.7323C66.2284 11.711 66.2001 11.6949 66.1694 11.6851C66.0782 11.6575 65.9835 11.6437 65.8883 11.6441C65.4972 11.6374 65.106 11.6353 64.7149 11.6376C64.4922 11.6376 64.3132 11.6179 64.1801 11.5754C64.0594 11.5429 63.9518 11.4736 63.8722 11.3772C63.786 11.2708 63.744 11.1071 63.744 10.8861C63.744 10.6437 63.8117 10.4686 63.9459 10.3599C64.012 10.3054 64.0851 10.2644 64.1648 10.2371C64.2445 10.2099 64.3563 10.1869 64.5004 10.17C64.7378 10.1416 65.0194 10.1264 65.3464 10.1264C65.6492 10.1264 65.8818 10.1422 66.0477 10.1727C66.213 10.2044 66.3418 10.2568 66.433 10.3327C66.5047 10.3886 66.559 10.4637 66.5896 10.5493C66.618 10.6328 66.6333 10.7605 66.636 10.933H66.2785V10.8915C66.2785 10.7589 66.2638 10.6716 66.2349 10.6268C66.1928 10.5559 66.1006 10.5068 65.9603 10.4751C65.819 10.4451 65.6105 10.4303 65.33 10.4303C64.9834 10.4303 64.7231 10.4429 64.549 10.4686C64.3754 10.4958 64.2587 10.5395 64.197 10.5995C64.1391 10.6574 64.1096 10.7523 64.1096 10.8861C64.1096 11.0072 64.1244 11.0935 64.1533 11.1442C64.1817 11.1961 64.2384 11.2343 64.3225 11.261C64.4437 11.2998 64.6783 11.321 65.0265 11.3238C65.1439 11.3243 65.4359 11.3265 65.9003 11.3276C66.0924 11.3287 66.2409 11.3478 66.344 11.3822C66.4445 11.4165 66.532 11.4807 66.5951 11.5661C66.6769 11.6763 66.7184 11.8335 66.7184 12.0387C66.7184 12.2341 66.684 12.3885 66.618 12.5015C66.5378 12.6325 66.3904 12.7198 66.1726 12.7646C65.9554 12.8099 65.5668 12.8323 65.0047 12.8323C64.7073 12.8323 64.489 12.8224 64.3476 12.805C64.2305 12.7949 64.1166 12.7617 64.0125 12.7073C63.9222 12.6596 63.8498 12.584 63.8062 12.4917C63.7691 12.4038 63.75 12.2739 63.75 12.1004V11.9792ZM67.0983 10.1378H70.1463V10.4587H68.8087V12.8197H68.4485V10.4587H67.0983V10.1378ZM70.6173 12.8197V10.1378H73.2479V10.4587H70.9775V11.2703H73.1508V11.5906H70.9781V12.5004H73.2485V12.8197H70.6173ZM73.7751 10.1378H74.4928L75.9467 12.4126L77.3777 10.1378H78.0986V12.8197H77.7379V10.4751H77.5889L76.0935 12.8197H75.8032L74.292 10.4751H74.1359V12.8197H73.7751V10.1378ZM78.6968 11.9792H79.0444C79.0444 12.0103 79.045 12.03 79.0461 12.0393C79.0488 12.191 79.0597 12.293 79.0788 12.3443C79.0974 12.3956 79.14 12.4349 79.2033 12.4628C79.3037 12.5064 79.629 12.5294 80.1807 12.5294C80.5802 12.5294 80.8673 12.5081 81.0409 12.4693C81.2128 12.4317 81.299 12.2979 81.299 12.0698C81.299 11.9541 81.2854 11.8668 81.2581 11.8089C81.2441 11.7797 81.2243 11.7536 81.1999 11.7323C81.1755 11.711 81.147 11.6949 81.1162 11.6851C81.025 11.6575 80.9303 11.6437 80.8351 11.6441C80.4442 11.6374 80.0532 11.6353 79.6623 11.6376C79.439 11.6376 79.2606 11.6179 79.1269 11.5754C79.0062 11.5428 78.8987 11.4736 78.8191 11.3772C78.7328 11.2708 78.6903 11.1071 78.6903 10.8861C78.6903 10.6437 78.7579 10.4686 78.8927 10.3599C78.9577 10.3054 79.0319 10.2644 79.111 10.2371C79.1907 10.2099 79.3037 10.1869 79.4472 10.17C79.6841 10.1416 79.9668 10.1264 80.2932 10.1264C80.5955 10.1264 80.8296 10.1422 80.995 10.1727C81.1598 10.2044 81.2886 10.2568 81.3792 10.3327C81.4556 10.3949 81.5086 10.4669 81.5375 10.5493C81.5648 10.6328 81.5801 10.7605 81.5823 10.933H81.2253V10.8915C81.2253 10.7589 81.2111 10.6716 81.1817 10.6268C81.1402 10.5559 81.0479 10.5068 80.9077 10.4751C80.7658 10.4451 80.5568 10.4303 80.2779 10.4303C79.9308 10.4303 79.6694 10.4429 79.4958 10.4686C79.3233 10.4958 79.2044 10.5395 79.1427 10.5995C79.0854 10.6574 79.0565 10.7523 79.0565 10.8861C79.0565 11.0072 79.0706 11.0935 79.0996 11.1442C79.129 11.1961 79.1858 11.2343 79.2693 11.261C79.391 11.2998 79.6257 11.321 79.9733 11.3238C80.0907 11.3243 80.3821 11.3265 80.8476 11.3276C81.0398 11.3287 81.1871 11.3478 81.2897 11.3822C81.3908 11.4161 81.479 11.4803 81.5424 11.5661C81.6243 11.6763 81.6647 11.8335 81.6647 12.0387C81.6647 12.2341 81.6314 12.3885 81.5653 12.5015C81.4846 12.6325 81.3361 12.7198 81.1189 12.7646C80.9033 12.8099 80.5136 12.8323 79.9515 12.8323C79.6546 12.8323 79.4358 12.8224 79.2944 12.805C79.1775 12.7948 79.0638 12.7616 78.9599 12.7073C78.869 12.6602 78.7963 12.5844 78.753 12.4917C78.7148 12.4038 78.6973 12.2739 78.6973 12.1004L78.6968 11.9792ZM91.9845 1.12564C92.0899 1.12517 92.1944 1.14568 92.2919 1.18597C92.3893 1.22626 92.4778 1.28552 92.5521 1.36032C92.6996 1.50966 92.7819 1.71144 92.7808 1.92136C92.7808 2.02942 92.7606 2.13094 92.7207 2.22699C92.6816 2.32153 92.6235 2.40699 92.5499 2.47804C92.4708 2.55445 92.3829 2.61339 92.2858 2.65432C92.1904 2.69512 92.0877 2.7162 91.984 2.7163C91.8803 2.71639 91.7776 2.6955 91.6821 2.65487C91.5849 2.61418 91.4969 2.55422 91.4234 2.47859C91.3487 2.40636 91.2895 2.31963 91.2494 2.22373C91.2094 2.12782 91.1893 2.02475 91.1904 1.92082C91.1909 1.81516 91.2124 1.71065 91.2535 1.61333C91.2946 1.516 91.3546 1.42779 91.43 1.35377C91.5026 1.279 91.5861 1.22279 91.68 1.18349C91.7767 1.14446 91.8802 1.1248 91.9845 1.12564ZM92.6858 1.92573C92.6858 1.82967 92.6689 1.73962 92.6339 1.65339C92.5992 1.5684 92.5478 1.49117 92.4829 1.42624C92.418 1.3613 92.3407 1.30995 92.2557 1.27518C92.1693 1.23929 92.0765 1.22128 91.9828 1.22224C91.8912 1.22163 91.8003 1.23907 91.7154 1.27354C91.6325 1.30629 91.5588 1.35595 91.4944 1.4209C91.3613 1.55382 91.2858 1.73379 91.2843 1.92191C91.2843 2.01305 91.3023 2.10092 91.3378 2.18497C91.4089 2.35648 91.5445 2.49325 91.7154 2.56591C91.8442 2.61786 91.9853 2.63112 92.1215 2.60407C92.2577 2.57703 92.3831 2.51085 92.4822 2.41364C92.5466 2.34969 92.5977 2.27368 92.6326 2.18996C92.6675 2.10624 92.6856 2.01645 92.6858 1.92573ZM92.0047 1.45419C92.1329 1.45419 92.2284 1.47493 92.2912 1.51586C92.354 1.55734 92.3862 1.61956 92.3862 1.70415C92.3877 1.76323 92.3673 1.82078 92.3289 1.8657C92.2876 1.90971 92.2325 1.93838 92.1728 1.94701L92.3758 2.36016H92.2061L92.0145 1.96939H91.8191V2.36016H91.6679V1.45419H92.0047ZM91.9763 1.55461H91.8191V1.86897H91.9812C92.0702 1.86897 92.134 1.85696 92.1711 1.8335C92.2093 1.80894 92.2279 1.77019 92.2279 1.71616C92.2279 1.65994 92.2083 1.61792 92.1695 1.59281C92.1291 1.56716 92.0647 1.55461 91.9763 1.55461Z" fill="#59B8C5"/>
</svg>
