<svg width="62" height="36" viewBox="0 0 62 36" fill="none" xmlns="http://www.w3.org/2000/svg">
<path fill-rule="evenodd" clip-rule="evenodd" d="M49.7425 7.32203C48.6874 11.2427 47.637 15.1645 46.6081 19.0922C46.0935 21.0558 45.5884 23.0207 44.996 24.9636C44.4206 26.8513 43.7138 28.8662 42.6838 30.5807C41.6094 32.3699 40.2182 33.767 38.2928 34.6615C37.523 35.0188 36.7343 35.264 35.9067 35.4394C34.7325 35.6882 33.553 35.7905 32.3598 35.858C29.4049 36.0246 23.1366 35.9997 20.1826 35.9997L21.9936 29.2879C23.3645 29.2879 24.7351 29.2927 26.1057 29.2547C27.4283 29.2179 28.8837 29.1471 30.1862 28.8392C31.6126 28.5017 32.6889 27.9226 33.6316 26.7621C34.4904 25.705 35.0677 24.386 35.5408 23.1421C36.4049 20.8703 37.2896 17.6176 37.9132 15.2783C38.6186 12.6303 39.2966 9.97562 39.98 7.32203H49.7425ZM61.9459 7.32198L56.6777 26.8474H46.9154L52.1833 7.32198H61.9459ZM29.7517 0H39.5143C38.4915 3.81137 37.4701 7.62301 36.4356 11.4313C35.7146 14.0843 34.9986 16.7385 34.216 19.3745C33.8746 20.5236 33.5338 21.6694 33.0864 22.7851C32.7269 23.6812 32.325 24.4786 31.5819 25.1483C31.0269 25.6484 30.4216 25.9594 29.7168 26.1811C28.8101 26.4665 27.8936 26.5711 26.9567 26.6478C25.6093 26.7582 24.2615 26.7864 22.9119 26.8081C19.8078 26.8581 14.171 26.8511 11.0669 26.8377C9.95156 26.8327 8.83618 26.826 7.7208 26.8056C6.91223 26.7911 6.10449 26.771 5.29704 26.7206C4.75789 26.6865 4.22294 26.6413 3.69021 26.5432C3.32874 26.4768 2.98065 26.3875 2.64149 26.2394C1.52444 25.7513 0.955176 24.7757 0.921985 23.5875C0.90274 22.9075 1.021 22.2599 1.15711 21.6022C1.3504 20.6706 1.5911 19.7519 1.82957 18.832C2.28476 17.0746 3.11788 13.8319 3.76719 12.125C4.27593 10.7873 4.94784 9.45604 6.22443 8.60925C6.93817 8.13593 7.68817 7.88435 8.51515 7.71784C9.1282 7.59456 9.74433 7.52929 10.366 7.48299C11.4072 7.40574 12.4492 7.38147 13.4924 7.36306C14.9748 7.33712 16.4572 7.33154 17.9397 7.32708L21.6376 7.32206H25.3354L24.0183 12.2033C21.8205 12.2033 19.6232 12.1972 17.4254 12.21C16.7838 12.2139 16.1432 12.2092 15.5022 12.251C15.2746 12.2658 15.0523 12.2806 14.8323 12.3576C14.5428 12.458 14.3997 12.6398 14.2725 12.9009C14.0865 13.283 13.9791 13.6861 13.8605 14.0894C13.6795 14.7052 13.5119 15.3247 13.344 15.9444C13.0854 16.8991 12.8269 17.8539 12.5814 18.8122C12.4908 19.167 12.4018 19.5218 12.3254 19.8799C12.2716 20.1309 12.223 20.3811 12.1991 20.6372C12.1728 20.9172 12.1647 21.2536 12.3343 21.5135C12.5067 21.7774 12.7982 21.8387 13.0701 21.878C13.3775 21.9229 13.6854 21.9327 13.9944 21.9419C14.5004 21.9573 15.0063 21.9595 15.5123 21.962C16.8965 21.9687 18.2808 21.969 19.665 21.9603C20.3029 21.9564 20.9402 21.952 21.5775 21.9263C22.0166 21.9087 22.45 21.8937 22.8823 21.7891C23.2109 21.7096 23.4678 21.5846 23.69 21.316C23.8404 21.1342 23.9386 20.9325 24.0284 20.7183C24.2515 20.1873 24.4074 19.6375 24.57 19.0881C25.194 16.9803 25.756 14.8564 26.3302 12.735L28.0454 6.36873L29.7517 0Z" fill="#59B8C5"/>
</svg>
