<svg width="48" height="36" viewBox="0 0 48 36" fill="none" xmlns="http://www.w3.org/2000/svg">
<path d="M1.9368 26.2452C0.194868 27.4064 0.775513 29.6129 4.49164 30.6581C8.3239 31.9355 12.5045 32.2839 16.5691 31.5871C16.8013 31.5871 17.0336 31.471 17.1497 31.471V27.5226L13.2013 28.8C11.6916 29.2645 10.182 29.3806 8.67229 29.0323C7.511 28.6839 7.74326 27.9871 9.1368 27.4064L17.1497 24.6194V20.3226L6.00132 24.1548C4.60777 24.6194 3.21422 25.3161 1.9368 26.2452ZM28.8787 8.82581V20.0903C33.64 22.4129 37.3562 20.0903 37.3562 14.0516C37.3562 7.89677 35.1497 5.10968 28.7626 2.90323C25.3949 1.74194 21.911 0.696774 18.4271 0V33.5613L26.5562 36V7.78065C26.5562 6.50323 26.5562 5.57419 27.4852 5.92258C28.7626 6.27097 28.8787 7.54839 28.8787 8.82581ZM43.9755 23.5742C40.6078 22.4129 37.0078 21.9484 33.5239 22.2968C31.6658 22.4129 29.9239 22.8774 28.2981 23.4581L27.9497 23.5742V28.1032L35.4981 25.3161C37.0078 24.8516 38.5174 24.7355 40.0271 25.0839C41.1884 25.4323 40.9562 26.129 39.5626 26.7097L27.9497 31.0065V35.4194L43.9755 29.4968C45.1368 29.0323 46.182 28.4516 47.111 27.5226C47.9239 26.3613 47.5755 24.7355 43.9755 23.5742Z" fill="#59B8C5"/>
</svg>
