<svg width="85" height="14" viewBox="0 0 85 14" fill="none" xmlns="http://www.w3.org/2000/svg">
<path d="M6.17033 9.56189C6.29511 9.85411 6.25405 10.2292 6.19126 10.4587C6.08661 10.8547 5.81612 11.2717 5.02399 11.2717C4.27452 11.2717 3.81647 10.8338 3.81647 10.1874V9.02011H0.585938V9.93783C0.585938 12.6258 2.69025 13.4388 4.962 13.4388C7.12911 13.4388 8.92107 12.6886 9.21249 10.6881C9.35819 9.64561 9.25435 8.97906 9.19156 8.70777C8.69245 6.18565 4.12801 5.43538 3.7738 4.03868C3.71181 3.78912 3.73274 3.53957 3.75287 3.41398C3.83659 3.03885 4.10708 2.60092 4.85735 2.60092C5.56576 2.60092 5.98276 3.03885 5.98276 3.68447V4.43555H8.98386V3.58062C8.98386 0.954661 6.62919 0.558594 4.92014 0.558594C2.77397 0.558594 1.04399 1.26701 0.710715 3.22642C0.627798 3.76819 0.606063 4.24798 0.731645 4.85255C1.27342 7.29014 5.54564 7.99935 6.17033 9.56189ZM45.241 9.54177C45.3657 9.83318 45.3239 10.2083 45.2619 10.4168C45.1572 10.8129 44.8868 11.209 44.0946 11.209C43.3443 11.209 42.9072 10.771 42.9072 10.1246V8.97906H39.7194V9.89597C39.7194 12.5429 41.8027 13.3551 44.0528 13.3551C46.1997 13.3551 47.9708 12.6258 48.263 10.6253C48.4079 9.60375 48.3032 8.91627 48.2413 8.66591C47.7413 6.16472 43.2196 5.43538 42.8863 4.03948C42.8235 3.78912 42.8444 3.53876 42.8654 3.41398C42.9491 3.03885 43.1986 2.62185 43.9489 2.62185C44.6364 2.62185 45.0534 3.05978 45.0534 3.7054V4.43555H48.0328V3.60155C48.0328 1.01745 45.699 0.600455 44.0117 0.600455C41.9066 0.600455 40.1774 1.30887 39.8441 3.24735C39.7604 3.76819 39.7395 4.24798 39.8651 4.85174C40.4068 7.29094 44.6364 7.99935 45.241 9.54177ZM70.1836 10.6044L70.0169 0.933731H72.9963V12.8133H68.7039L65.6827 2.83035L65.8494 12.8133H62.8901V0.933731H67.3499L70.1836 10.6044ZM16.1509 1.80878L14.4845 12.9389H11.2339L13.4428 0.933731H18.7978L21.0068 12.9389H17.777L16.1509 1.80878ZM33.697 1.80878L31.6129 12.9397H28.5707L26.5082 1.80878L26.4245 12.9389H23.4242L23.6738 0.933731H28.5707L30.0922 10.3122L31.6137 0.933731H36.5098L36.7811 12.9389H33.78L33.697 1.80878ZM55.3262 11.147C56.1594 11.147 56.4307 10.5625 56.4725 10.2711C56.4935 10.1455 56.4935 9.95796 56.4935 9.81225V0.9128H59.5356V9.54257C59.5356 9.77119 59.5147 10.2091 59.5147 10.3339C59.3062 12.5855 57.5344 13.3149 55.3262 13.3149C53.1172 13.3149 51.3462 12.5855 51.1377 10.3339C51.1168 10.2091 51.0958 9.77119 51.1168 9.54257V0.9128H54.1597V9.81225C54.1597 9.95796 54.1597 10.1455 54.1799 10.2711C54.2427 10.5835 54.493 11.147 55.3262 11.147ZM80.4145 11.0214C81.2896 11.0214 81.5818 10.4579 81.6438 10.1455C81.6647 10.0006 81.6856 9.83318 81.6647 9.68667V7.93656H80.4354V6.18565H84.6859V9.41618C84.6859 9.64561 84.6859 9.81225 84.6449 10.2083C84.4364 12.3972 82.5398 13.1676 80.4145 13.1676C78.2893 13.1676 76.3927 12.3972 76.185 10.2083C76.1431 9.81225 76.1431 9.64561 76.1431 9.41618V4.35183C76.1431 4.14333 76.164 3.76819 76.185 3.55969C76.4555 1.30887 78.2683 0.600455 80.4145 0.600455C82.5398 0.600455 84.4154 1.30887 84.6239 3.55969C84.6658 3.93483 84.6449 4.35183 84.6449 4.35183V4.7479H81.6019V4.08054C81.6019 4.08054 81.6019 3.78912 81.5609 3.62168C81.4981 3.35119 81.2694 2.74663 80.3525 2.74663C79.4767 2.74663 79.2271 3.33026 79.1643 3.62248C79.1225 3.78912 79.1225 3.99762 79.1225 4.18519V9.68747C79.1225 9.83318 79.1225 9.99982 79.1434 10.1463C79.2271 10.4796 79.5387 11.0214 80.4145 11.0214Z" fill="#59B8C5"/>
</svg>
