<svg width="37" height="36" viewBox="0 0 37 36" fill="none" xmlns="http://www.w3.org/2000/svg">
<path d="M16.241 35.926C13.4695 35.6605 10.6635 34.6652 8.25306 33.0925C6.23317 31.7747 5.77703 31.2329 5.77703 30.1518C5.77703 27.9801 8.16483 24.1764 12.2502 19.8403C14.5704 17.3777 17.8023 14.4911 18.1519 14.5693C18.8312 14.7212 24.2635 20.02 26.297 22.5143C29.5128 26.4587 30.9912 29.6883 30.2401 31.1282C29.6692 32.2227 26.1266 34.3619 23.5239 35.1838C21.3788 35.8611 18.5617 36.1482 16.241 35.926ZM3.04894 27.8938C1.37046 25.3188 0.522433 22.7837 0.113001 19.1172C-0.022194 17.9065 0.026253 17.2139 0.419995 14.7289C0.910738 11.6317 2.67456 8.04859 4.79395 5.84348C5.69662 4.9043 5.77723 4.88142 6.87752 5.25208C8.21369 5.70221 9.64062 6.68769 11.8536 8.68872L13.1447 9.85623L12.4397 10.7224C9.16673 14.7432 5.71167 20.4426 4.40957 23.9687C3.70169 25.8856 3.41618 27.8099 3.72076 28.611C3.92639 29.1518 3.73751 28.9502 3.04894 27.8938ZM32.5115 28.3318C32.6773 27.5224 32.4676 26.0357 31.9761 24.5364C30.9116 21.2892 27.3536 15.2483 24.0864 11.1411L23.0578 9.84819L24.1706 8.82647C25.6235 7.49239 26.6322 6.69357 27.7206 6.0152C28.5795 5.47988 29.8069 5.00599 30.3344 5.00599C30.6597 5.00599 31.8048 6.19436 32.7292 7.49125C34.1609 9.49987 35.2142 11.9348 35.7478 14.4695C36.0926 16.1073 36.1214 19.613 35.8034 21.2468C35.5424 22.5875 34.9914 24.3267 34.4539 25.5062C34.0511 26.39 33.0494 28.1064 32.6105 28.6649C32.3848 28.9521 32.3846 28.9515 32.5115 28.3318ZM16.5378 4.39281C15.0303 3.62728 12.7047 2.80553 11.42 2.58445C10.9696 2.50694 10.2014 2.46372 9.71276 2.48839C8.65281 2.54191 8.70015 2.48649 10.4005 1.68315C11.8142 1.01526 12.9934 0.622518 14.5941 0.286405C16.3948 -0.0916988 19.7796 -0.0961361 21.5516 0.277283C23.4656 0.680608 25.7194 1.51931 26.9893 2.30085L27.3668 2.53313L26.5008 2.4894C24.7799 2.4025 22.2719 3.09774 19.5792 4.40813C18.7671 4.80338 18.0605 5.11906 18.0091 5.10963C17.9577 5.10021 17.2956 4.77764 16.5378 4.39281Z" fill="#59B8C5"/>
</svg>
