<svg width="75" height="14" viewBox="0 0 75 14" fill="none" xmlns="http://www.w3.org/2000/svg">
<path d="M26.9182 13.4386C24.2681 13.4386 21.8084 12.6435 20.1663 11.1701C18.9254 10.0567 18.3293 8.54376 18.3293 6.98725C18.3293 5.44904 18.9512 3.92619 20.1663 2.81873C21.6905 1.42902 24.3834 0.558594 26.9182 0.558594C29.7234 0.558594 31.9687 1.26515 33.6851 2.82239C34.9064 3.93087 35.4971 5.44699 35.4971 6.98725C35.4971 8.4804 34.8701 10.0704 33.6851 11.1701C32.0871 12.6532 29.5756 13.4386 26.9182 13.4386V11.7396C28.3252 11.7396 29.6297 11.2538 30.5407 10.3477C31.4459 9.44711 31.8676 8.33979 31.8676 6.98725C31.8676 5.69075 31.4126 4.47941 30.5407 3.6201C29.6416 2.73416 28.306 2.23595 26.9182 2.23595C25.5266 2.23595 24.1894 2.72933 23.29 3.6201C22.4229 4.47882 21.967 5.69441 21.967 6.98725C21.967 8.27571 22.4276 9.48969 23.29 10.3477C24.19 11.2433 25.5223 11.7396 26.9182 11.7396V13.4386Z" fill="#59B8C5"/>
<path d="M7.54867 0.564739C6.13116 0.564739 4.52023 0.830009 3.15233 1.44102C1.88948 2.00478 0.855469 2.91588 0.855469 4.42673C0.854738 5.78732 1.71961 6.58401 1.69605 6.56236C2.06403 6.90093 2.65617 7.47756 4.20419 7.81657C4.89626 7.96771 6.37551 8.19977 7.84891 8.35428C9.31074 8.50835 10.7502 8.65466 11.3359 8.80332C11.8016 8.92184 12.5846 9.08337 12.5846 9.96068C12.5846 10.8349 11.7604 11.1018 11.617 11.1591C11.4737 11.2164 10.4849 11.6696 8.70793 11.6696C7.39577 11.6696 5.81849 11.2749 5.24332 11.0695C4.58081 10.8334 3.88537 10.5214 3.2369 9.7295C3.07551 9.53256 2.82122 8.9928 2.82122 8.45787H1.21248V12.965H3.0006C3.0006 12.965 3.0006 12.4706 3.0006 12.3557C3.0006 12.2865 3.08693 12.001 3.38716 12.1371C3.76071 12.3068 4.85676 12.7433 6.00285 12.9827C6.94263 13.1787 7.54867 13.3196 8.71685 13.3196C10.6229 13.3196 11.6471 13.0096 12.355 12.8072C13.022 12.6166 13.8458 12.2735 14.5156 11.7396C14.8778 11.451 15.6728 10.7108 15.6728 9.36766C15.6728 8.07891 14.9812 7.27872 14.7377 7.03525C14.4063 6.7037 14.001 6.44603 13.5789 6.24792C13.2115 6.07512 12.6311 5.86736 12.1564 5.75104C11.2348 5.52469 9.15126 5.24581 8.15441 5.14163C7.10987 5.03233 5.29702 4.88207 4.5732 4.65791C4.35358 4.58988 3.90673 4.37669 3.90673 3.85771C3.90673 3.48812 4.11099 3.17486 4.5154 2.92159C5.15729 2.51966 6.45379 2.26917 7.80574 2.26917C9.40351 2.26361 10.7569 2.6291 11.6178 3.01362C11.9109 3.14428 12.253 3.33244 12.5253 3.55455C12.832 3.80489 13.2637 4.32475 13.4191 5.05033H14.8633V1.12718H13.2509V1.5828C13.2509 1.73043 13.099 1.92167 12.8118 1.76321C12.09 1.38513 10.0495 0.568251 7.54867 0.564739Z" fill="#59B8C5"/>
<path d="M42.8837 1.27773L50.7492 8.37579L50.6687 3.59683C50.6604 2.97002 50.5449 2.70841 49.8673 2.70841C48.9615 2.70841 48.3882 2.70841 48.3882 2.70841V1.2789H55.1139V2.70841C55.1139 2.70841 54.5769 2.70841 53.6707 2.70841C52.9797 2.70841 52.9363 2.92978 52.9274 3.59683L53.0494 12.729H50.7461L41.6874 4.64343L41.6889 10.3813C41.6971 11.0055 41.726 11.2989 42.3687 11.2989C43.2738 11.2989 43.9841 11.2989 43.9841 11.2989V12.7284H37.3792V11.2989C37.3792 11.2989 38.0178 11.2989 38.9231 11.2989C39.4999 11.2989 39.4769 10.7492 39.4769 10.349V3.65097C39.4769 3.21875 39.416 2.70928 38.5108 2.70928H37.2582V1.27773H42.8837Z" fill="#59B8C5"/>
<path d="M62.7985 11.2964C62.8615 11.2964 63.1421 11.288 63.1964 11.2715C63.3518 11.2232 63.4573 11.1123 63.5061 10.9969C63.5268 10.9486 63.537 10.7337 63.537 10.6877C63.537 10.6877 63.5379 8.50352 63.5379 8.42802C63.5379 8.37374 63.5338 8.35004 63.4419 8.22947C63.3403 8.09691 59.3221 3.54314 59.138 3.34283C58.9098 3.09351 58.5089 2.7087 57.899 2.7087C57.4143 2.7087 56.5019 2.7087 56.5019 2.7087V1.27832H64.3883V2.70665C64.3883 2.70665 63.621 2.70665 63.4375 2.70665C63.218 2.70665 63.072 2.9153 63.2594 3.14706C63.2594 3.14706 65.9132 6.32123 65.9383 6.35488C65.9632 6.38824 65.9843 6.39658 66.0178 6.36527C66.051 6.33381 68.7378 3.17647 68.7588 3.1513C68.8866 2.9984 68.8007 2.7087 68.5249 2.7087C68.3408 2.7087 67.549 2.7087 67.549 2.7087V1.27832H74.0132V2.7087C74.0132 2.7087 73.0538 2.7087 72.569 2.7087C72.0449 2.7087 71.8318 2.80527 71.4377 3.25109C71.2575 3.45491 67.1963 8.09062 67.0857 8.2163C67.0276 8.282 67.0331 8.37374 67.0331 8.42802C67.0331 8.51523 67.0331 10.4776 67.0331 10.6868C67.0331 10.7325 67.0434 10.9474 67.0639 10.9957C67.1125 11.1117 67.2183 11.2224 67.3738 11.2703C67.4281 11.2872 67.7049 11.2955 67.7679 11.2955C68.0516 11.2955 69.245 11.2955 69.245 11.2955V12.7255H61.3989V11.2955L62.7985 11.2964Z" fill="#59B8C5"/>
</svg>
