<svg width="37" height="36" viewBox="0 0 37 36" fill="none" xmlns="http://www.w3.org/2000/svg">
<path fill-rule="evenodd" clip-rule="evenodd" d="M18.4512 0C24.4188 0 29.3026 0.378 32.6988 3.76136C36.1021 7.15307 36.4512 12.0414 36.4512 18.0174C36.4512 23.9869 36.106 28.8707 32.7104 32.2637C29.3155 35.6567 24.4259 36 18.4512 36C12.4765 36 7.58624 35.6567 4.19131 32.2637C0.795743 28.8714 0.451172 23.9869 0.451172 18.0174C0.451172 12.0491 0.795743 7.16593 4.19003 3.77486C7.58496 0.3825 12.4758 0 18.4512 0ZM17.206 16.6423C17.206 16.5208 17.105 16.4212 16.981 16.4212H13.9107C13.7847 16.4212 13.6831 16.5208 13.6831 16.6423V24.6709C13.6831 24.7918 13.7847 24.8921 13.9107 24.8921H16.981C17.105 24.8921 17.206 24.7918 17.206 24.6709V16.6423ZM16.3265 11.1086C18.5315 11.1086 20.8368 11.2095 21.9734 12.3474C23.0919 13.4672 23.2126 15.6964 23.2172 17.8613L23.2173 24.6709C23.2173 24.7918 23.1157 24.8921 22.9904 24.8921H20.0686C19.9432 24.8921 19.841 24.7918 19.841 24.6709V17.7442C19.8378 16.5349 19.7684 15.2923 19.1448 14.6668C18.608 14.1287 17.6065 14.0053 16.565 13.9796H11.2679C11.1432 13.9796 11.0416 14.0799 11.0416 14.2007V24.6709C11.0416 24.7918 10.9387 24.8921 10.814 24.8921H7.88967C7.76496 24.8921 7.66403 24.7918 7.66403 24.6709V11.331C7.66403 11.2082 7.76496 11.1086 7.88967 11.1086H16.3265ZM29.237 11.331C29.237 11.2082 29.1342 11.1086 29.0101 11.1086H26.087C25.9617 11.1086 25.8601 11.2082 25.8601 11.331V24.6709C25.8601 24.7918 25.9617 24.8921 26.087 24.8921H29.0101C29.1342 24.8921 29.237 24.7918 29.237 24.6709V11.331Z" fill="#59B8C5"/>
</svg>
