<svg width="72" height="14" viewBox="0 0 72 14" fill="none" xmlns="http://www.w3.org/2000/svg">
<path d="M0.243961 7.59292L0.318 1.7474L1.43307 0.632633L9.31378 0.594121C17.0109 0.556355 17.206 0.562475 17.6842 0.856244C17.9656 1.02895 18.2951 1.42348 18.4582 1.78308C18.722 2.36405 18.7427 2.80604 18.7457 7.92371L18.749 13.4381H16.0842V8.26734C16.0842 3.76393 16.0543 3.06653 15.8516 2.86381C15.6591 2.67125 15.2005 2.63125 13.187 2.63125H10.7549V13.4383H8.23812V2.6311H5.74436C3.51647 2.6311 3.22464 2.65991 3.00566 2.90173C2.78757 3.1428 2.76055 3.73691 2.76055 8.3054V13.438L0.169922 13.4386L0.243961 7.59307V7.59292ZM22.4856 13.1429C22.2203 12.9811 21.8707 12.6316 21.7089 12.3662C21.4311 11.9105 21.4149 11.6127 21.4149 6.99837C21.4149 2.3842 21.4311 2.08625 21.7089 1.63052C21.8707 1.36526 22.2203 1.01567 22.4856 0.854005C22.9454 0.57367 23.2418 0.559788 28.7786 0.559191L34.5892 0.558743V2.6314H24.3914L24.1609 2.96039C23.9949 3.19744 23.9304 3.65212 23.9304 4.58687V5.88435L34.0302 5.96227V8.03477L23.9304 8.11269V9.41017C23.9304 10.3449 23.9949 10.7996 24.1609 11.0366L24.3914 11.3656H34.5892V13.4383L28.7786 13.4377C23.2418 13.4371 22.9454 13.4232 22.4856 13.1429ZM37.4021 0.558743H40.0668V13.438H37.4021V0.558743ZM43.0809 13.222C42.5794 12.8706 42.3765 12.2149 42.5794 11.6002C42.7546 11.0693 43.3047 10.5464 48.571 5.90465C49.7153 4.89601 51.0069 3.74676 51.4408 3.35089L52.23 2.63125H42.8795V0.558594H54.7455L55.1784 0.991485C55.7072 1.52021 55.7578 2.25657 55.305 2.83232C55.1366 3.04622 53.3215 4.7042 51.2712 6.51637C49.2208 8.32854 47.1768 10.1595 46.7288 10.5855L45.9144 11.3597L55.4629 11.3656V13.438H49.4264C44.373 13.438 43.3393 13.4028 43.0809 13.2219V13.222ZM58.8528 13.1021C57.8388 12.4246 57.8322 12.38 57.8318 6.14722V0.558594H60.3485V5.66611C60.3485 10.576 60.3598 10.7848 60.6445 11.0695C60.9259 11.3509 61.138 11.3656 64.9147 11.3656C68.5769 11.3656 68.9081 11.3443 69.1339 11.0949C69.3519 10.8539 69.3788 10.2597 69.3788 5.69134V0.558743H71.8955V6.27783C71.8955 11.7535 71.8829 12.0175 71.5971 12.4798C71.0152 13.4214 70.8955 13.4383 64.8261 13.4383C59.3855 13.4383 59.3531 13.4365 58.8529 13.1023L58.8528 13.1021Z" fill="#59B8C5"/>
</svg>
