<svg width="76" height="14" viewBox="0 0 76 14" fill="none" xmlns="http://www.w3.org/2000/svg">
<path d="M19.6073 13.4386C19.3879 13.4035 19.1596 13.3772 18.94 13.3421C18.106 13.2104 17.3245 12.9382 16.6309 12.4289C15.7618 11.788 15.2261 10.9101 14.9364 9.88281C14.7433 9.20678 14.673 8.52194 14.673 7.81948V0.620111C14.8399 0.567401 16.9733 0.558594 17.2279 0.611305V7.8459C17.2279 8.34632 17.2983 8.83794 17.4739 9.31207C17.8338 10.2779 18.5537 10.8047 19.5547 10.954C20.0727 11.033 20.5906 11.0066 21.0998 10.875C21.9076 10.6555 22.4607 10.1549 22.768 9.37358C22.9613 8.87317 23.0227 8.33752 23.0227 7.802V0.620111C23.1895 0.567401 25.323 0.549787 25.5601 0.602497C25.5601 0.664014 25.5688 0.734208 25.5688 0.8044C25.5688 3.17492 25.5776 5.53677 25.5688 7.90729C25.5688 8.75894 25.4284 9.58429 25.1123 10.3744C24.524 11.8582 23.4353 12.789 21.9076 13.1928C21.5565 13.2894 21.1877 13.3157 20.8277 13.3772C20.7487 13.3859 20.6784 13.4035 20.5994 13.4211C20.2834 13.4386 19.9497 13.4386 19.6073 13.4386ZM55.6046 0.59369H58.2211C58.2035 0.67269 58.186 0.75169 58.1596 0.813207C57.7031 2.12137 57.2465 3.43834 56.7899 4.74664C55.8418 7.47706 54.8935 10.2076 53.9364 12.9382C53.8223 13.2806 53.8927 13.2367 53.515 13.2455H51.8909C51.6976 13.2455 51.6976 13.2455 51.6274 13.0523C50.7143 10.4271 49.81 7.802 48.8969 5.17673C48.8706 5.11535 48.8442 5.05383 48.8003 4.93093C48.7564 5.03635 48.7301 5.09786 48.7038 5.15925C48.2735 6.4059 47.8345 7.65267 47.4043 8.89945C46.9302 10.2691 46.456 11.6475 45.982 13.0172C45.9029 13.2542 45.9381 13.2542 45.6571 13.2542H43.9889C43.7782 13.2542 43.7782 13.2542 43.708 13.0523C42.2856 8.96964 40.8633 4.87822 39.4323 0.795593C39.4147 0.743014 39.397 0.690304 39.3796 0.620111H42.0837C43.0055 3.49105 43.9363 6.3708 44.8582 9.25936H44.9021C44.9195 9.20678 44.946 9.15407 44.9634 9.09255C45.8766 6.34451 46.781 3.58753 47.694 0.839497C47.7116 0.795593 47.7291 0.743014 47.7379 0.699111C47.7555 0.61998 47.8169 0.584884 47.896 0.584884C48.5282 0.584884 49.1603 0.584883 49.7924 0.59369C49.81 0.59369 49.8363 0.602498 49.8714 0.61998C50.8197 3.48225 51.7678 6.362 52.7161 9.24187C52.8127 9.20678 52.8127 9.12765 52.839 9.06626C53.0849 8.3199 53.3219 7.57368 53.5589 6.82745C54.2087 4.80802 54.8584 2.79741 55.5081 0.778111C55.5521 0.707787 55.5783 0.655207 55.6046 0.59369ZM0.160156 13.2016V0.602497H2.69748C2.69748 0.681497 2.70629 0.760628 2.70629 0.839628V5.67728H8.5273C8.53611 5.58948 8.54479 5.50167 8.54479 5.41386V0.602497H11.0646C11.1085 0.743014 11.1261 12.9294 11.0822 13.2016C10.9066 13.2543 8.7643 13.2543 8.54479 13.1928V8.11813C8.34288 8.06542 2.92581 8.06542 2.71496 8.11813V13.1928C2.49558 13.2543 0.353252 13.2543 0.160156 13.2016ZM69.8895 10.9452V13.184C69.7141 13.2279 60.6094 13.2367 60.3898 13.1928C60.3371 13.026 60.3371 0.822015 60.381 0.611305C60.539 0.567401 69.4242 0.558725 69.6525 0.602497V2.84131C69.5559 2.85012 69.4594 2.85892 69.3628 2.85892H62.8833V5.46657H67.4927C67.5629 5.65086 67.5717 7.53858 67.5015 7.7669H62.9097C62.857 7.96881 62.8482 10.7257 62.9097 10.9364C65.2187 10.9452 67.5366 10.9452 69.8895 10.9452ZM40.3015 13.2104C40.2049 13.2192 40.1434 13.2191 40.082 13.2191C39.3357 13.2191 38.5894 13.2104 37.8519 13.2279C37.6763 13.2279 37.6061 13.1665 37.5446 13.0172C37.2374 12.2798 36.9124 11.551 36.6052 10.8135C36.5349 10.6555 36.4559 10.5939 36.2803 10.5939C34.4892 10.6027 32.6981 10.6027 30.9071 10.5939C30.7402 10.5939 30.6612 10.6378 30.591 10.7958C30.2837 11.5334 29.9501 12.2621 29.6339 12.9909C29.5988 13.0611 29.5725 13.1314 29.5374 13.2016H26.9474C26.9825 13.1226 27 13.0523 27.0264 12.9909C28.1327 10.4887 29.2301 7.98642 30.3364 5.47538C31.0316 3.90157 31.7252 2.32705 32.4172 0.751821C32.4787 0.620111 32.5401 0.558594 32.6981 0.558594C33.3127 0.567401 33.9361 0.567401 34.5507 0.558594C34.7263 0.558594 34.7965 0.620111 34.8667 0.769304C35.6921 2.65689 36.5174 4.53593 37.3427 6.4147C38.2997 8.58332 39.2478 10.7607 40.2049 12.9294C40.2225 13.026 40.2576 13.105 40.3015 13.2104ZM35.5165 8.28494C35.499 8.23223 35.4902 8.17952 35.4637 8.13561C35.332 7.82829 35.2005 7.51229 35.0687 7.20496C34.6121 6.1338 34.1468 5.07158 33.6814 4.00028C33.6552 3.93889 33.6464 3.85109 33.5497 3.80705C32.9088 5.29977 32.2767 6.78355 31.6357 8.27613C31.8464 8.32871 35.3146 8.33752 35.5165 8.28494ZM73.024 0.576208H75.4647L75.4912 0.602497C75.4998 0.611304 75.4998 0.611304 75.4998 0.620111C75.5086 4.72902 75.5086 8.83794 75.5086 12.947C75.5086 13.0172 75.5086 13.0874 75.4998 13.1577C75.4998 13.1665 75.4912 13.184 75.4735 13.2016H73.0064C73.024 8.99607 73.024 4.79935 73.024 0.576208Z" fill="#59B8C5"/>
</svg>
