<svg width="68" height="14" viewBox="0 0 68 14" fill="none" xmlns="http://www.w3.org/2000/svg">
<path d="M41.4153 6.9988C41.4153 10.5554 44.2984 13.4386 47.8556 13.4386C51.4121 13.4386 54.2953 10.5554 54.2953 6.9988C54.2953 3.44175 51.4121 0.558594 47.8556 0.558594C44.2984 0.558594 41.4153 3.44175 41.4153 6.9988ZM43.6511 6.9988C43.6511 4.67683 45.5335 2.7949 47.8556 2.7949C50.1774 2.7949 52.0599 4.67683 52.0599 6.9988C52.0599 9.32085 50.1774 11.2032 47.8556 11.2032C45.5335 11.2032 43.6511 9.32085 43.6511 6.9988ZM13.0515 6.9988C13.0515 10.5554 15.9346 13.4386 19.4918 13.4386C23.0483 13.4386 25.9315 10.5554 25.9315 6.9988C25.9315 3.44175 23.0483 0.558594 19.4918 0.558594C15.9346 0.558594 13.0515 3.44175 13.0515 6.9988ZM15.2873 6.9988C15.2873 4.67683 17.1697 2.7949 19.4918 2.7949C21.8137 2.7949 23.6961 4.67683 23.6961 6.9988C23.6961 9.32085 21.8137 11.2032 19.4918 11.2032C17.1697 11.2032 15.2873 9.32085 15.2873 6.9988ZM36.1612 0.693193V8.52678L30.7325 0.693193H28.9497V13.2458H31.186V5.37401L36.6408 13.2458H38.397V0.693193H36.1612ZM57.3136 0.7309V13.2836H59.5498V7.69737L64.2078 13.2836H67.1129L63.2975 8.70744C64.946 8.18167 66.1401 6.63836 66.1401 4.81561C66.1401 2.56398 64.3173 0.737377 62.067 0.731393V0.7309H57.3136ZM59.5498 2.9672H62.0395C63.0599 2.9672 63.8874 3.7948 63.8874 4.81561C63.8874 5.83642 63.0594 6.66443 62.0386 6.66443H59.5498V2.9672ZM7.79734 0.7309V5.81921H2.82216V0.7309H0.585938V13.2836H2.82216V8.0551H7.79734V13.2836H10.0332V0.7309H7.79734Z" fill="#59B8C5"/>
</svg>
