<svg width="62" height="14" viewBox="0 0 62 14" fill="none" xmlns="http://www.w3.org/2000/svg">
<path d="M30.7105 0.566212H19.9685C17.4783 0.566212 16.3741 2.15905 16.119 3.67976V0.566212H10.1573C9.83269 0.535299 9.50553 0.598841 9.21616 0.749968C8.92593 0.900236 8.6855 1.13122 8.52149 1.41544L6.88658 3.86009H30.7079L30.7105 0.566212ZM0.974609 13.4352H5.25081L10.6124 4.58137L6.78869 4.19497L0.974609 13.4343V13.4352ZM34.8613 0.568788H31.3399V3.86438H34.8605L34.8613 0.568788ZM57.2186 5.71654L46.2001 5.04677C46.2001 6.77099 47.3078 7.92676 49.1943 8.08476L57.0426 8.70301C57.6462 8.75367 58.024 8.90823 58.024 9.42257C58.024 9.91288 57.5981 10.0923 56.7163 10.0923H46.0241V13.4377H56.943C60.3897 13.4377 61.8984 12.2012 61.8984 9.39681C61.8984 6.87403 60.5391 5.92262 57.2186 5.71654Z" fill="#59B8C5"/>
<path d="M46.0567 5.04677L42.5842 4.84069V8.62487C42.5842 9.80898 42.0046 10.1696 39.9928 10.1696H37.2261C35.5654 10.1696 34.8613 9.67932 34.8613 8.62487V4.48091L31.339 4.2233V8.93313H31.2643C31.0634 7.56956 30.5602 5.97328 27.214 5.74144L16.1955 4.99525C16.1955 6.71947 17.4019 7.74902 19.2884 7.9551L26.9624 8.75195C27.566 8.80347 28.0185 8.98379 28.0185 9.499C28.0185 10.064 27.566 10.1155 26.8611 10.1155H16.0701V4.96863L12.5487 4.73679V13.4386H26.8885C30.0828 13.4386 31.1149 11.7401 31.2661 10.3242H31.3416C31.7452 12.5636 33.6566 13.4386 36.9015 13.4386H40.4736C44.2732 13.4386 46.0593 12.2545 46.0593 9.4741L46.0567 5.04677ZM61.6537 3.86352V0.566212H49.8297C47.3688 0.566212 46.2576 2.12556 46.0636 3.62996C46.0636 3.64713 46.0593 3.66431 46.0567 3.68148V0.566212H42.5842V3.86009H61.6528L61.6537 3.86352Z" fill="#59B8C5"/>
</svg>
