<svg width="63" height="14" viewBox="0 0 63 14" fill="none" xmlns="http://www.w3.org/2000/svg">
<path d="M26.1893 3.32127C25.0625 3.32127 23.781 3.84361 22.998 4.88935L22.9986 4.88723L22.998 4.88776L22.9986 3.4855H20.3111V13.2722H22.998V7.70342C22.998 6.70112 23.7752 5.63578 25.214 5.63578C26.326 5.63578 27.4766 6.40922 27.4766 7.70342V13.2722H30.164V7.20544C30.164 4.95451 28.5536 3.32127 26.1893 3.32127Z" fill="#59B8C5"/>
<path d="M49.2643 3.48591L46.8348 10.1524L44.4054 3.48591H41.3354L45.3621 13.2694H48.307L52.3337 3.48591H49.2643Z" fill="#59B8C5"/>
<path d="M12.2882 6.43416C12.7459 5.81964 13.4748 5.45888 14.3553 5.45888C15.3237 5.45888 16.0584 6.01194 16.4383 6.8283L11.743 8.77621C11.6148 7.77656 11.8707 6.99464 12.2882 6.43416ZM17.4512 10.2632C16.3201 11.1003 15.6738 11.3 14.6424 11.3C13.7143 11.3 12.9874 11.0118 12.4752 10.5064L19.3456 7.6563C19.1956 6.59414 18.7925 5.64535 18.1722 4.92382C17.2695 3.87543 15.9334 3.32078 14.3065 3.32078C11.3515 3.32078 9.12339 5.50073 9.12339 8.37995C9.12339 11.3339 11.3568 13.4386 14.6027 13.4386C16.4213 13.4386 18.2808 12.5767 19.1506 11.5696L17.4512 10.2632Z" fill="#59B8C5"/>
<path d="M8.86725 10.8046H2.75916V0.558594H0.0351562V13.2722H8.86725V10.8046Z" fill="#59B8C5"/>
<path d="M57.1593 5.62369C55.6585 5.62369 54.5688 6.76108 54.5688 8.37895C54.5688 9.92372 55.7231 11.1342 57.1953 11.1342C58.6967 11.1342 59.7858 9.96557 59.7858 8.37895C59.7858 6.83419 58.632 5.62369 57.1593 5.62369ZM57.1593 13.4371C54.2202 13.4371 51.9174 11.2476 51.9174 8.37895C51.9174 5.54264 54.2361 3.32084 57.1953 3.32084C60.1344 3.32084 62.4367 5.51032 62.4367 8.37895C62.4367 11.2147 60.1185 13.4371 57.1593 13.4371Z" fill="#59B8C5"/>
<path d="M36.4686 5.62369C34.9678 5.62369 33.8786 6.76108 33.8786 8.37895C33.8786 9.92372 35.0324 11.1342 36.5052 11.1342C38.006 11.1342 39.0951 9.96557 39.0951 8.37895C39.0951 6.83419 37.9413 5.62369 36.4686 5.62369ZM36.4686 13.4371C33.5295 13.4371 31.2272 11.2476 31.2272 8.37895C31.2272 5.54264 33.5454 3.32084 36.5052 3.32084C39.4437 3.32084 41.7466 5.51032 41.7466 8.37895C41.7466 11.2147 39.4278 13.4371 36.4686 13.4371Z" fill="#59B8C5"/>
</svg>
