<svg width="32" height="32" viewBox="0 0 32 32" fill="none" xmlns="http://www.w3.org/2000/svg">
<path d="M0 16C0 7.16344 7.16344 0 16 0C24.8366 0 32 7.16344 32 16C32 24.8366 24.8366 32 16 32C7.16344 32 0 24.8366 0 16Z" fill="#59B8C5"/>
<path d="M0 16C0 7.16344 7.16344 0 16 0C24.8366 0 32 7.16344 32 16C32 24.8366 24.8366 32 16 32C7.16344 32 0 24.8366 0 16Z" fill="white" fill-opacity="0.8"/>
<path fill-rule="evenodd" clip-rule="evenodd" d="M15.7371 10.7969C16.1254 10.4042 16.7586 10.4006 17.1513 10.7889L21.7031 15.2889C21.8931 15.4767 22 15.7328 22 16C22 16.2672 21.8931 16.5233 21.7031 16.7111L17.1513 21.2111C16.7586 21.5994 16.1254 21.5958 15.7371 21.2031C15.3489 20.8103 15.3525 20.1772 15.7452 19.7889L18.5661 17H11C10.4477 17 10 16.5523 10 16C10 15.4477 10.4477 15 11 15H18.5661L15.7452 12.2111C15.3525 11.8228 15.3489 11.1897 15.7371 10.7969Z" fill="#59B8C5"/>
</svg>
