<svg width="16" height="16" viewBox="0 0 16 16" fill="none" xmlns="http://www.w3.org/2000/svg">
<path d="M15.25 4C15.4583 4 15.6354 4.07292 15.7812 4.21875C15.9271 4.36458 16 4.54167 16 4.75V7.25C16 7.45833 15.9271 7.63542 15.7812 7.78125C15.6354 7.92708 15.4583 8 15.25 8H15V13.1875C15 13.4167 14.9271 13.6146 14.7812 13.7812C14.6354 13.9271 14.4375 14 14.1875 14H14V15C14 15.2708 13.8958 15.5 13.6875 15.6875C13.5 15.8958 13.2708 16 13 16H12C11.7292 16 11.4896 15.8958 11.2812 15.6875C11.0938 15.5 11 15.2708 11 15V14H5V15C5 15.2708 4.89583 15.5 4.6875 15.6875C4.5 15.8958 4.27083 16 4 16H3C2.72917 16 2.48958 15.8958 2.28125 15.6875C2.09375 15.5 2 15.2708 2 15V14C1.72917 14 1.48958 13.9062 1.28125 13.7188C1.09375 13.5104 1 13.2708 1 13V8H0.75C0.541667 8 0.364583 7.92708 0.21875 7.78125C0.0729167 7.63542 0 7.45833 0 7.25V4.75C0 4.54167 0.0729167 4.36458 0.21875 4.21875C0.364583 4.07292 0.541667 4 0.75 4H1V2.5C1 1.79167 1.67708 1.19792 3.03125 0.71875C4.38542 0.239583 6.04167 0 8 0C9.95833 0 11.6146 0.239583 12.9688 0.71875C14.3229 1.19792 15 1.79167 15 2.5V4H15.25ZM2.78125 12.2188C2.98958 12.4062 3.22917 12.5 3.5 12.5C3.77083 12.5 4 12.4062 4.1875 12.2188C4.39583 12.0104 4.5 11.7708 4.5 11.5C4.5 11.2292 4.39583 11 4.1875 10.8125C4 10.6042 3.77083 10.5 3.5 10.5C3.22917 10.5 2.98958 10.6042 2.78125 10.8125C2.59375 11 2.5 11.2292 2.5 11.5C2.5 11.7708 2.59375 12.0104 2.78125 12.2188ZM4 9H12C12.2708 9 12.5 8.90625 12.6875 8.71875C12.8958 8.51042 13 8.27083 13 8V4C13 3.72917 12.8958 3.5 12.6875 3.3125C12.5 3.10417 12.2708 3 12 3H4C3.72917 3 3.48958 3.10417 3.28125 3.3125C3.09375 3.5 3 3.72917 3 4V8C3 8.27083 3.09375 8.51042 3.28125 8.71875C3.48958 8.90625 3.72917 9 4 9ZM11.7812 12.2188C11.9896 12.4062 12.2292 12.5 12.5 12.5C12.7708 12.5 13 12.4062 13.1875 12.2188C13.3958 12.0104 13.5 11.7708 13.5 11.5C13.5 11.2292 13.3958 11 13.1875 10.8125C13 10.6042 12.7708 10.5 12.5 10.5C12.2292 10.5 11.9896 10.6042 11.7812 10.8125C11.5938 11 11.5 11.2292 11.5 11.5C11.5 11.7708 11.5938 12.0104 11.7812 12.2188Z" fill="#59B8C5"/>
</svg>
