<svg width="16" height="13" viewBox="0 0 16 13" fill="none" xmlns="http://www.w3.org/2000/svg">
<path d="M15.6875 3.97266C15.75 3.91016 15.8125 3.89974 15.875 3.94141C15.9583 3.98307 16 4.04557 16 4.12891V10.5039C16 10.9206 15.8542 11.2747 15.5625 11.5664C15.2708 11.8581 14.9167 12.0039 14.5 12.0039H1.5C1.08333 12.0039 0.729167 11.8581 0.4375 11.5664C0.145833 11.2747 0 10.9206 0 10.5039V4.12891C0 4.04557 0.03125 3.99349 0.09375 3.97266C0.177083 3.93099 0.25 3.93099 0.3125 3.97266C1 4.49349 2.60417 5.67057 5.125 7.50391C5.16667 7.54557 5.30208 7.66016 5.53125 7.84766C5.78125 8.03516 5.97917 8.18099 6.125 8.28516C6.27083 8.36849 6.45833 8.48307 6.6875 8.62891C6.91667 8.75391 7.13542 8.84766 7.34375 8.91016C7.57292 8.97266 7.79167 9.00391 8 9.00391C8.1875 9.00391 8.375 8.98307 8.5625 8.94141C8.75 8.87891 8.92708 8.81641 9.09375 8.75391C9.26042 8.67057 9.4375 8.56641 9.625 8.44141C9.8125 8.31641 9.96875 8.21224 10.0938 8.12891C10.2188 8.02474 10.3646 7.91016 10.5312 7.78516C10.6979 7.66016 10.8125 7.56641 10.875 7.50391C13.3333 5.73307 14.9375 4.55599 15.6875 3.97266ZM8 8.00391C7.83333 8.00391 7.625 7.95182 7.375 7.84766C7.14583 7.72266 6.95833 7.61849 6.8125 7.53516C6.66667 7.43099 6.44792 7.27474 6.15625 7.06641C5.88542 6.83724 5.73958 6.72266 5.71875 6.72266C3.17708 4.86849 1.36458 3.52474 0.28125 2.69141C0.09375 2.54557 0 2.34766 0 2.09766V1.50391C0 1.08724 0.145833 0.733073 0.4375 0.441406C0.729167 0.14974 1.08333 0.00390625 1.5 0.00390625H14.5C14.9167 0.00390625 15.2708 0.14974 15.5625 0.441406C15.8542 0.733073 16 1.08724 16 1.50391V2.09766C16 2.34766 15.9062 2.54557 15.7188 2.69141C14.6979 3.48307 12.8854 4.82682 10.2812 6.72266C10.2604 6.72266 10.1042 6.83724 9.8125 7.06641C9.54167 7.27474 9.33333 7.43099 9.1875 7.53516C9.04167 7.61849 8.84375 7.72266 8.59375 7.84766C8.36458 7.95182 8.16667 8.00391 8 8.00391Z" fill="#59B8C5"/>
</svg>
