<svg width="16" height="17" viewBox="0 0 16 17" fill="none" xmlns="http://www.w3.org/2000/svg">
<path d="M15.4076 0.783967C15.8034 0.867301 16.0013 1.10688 16.0013 1.50272C16.0013 5.50272 14.5846 8.91938 11.7513 11.7527C8.91797 14.5861 5.5013 16.0027 1.5013 16.0027C1.10547 16.0027 0.865885 15.8048 0.782552 15.409L0.0325521 12.159C-0.0716146 11.7631 0.0742188 11.4819 0.470052 11.3152L3.97005 9.81522C4.30339 9.66938 4.59505 9.7423 4.84505 10.034L6.3763 11.909C7.60547 11.3465 8.6888 10.5861 9.6263 9.62772C10.5846 8.66938 11.3451 7.58605 11.9076 6.37772L10.0326 4.81522C9.74089 4.58605 9.66797 4.29438 9.8138 3.94022L11.3138 0.440217C11.4805 0.0652174 11.7617 -0.0701993 12.1576 0.0339674L15.4076 0.783967Z" fill="#59B8C5"/>
</svg>
