<svg width="16" height="16" viewBox="0 0 16 16" fill="none" xmlns="http://www.w3.org/2000/svg">
<path d="M2.32258 2.35484C3.89247 0.784946 5.78495 0 8 0C10.2151 0 12.0968 0.784946 13.6452 2.35484C15.2151 3.90323 16 5.78495 16 8C16 10.2151 15.2151 12.1075 13.6452 13.6774C12.0968 15.2258 10.2151 16 8 16C5.78495 16 3.89247 15.2258 2.32258 13.6774C0.774194 12.1075 0 10.2151 0 8C0 5.78495 0.774194 3.90323 2.32258 2.35484ZM9.83871 11.2903C10.0538 11.4409 10.2366 11.4194 10.3871 11.2258L11.2903 9.96774C11.4409 9.75269 11.4194 9.56989 11.2258 9.41935L9.16129 7.93548V3.48387C9.16129 3.22581 9.03226 3.09677 8.77419 3.09677H7.22581C6.96774 3.09677 6.83871 3.22581 6.83871 3.48387V8.90323C6.83871 9.03226 6.89247 9.13978 7 9.22581L9.83871 11.2903Z" fill="#59B8C5"/>
</svg>
