<svg width="60" height="60" viewBox="0 0 60 60" fill="none" xmlns="http://www.w3.org/2000/svg">
<rect width="60" height="60" rx="30" fill="#59B8C5"/>
<rect width="60" height="60" rx="30" fill="white" fill-opacity="0.8"/>
<path d="M30.0156 20C24.4926 20 20.0156 24.477 20.0156 30C20.0156 35.523 24.4926 40 30.0156 40C35.5386 40 40.0156 35.523 40.0156 30C40.0156 24.477 35.5386 20 30.0156 20ZM34.0156 27C34.2716 27 34.5386 27.086 34.7346 27.281C35.1246 27.672 35.1246 28.328 34.7346 28.719L30.9846 32.438C29.8336 33.588 28.0746 33.416 27.1716 32.062L26.1716 30.562C25.8656 30.103 25.9936 29.463 26.4536 29.156C26.9126 28.85 27.5526 28.978 27.8596 29.438L28.8596 30.938C29.0616 31.241 29.3206 31.289 29.5776 31.031L33.2966 27.281C33.4926 27.086 33.7596 27 34.0156 27Z" fill="#59B8C5"/>
</svg>
