<?xml version="1.0" encoding="UTF-8" standalone="no"?>
<svg
   width="37.589943"
   height="38"
   viewBox="0 0 37.589943 38"
   fill="none"
   version="1.1"
   id="svg950"
   sodipodi:docname="logo.svg"
   inkscape:version="1.1 (c68e22c387, 2021-05-23)"
   xmlns:inkscape="http://www.inkscape.org/namespaces/inkscape"
   xmlns:sodipodi="http://sodipodi.sourceforge.net/DTD/sodipodi-0.dtd"
   xmlns="http://www.w3.org/2000/svg"
   xmlns:svg="http://www.w3.org/2000/svg">
  <defs
     id="defs954" />
  <sodipodi:namedview
     id="namedview952"
     pagecolor="#ffffff"
     bordercolor="#666666"
     borderopacity="1.0"
     inkscape:pageshadow="2"
     inkscape:pageopacity="0.0"
     inkscape:pagecheckerboard="0"
     showgrid="false"
     inkscape:zoom="6.062201"
     inkscape:cx="104.5"
     inkscape:cy="19.052486"
     inkscape:window-width="1920"
     inkscape:window-height="1017"
     inkscape:window-x="-8"
     inkscape:window-y="-8"
     inkscape:window-maximized="1"
     inkscape:current-layer="svg950" />
  <path
     fill-rule="evenodd"
     clip-rule="evenodd"
     d="m 29.6921,15.3554 c -2e-4,-0.5996 0.4858,-1.0858 1.0854,-1.086 h 0.0618 c 0.5996,-10e-5 1.0858,0.4858 1.086,1.0854 10e-5,0.5997 -0.4858,1.0859 -1.0855,1.086 h -0.0617 c -0.5997,2e-4 -1.0859,-0.4858 -1.086,-1.0854 z"
     fill="#59b8c5"
     id="path890" />
  <path
     fill-rule="evenodd"
     clip-rule="evenodd"
     d="m 25.4135,38 c 1.0279,0 1.8612,-0.8333 1.8612,-1.8612 V 21.8694 c 0,0 -4.4204,2.3892 -9.4612,3.8 -5.0408,1.4107 -8.8408402,1.7837 -8.8408402,1.7837 v 8.6857 c 0,1.0279 0.8333,1.8612 1.8612402,1.8612 z m -7.2898,-3.2571 c 0.8566,0 1.551,-0.6945 1.551,-1.5511 0,-0.8566 -0.6944,-1.551 -1.551,-1.551 -0.8566,0 -1.551,0.6944 -1.551,1.551 0,0.8566 0.6944,1.5511 1.551,1.5511 z"
     fill="#59b8c5"
     id="path892" />
  <path
     fill-rule="evenodd"
     clip-rule="evenodd"
     d="m 30.789,5.70612 c 2.1023,-0.10333 3.9392,0.08996 5.0724,0.70804 0.894,0.48766 1.4887,1.1869 1.671,2.07408 0.1719,0.83653 -0.066,1.64176 -0.3876,2.29306 -0.6369,1.2901 -1.8491,2.4702 -2.6512,3.152 -0.4569,0.3884 -1.142,0.3328 -1.5304,-0.1241 -0.3883,-0.4568 -0.3328,-1.142 0.1241,-1.5304 0.7489,-0.6365 1.6772,-1.5813 2.1105,-2.45879 C 35.4113,9.38755 35.4409,9.09837 35.4054,8.92528 35.3802,8.80285 35.2924,8.57728 34.8216,8.32045 34.2486,8.00793 32.9351,7.77469 30.8956,7.87493 29.8301,7.9273 28.6167,8.06785 27.2903,8.30799 V 19.0776 c 0,0 -3.8775,2.2489 -9.151,3.5673 -5.2735,1.3184 -9.1510202,2.1271 -9.1510202,2.1271 l -1.70713,0.3375 c -1.76152,0.2961 -3.5408,0.4239 -4.86325,0.1587 -0.65392,-0.1312 -1.35929,-0.3895 -1.85139697,-0.9312 -0.5548321,-0.6108 -0.676658,-1.3951 -0.475854,-2.1802 0.186164,-0.7279 0.650146,-1.49 1.30949097,-2.2875 0.67137,-0.812 1.60759,-1.7342 2.83758,-2.7816 1.54605,-1.3167 3.13934,-2.5026 4.75056,-3.5662 V 1.86123 C 8.9882798,0.833299 9.8215798,0 10.8495,0 h 14.5796 c 1.0279,0 1.8612,0.833299 1.8612,1.86122 V 6.10339 C 28.5541,5.88856 29.7293,5.75821 30.789,5.70612 Z M 3.0736098,21.253 c 0.56297,-0.6809 1.39789,-1.5123 2.57198,-2.5122 1.0929,-0.9307 2.21096,-1.7933 3.34269,-2.591 v 6.3923 c -0.69108,0.1671 -1.3887,0.312 -2.06702,0.426 -1.69927,0.2856 -3.1562,0.3556 -4.07634,0.171 -0.46738,-0.0937 -0.63489,-0.2222 -0.67113,-0.2621 l -0.00142,-0.0016 c -0.00203,-0.0143 -0.00648,-0.0693 0.02199,-0.1806 0.0707,-0.2764 0.30425,-0.7464 0.87925,-1.4418 z M 14.2618,3.33469 c 0,-0.38547 0.3124,-0.69796 0.6979,-0.69796 h 6.2041 c 0.3855,0 0.6979,0.31249 0.6979,0.69796 0,0.38548 -0.3124,0.69796 -0.6979,0.69796 h -6.2041 c -0.3855,0 -0.6979,-0.31248 -0.6979,-0.69796 z"
     fill="#59b8c5"
     id="path894" />
</svg>
