<svg width="30" height="26" viewBox="0 0 30 26" fill="none" xmlns="http://www.w3.org/2000/svg">
<path fill-rule="evenodd" clip-rule="evenodd" d="M20.4831 24.0521C20.0303 23.7958 19.6409 23.4189 19.3835 22.8445C19.1984 22.4314 19.0725 21.8957 19.057 21.1992H28C29.1046 21.1992 30 20.3038 30 19.1992V2.19922C30 1.09465 29.1046 0.199219 28 0.199219H2C0.895431 0.199219 0 1.09465 0 2.19922V19.1992C0 20.3038 0.89543 21.1992 2 21.1992H10.9189C10.9183 21.3201 10.9149 21.4458 10.9073 21.5786C10.8786 22.0733 10.7885 22.5583 10.5672 22.9859C10.1591 23.7742 9.17523 24.5992 6.5 24.5992C6.16863 24.5992 5.9 24.8678 5.9 25.1992C5.9 25.5306 6.16863 25.7992 6.5 25.7992H23.378L23.4608 25.7992L23.5 25.7992C23.8314 25.7992 24.1 25.5306 24.1 25.1992C24.1 24.8678 23.8314 24.5992 23.5 24.5992C22.6426 24.5992 21.4286 24.5873 20.4831 24.0521ZM12.1052 21.648C12.0714 22.2313 11.9615 22.9027 11.6328 23.5375C11.4289 23.9316 11.1533 24.2899 10.7911 24.5992H19.1997C18.8368 24.2714 18.5221 23.8566 18.2884 23.3352C18.0238 22.7448 17.8726 22.0388 17.8568 21.1992H12.1182C12.1175 21.347 12.1139 21.4986 12.1052 21.648ZM28.8 15.7992H1.2V19.1992C1.2 19.641 1.55817 19.9992 2 19.9992H28C28.4418 19.9992 28.8 19.641 28.8 19.1992V15.7992ZM1.2 14.5992H28.8V2.19922C28.8 1.75739 28.4418 1.39922 28 1.39922H2C1.55817 1.39922 1.2 1.75739 1.2 2.19922V14.5992Z" fill="#ACDCE1"/>
<path d="M16 17.6992C16 18.2515 15.5523 18.6992 15 18.6992C14.4477 18.6992 14 18.2515 14 17.6992C14 17.1469 14.4477 16.6992 15 16.6992C15.5523 16.6992 16 17.1469 16 17.6992Z" fill="#ACDCE1"/>
</svg>
