<?xml version="1.0" encoding="UTF-8" standalone="no"?>
<svg
   width="30"
   height="24"
   viewBox="0 0 30 24"
   fill="none"
   version="1.1"
   id="svg1644"
   xmlns="http://www.w3.org/2000/svg"
   xmlns:svg="http://www.w3.org/2000/svg">
  <defs
     id="defs1648" />
  <path
     fill-rule="evenodd"
     clip-rule="evenodd"
     d="M3.11351 1.60391C3.11351 0.996393 3.606 0.503906 4.21351 0.503906H25.7865C26.394 0.503906 26.8865 0.996395 26.8865 1.60391V15.7201L29.9079 20.5245C29.9681 20.6202 30 20.7309 30 20.8439V22.3985C30 23.006 29.5075 23.4985 28.9 23.4985H1.1C0.492488 23.4985 0 23.006 0 22.3985V20.8439C0 20.7309 0.0319223 20.6202 0.0920909 20.5245L3.11351 15.7201V1.60391ZM4.04497 16.4931L1.68612 20.2439H11.0646L11.5925 18.6567C11.742 18.2072 12.1626 17.9039 12.6363 17.9039H17.3637C17.8374 17.9039 18.258 18.2072 18.4075 18.6567L18.9354 20.2439H28.3139L25.955 16.4931H4.04497ZM25.6865 15.2931V1.70391H4.31351V15.2931H25.6865ZM28.8 21.4439H1.2V22.2985H28.8V21.4439ZM17.6708 20.2439L17.2916 19.1039H12.7084L12.3292 20.2439H17.6708Z"
     fill="#ACDCE1"
     id="path1640" />
  <path
     fill-rule="evenodd"
     clip-rule="evenodd"
     d="M5.16992 3.4125C5.16992 2.94306 5.55048 2.5625 6.01992 2.5625H23.98C24.4494 2.5625 24.83 2.94306 24.83 3.4125V7.32947C24.83 7.66084 24.5614 7.92947 24.23 7.92947C23.8986 7.92947 23.63 7.66084 23.63 7.32947V3.7625H6.36992V7.32947C6.36992 7.66084 6.10129 7.92947 5.76992 7.92947C5.43855 7.92947 5.16992 7.66084 5.16992 7.32947V3.4125ZM5.76992 9.0646C6.10129 9.0646 6.36992 9.33323 6.36992 9.6646V13.2325H23.63V9.6646C23.63 9.33323 23.8986 9.0646 24.23 9.0646C24.5614 9.0646 24.83 9.33323 24.83 9.6646V13.5825C24.83 14.0519 24.4494 14.4325 23.98 14.4325H6.01992C5.55048 14.4325 5.16992 14.0519 5.16992 13.5825V9.6646C5.16992 9.33323 5.43855 9.0646 5.76992 9.0646Z"
     fill="#ACDCE1"
     id="path1642" />
</svg>
