<?xml version="1.0" encoding="UTF-8" standalone="no"?>
<svg
   width="22"
   height="30"
   viewBox="0 0 22 30"
   fill="none"
   version="1.1"
   id="svg1561"
   xmlns="http://www.w3.org/2000/svg"
   xmlns:svg="http://www.w3.org/2000/svg">
  <defs
     id="defs1565" />
  <path
     d="M11.4644 2.5C11.2068 2.5 11 2.724 11 2.99998C11 3.27596 11.2114 3.49996 11.469 3.49996C11.7271 3.49996 11.9356 3.27596 11.9356 2.99998C11.9356 2.724 11.7271 2.5 11.469 2.5H11.4644Z"
     fill="#ACDCE1"
     id="path1555" />
  <path
     d="M10.9889 24.6992C10.163 24.6992 9.5 25.3713 9.5 26.1992C9.5 27.0272 10.1779 27.6992 11.0038 27.6992C11.8312 27.6992 12.5 27.0272 12.5 26.1992C12.5 25.3713 11.8312 24.6992 11.0038 24.6992H10.9889Z"
     fill="#ACDCE1"
     id="path1557" />
  <path
     fill-rule="evenodd"
     clip-rule="evenodd"
     d="M2 0C0.895431 0 0 0.89543 0 2V28C0 29.1046 0.89543 30 2 30H20C21.1046 30 22 29.1046 22 28V2C22 0.895431 21.1046 0 20 0H2ZM20 1.2H2C1.55817 1.2 1.2 1.55817 1.2 2V4.4H20.8V2C20.8 1.55817 20.4418 1.2 20 1.2ZM1.2 5.6H20.8V22.4H1.2V5.6ZM1.2 28C1.2 28.4418 1.55817 28.8 2 28.8H20C20.4418 28.8 20.8 28.4418 20.8 28V23.6H1.2V28Z"
     fill="#ACDCE1"
     id="path1559" />
</svg>
