<?xml version="1.0" encoding="UTF-8" standalone="no"?>
<svg
   width="20"
   height="30"
   viewBox="0 0 20 30"
   fill="none"
   version="1.1"
   id="svg1258"
   xmlns="http://www.w3.org/2000/svg"
   xmlns:svg="http://www.w3.org/2000/svg">
  <defs
     id="defs1262" />
  <path
     fill-rule="evenodd"
     clip-rule="evenodd"
     d="M18 1.2H2C1.55817 1.2 1.2 1.55817 1.2 2V28C1.2 28.4418 1.55817 28.8 2 28.8H18C18.4418 28.8 18.8 28.4418 18.8 28V2C18.8 1.55817 18.4418 1.2 18 1.2ZM2 0C0.895431 0 0 0.89543 0 2V28C0 29.1046 0.895431 30 2 30H18C19.1046 30 20 29.1046 20 28V2C20 0.895431 19.1046 0 18 0H2Z"
     fill="#ACDCE1"
     id="path1256" />
  <path
     d="m 7.3483456,1.9759615 c -0.5505872,0 -0.9925762,0.448025 -0.9925762,1 0,0.55197 0.451928,1 1.0025202,1 0.55163,0 0.99748,-0.44803 0.99748,-1 0,-0.551975 -0.44585,-1 -0.99748,-1 z"
     fill="#acdce1"
     id="path1345" />
  <path
     d="m 9.5240373,3.0288462 c 0,-0.552285 0.447715,-1 0.9999997,-1 h 3 c 0.55228,0 1,0.447715 1,1 0,0.55228 -0.44772,1 -1,1 h -3 c -0.5522847,0 -0.9999997,-0.44772 -0.9999997,-1 z"
     fill="#acdce1"
     id="path1445" />
</svg>
