<?xml version="1.0" encoding="UTF-8" standalone="no"?>
<svg
   width="22"
   height="30"
   viewBox="0 0 22 30"
   fill="none"
   version="1.1"
   id="svg1734"
   xmlns="http://www.w3.org/2000/svg"
   xmlns:svg="http://www.w3.org/2000/svg">
  <defs
     id="defs1738" />
  <path
     fill-rule="evenodd"
     clip-rule="evenodd"
     d="M19.4177 1.2H2.58594C2.14411 1.2 1.78594 1.55817 1.78594 2V28C1.78594 28.4418 2.14411 28.8 2.58594 28.8H19.4177C19.8595 28.8 20.2177 28.4418 20.2177 28V2C20.2177 1.55817 19.8595 1.2 19.4177 1.2ZM2.58594 0C1.48137 0 0.585938 0.89543 0.585938 2V28C0.585938 29.1046 1.48137 30 2.58594 30H19.4177C20.5223 30 21.4177 29.1046 21.4177 28V2C21.4177 0.895431 20.5223 0 19.4177 0H2.58594Z"
     fill="#ACDCE1"
     id="path1726" />
  <path
     fill-rule="evenodd"
     clip-rule="evenodd"
     d="M4.72344 4.34063V6.58667H17.2791V4.34063H4.72344ZM4.52344 3.14062C3.97115 3.14062 3.52344 3.58834 3.52344 4.14063V6.78667C3.52344 7.33895 3.97115 7.78667 4.52344 7.78667H17.4791C18.0314 7.78667 18.4791 7.33895 18.4791 6.78667V4.14062C18.4791 3.58834 18.0314 3.14062 17.4791 3.14062H4.52344Z"
     fill="#ACDCE1"
     id="path1728" />
  <path
     fill-rule="evenodd"
     clip-rule="evenodd"
     d="M4.72344 11.743V13.989H17.2791V11.743H4.72344ZM4.52344 10.543C3.97115 10.543 3.52344 10.9907 3.52344 11.543V14.189C3.52344 14.7413 3.97115 15.189 4.52344 15.189H17.4791C18.0314 15.189 18.4791 14.7413 18.4791 14.189V11.543C18.4791 10.9907 18.0314 10.543 17.4791 10.543H4.52344Z"
     fill="#ACDCE1"
     id="path1730" />
  <path
     fill-rule="evenodd"
     clip-rule="evenodd"
     d="M12.2039 22.2469V23.561H17.7644V22.2469H12.2039ZM12.0039 21.0469C11.4516 21.0469 11.0039 21.4946 11.0039 22.0469V23.761C11.0039 24.3133 11.4516 24.761 12.0039 24.761H17.9644C18.5167 24.761 18.9644 24.3133 18.9644 23.761V22.0469C18.9644 21.4946 18.5167 21.0469 17.9644 21.0469H12.0039Z"
     fill="#ACDCE1"
     id="path1732" />
</svg>
