<?xml version="1.0" encoding="UTF-8" standalone="no"?>
<svg
   width="30"
   height="26"
   viewBox="0 0 30 26"
   fill="none"
   version="1.1"
   id="svg2010"
   xmlns="http://www.w3.org/2000/svg"
   xmlns:svg="http://www.w3.org/2000/svg">
  <defs
     id="defs2014" />
  <path
     d="M21.6008 11.1992C21.3644 11.1992 21.1303 11.2458 20.9119 11.3362C20.6936 11.4267 20.4951 11.5593 20.328 11.7264C20.1608 11.8936 20.0283 12.092 19.9378 12.3104C19.8473 12.5288 19.8008 12.7628 19.8008 12.9992C19.8008 13.2356 19.8473 13.4696 19.9378 13.688C20.0283 13.9064 20.1608 14.1048 20.328 14.272C20.4951 14.4391 20.6936 14.5717 20.9119 14.6622C21.1303 14.7526 21.3644 14.7992 21.6008 14.7992C21.8371 14.7992 22.0712 14.7526 22.2896 14.6622C22.508 14.5717 22.7064 14.4391 22.8736 14.272C23.0407 14.1048 23.1733 13.9064 23.2637 13.688C23.3542 13.4696 23.4008 13.2356 23.4008 12.9992C23.4008 12.7628 23.3542 12.5288 23.2637 12.3104C23.1733 12.092 23.0407 11.8936 22.8736 11.7264C22.7064 11.5593 22.508 11.4267 22.2896 11.3362C22.0712 11.2458 21.8371 11.1992 21.6008 11.1992Z"
     fill="#ACDCE1"
     id="path2002" />
  <path
     fill-rule="evenodd"
     clip-rule="evenodd"
     d="M5.39995 8.19839C5.39995 7.86702 5.66858 7.59839 5.99995 7.59839H13.1999C13.5313 7.59839 13.7999 7.86702 13.7999 8.19839C13.7999 8.52976 13.5313 8.79839 13.1999 8.79839H5.99995C5.66858 8.79839 5.39995 8.52976 5.39995 8.19839ZM5.39995 11.1984C5.39995 10.867 5.66858 10.5984 5.99995 10.5984H13.1999C13.5313 10.5984 13.7999 10.867 13.7999 11.1984C13.7999 11.5297 13.5313 11.7984 13.1999 11.7984H5.99995C5.66858 11.7984 5.39995 11.5297 5.39995 11.1984ZM5.39995 14.7983C5.39995 14.467 5.66858 14.1983 5.99995 14.1983H13.1999C13.5313 14.1983 13.7999 14.467 13.7999 14.7983C13.7999 15.1297 13.5313 15.3983 13.1999 15.3983H5.99995C5.66858 15.3983 5.39995 15.1297 5.39995 14.7983ZM5.39995 17.7983C5.39995 17.467 5.66858 17.1983 5.99995 17.1983H13.1999C13.5313 17.1983 13.7999 17.467 13.7999 17.7983C13.7999 18.1297 13.5313 18.3983 13.1999 18.3983H5.99995C5.66858 18.3983 5.39995 18.1297 5.39995 17.7983Z"
     fill="#ACDCE1"
     id="path2004" />
  <path
     fill-rule="evenodd"
     clip-rule="evenodd"
     d="M21.6002 6.99839C20.0089 6.99839 18.4828 7.63053 17.3576 8.75574C16.2324 9.88095 15.6002 11.4071 15.6002 12.9984C15.6002 14.5896 16.2324 16.1158 17.3576 17.241C18.4828 18.3662 20.0089 18.9983 21.6002 18.9983C23.1915 18.9983 24.7176 18.3662 25.8428 17.241C26.968 16.1158 27.6002 14.5896 27.6002 12.9984C27.6002 11.4071 26.968 9.88095 25.8428 8.75574C24.7176 7.63053 23.1915 6.99839 21.6002 6.99839ZM22.9041 14.1734C23.1883 14.8413 23.4002 15.701 23.4002 16.9733C23.4002 17.1396 23.3942 17.3006 23.3838 17.4546C23.9813 17.2155 24.5304 16.8563 24.9943 16.3924C25.4253 15.9615 25.7658 15.457 26.0038 14.9084C25.8105 14.7611 25.5889 14.6084 25.3422 14.466C24.3655 13.9021 23.6685 13.7137 23.1242 13.6472C22.9514 13.6261 22.7891 13.6166 22.6302 13.6128C22.7215 13.7796 22.8154 13.9649 22.9041 14.1734ZM22.2002 16.9733C22.2002 15.8457 22.0146 15.1478 21.7999 14.6432C21.7318 14.4832 21.6589 14.3381 21.5828 14.1986C21.484 14.3611 21.3705 14.5349 21.2344 14.7158C20.798 15.2957 20.1593 15.9087 19.0578 16.5447C18.9138 16.628 18.7715 16.7033 18.6329 16.7713C19.4746 17.4332 20.5186 17.7983 21.6002 17.7983C21.7842 17.7983 21.967 17.7878 22.148 17.767C22.1789 17.5262 22.2002 17.258 22.2002 16.9733ZM18.4574 15.5057C19.4341 14.9418 19.9458 14.4324 20.2756 13.9942C20.3802 13.8552 20.4694 13.7195 20.5522 13.5839C20.3622 13.5795 20.155 13.5681 19.9303 13.5407C19.2099 13.4527 18.3595 13.2061 17.2578 12.57C17.1137 12.4868 16.9773 12.4011 16.8491 12.3151C16.8167 12.5401 16.8002 12.7684 16.8002 12.9984C16.8002 14.034 17.1349 15.0351 17.7444 15.8571C17.9685 15.7635 18.2114 15.648 18.4574 15.5057ZM21 9.02338C21 10.1511 21.1855 10.849 21.4001 11.3536C21.4682 11.5138 21.5411 11.659 21.6172 11.7985C21.716 11.636 21.8296 11.462 21.9659 11.2809C22.4024 10.701 23.0411 10.0879 24.1427 9.45183C24.2866 9.36862 24.4289 9.29338 24.5674 9.22537C23.7258 8.56346 22.6818 8.19839 21.6002 8.19839C21.4162 8.19839 21.2332 8.20896 21.0522 8.22976C21.0213 8.4705 21 8.73869 21 9.02338ZM23.2697 12.456C23.9901 12.544 24.8404 12.7906 25.9422 13.4267C26.0864 13.51 26.2229 13.5958 26.3513 13.6819C26.3837 13.4568 26.4002 13.2284 26.4002 12.9984C26.4002 11.9627 26.0655 10.9616 25.456 10.1396C25.232 10.233 24.9892 10.3485 24.7432 10.4908C23.7666 11.0547 23.2545 11.5644 22.9247 12.0025C22.8201 12.1415 22.7308 12.2772 22.6481 12.4129C22.838 12.4172 23.0452 12.4286 23.2697 12.456ZM20.5696 12.3839C20.4783 12.2171 20.3844 12.0317 20.2957 11.8232C20.0117 11.1553 19.8 10.2957 19.8 9.02338C19.8 8.8571 19.806 8.69621 19.8164 8.54218C19.2189 8.78133 18.67 9.14043 18.2061 9.60427C17.7751 10.0353 17.4345 10.5399 17.1965 11.0885C17.3897 11.2358 17.6112 11.3884 17.8578 11.5308C18.8345 12.0946 19.5315 12.283 20.0758 12.3495C20.2485 12.3706 20.4107 12.3801 20.5696 12.3839Z"
     fill="#ACDCE1"
     id="path2006" />
  <path
     fill-rule="evenodd"
     clip-rule="evenodd"
     d="M0.6 0.398438C0.268629 0.398438 0 0.667067 0 0.998438C0 1.32981 0.268629 1.59844 0.6 1.59844H1.2C1.86282 1.59844 2.39998 2.1356 2.39998 2.79843V24.9983C2.39998 25.3297 2.66861 25.5983 2.99998 25.5983C3.33136 25.5983 3.59998 25.3297 3.59998 24.9983V21.9983H5.39995V23.7983C5.39995 24.1297 5.66858 24.3983 5.99995 24.3983H8.39994C8.73131 24.3983 8.99994 24.1297 8.99994 23.7983V21.9983H10.2003V23.7983C10.2003 24.1297 10.4689 24.3983 10.8003 24.3983H19.8002C20.1316 24.3983 20.4002 24.1297 20.4002 23.7983V21.9983H21.5998V23.7983C21.5998 24.1297 21.8685 24.3983 22.1998 24.3983H23.3998C23.7312 24.3983 23.9998 24.1297 23.9998 23.7983C23.9998 23.4669 23.7312 23.1983 23.3998 23.1983H22.7998V21.9983H28.2002C29.1946 21.9983 30.0002 21.1927 30.0002 20.1983V5.79841C30.0002 4.80404 29.1946 3.99842 28.2002 3.99842H3.59998V2.79843C3.59998 1.47286 2.52556 0.398438 1.2 0.398438H0.6ZM28.2002 20.7983C28.5319 20.7983 28.8002 20.5299 28.8002 20.1983V5.79841C28.8002 5.46678 28.5319 5.19842 28.2002 5.19842H3.59998V20.7983H28.2002ZM11.4003 23.1983H19.2002V21.9983H11.4003V23.1983ZM6.59995 21.9983V23.1983H7.79994V21.9983H6.59995Z"
     fill="#ACDCE1"
     id="path2008" />
</svg>
