<svg width="28" height="28" viewBox="0 0 28 28" fill="none" xmlns="http://www.w3.org/2000/svg">
<rect width="27.8607" height="27.8317" rx="13.9159" fill="#59B8C5"/>
<g clip-path="url(#clip0_903:55240)">
<path d="M13.9322 6.1875H13.9283C9.66779 6.1875 6.20312 9.65313 6.20312 13.9147C6.20312 15.605 6.74789 17.1716 7.67418 18.4437L6.71119 21.3144L9.68131 20.3649C10.9032 21.1743 12.3607 21.6418 13.9322 21.6418C18.1928 21.6418 21.6574 18.1752 21.6574 13.9147C21.6574 9.65409 18.1928 6.1875 13.9322 6.1875Z" fill="#222D31"/>
<path d="M18.429 17.1001C18.2426 17.6266 17.5028 18.0631 16.9126 18.1906C16.5089 18.2766 15.9815 18.3452 14.2062 17.6092C11.9353 16.6684 10.473 14.3609 10.359 14.2112C10.2499 14.0614 9.44141 12.9893 9.44141 11.8805C9.44141 10.7716 10.0045 10.2317 10.2315 9.99987C10.4179 9.80959 10.726 9.72266 11.0216 9.72266C11.1172 9.72266 11.2032 9.72749 11.2805 9.73135C11.5075 9.74101 11.6214 9.75453 11.7711 10.1129C11.9576 10.562 12.4115 11.6709 12.4656 11.7848C12.5207 11.8988 12.5757 12.0534 12.4985 12.2031C12.426 12.3576 12.3623 12.4262 12.2483 12.5576C12.1343 12.6889 12.0261 12.7894 11.9122 12.9304C11.8078 13.0531 11.69 13.1844 11.8214 13.4114C11.9527 13.6336 12.4067 14.3744 13.0751 14.9694C13.9376 15.7373 14.6369 15.9826 14.8871 16.0869C15.0735 16.1642 15.2957 16.1458 15.4319 16.001C15.6048 15.8145 15.8182 15.5055 16.0356 15.2012C16.1901 14.9829 16.3852 14.9559 16.59 15.0331C16.7986 15.1056 17.9026 15.6513 18.1296 15.7643C18.3566 15.8783 18.5063 15.9324 18.5614 16.028C18.6155 16.1236 18.6155 16.5728 18.429 17.1001Z" fill="#59B8C5"/>
</g>
<defs>
<clipPath id="clip0_903:55240">
<rect width="15.4543" height="15.4543" fill="white" transform="translate(6.20312 6.1875)"/>
</clipPath>
</defs>
</svg>
