<svg width="40" height="40" viewBox="0 0 40 40" fill="none" xmlns="http://www.w3.org/2000/svg">
<rect width="40" height="40" rx="8" fill="#59B8C5"/>
<rect width="40" height="40" rx="8" fill="white" fill-opacity="0.8"/>
<path fill-rule="evenodd" clip-rule="evenodd" d="M19.9974 8C17.8208 8 15.6165 8.24459 13.9675 8.48588C13.1403 8.60692 12.4469 8.72802 11.959 8.81913C11.715 8.86471 11.5221 8.90284 11.3892 8.92977C11.3227 8.94324 11.2713 8.95392 11.236 8.96134L11.1952 8.96997L11.1841 8.97234L11.1794 8.97336C11.1794 8.97336 11.1794 8.97335 11.1799 8.97601L11.1794 8.97336C11.1548 8.97868 11.1306 8.9849 11.1066 8.99201C10.4989 9.1331 9.95382 9.47112 9.55705 9.95467C9.14194 10.4606 8.91475 11.0945 8.91406 11.7489L8.91406 17.25C8.91406 22.3713 11.3911 25.9951 13.8176 28.3062C15.0298 29.4607 16.2393 30.2988 17.1464 30.849C17.6009 31.1247 17.9819 31.3297 18.2529 31.4673C18.3885 31.5361 18.4968 31.5882 18.5732 31.624C18.607 31.6398 18.6345 31.6525 18.6555 31.662C19.0677 31.8837 19.5287 31.9999 19.9973 32L19.9995 32C20.459 31.999 20.9111 31.8863 21.3168 31.672L21.3314 31.6655C21.3531 31.6557 21.3834 31.6419 21.4216 31.624C21.498 31.5882 21.6063 31.5361 21.7419 31.4673C22.0129 31.3297 22.3939 31.1247 22.8484 30.849C23.7555 30.2988 24.965 29.4607 26.1772 28.3062C28.6037 25.9951 31.0807 22.3713 31.0807 17.25V11.75C31.0809 11.0941 30.8536 10.4583 30.4374 9.95133C30.0229 9.44647 29.4468 9.10038 28.8067 8.97148L28.7996 8.96997L28.7588 8.96134C28.7235 8.95392 28.672 8.94324 28.6056 8.92977C28.4727 8.90284 28.2798 8.86471 28.0357 8.81913C27.5478 8.72802 26.8544 8.60692 26.0273 8.48588C24.3783 8.24459 22.174 8 19.9974 8ZM11.6665 10.9146C11.6393 10.9225 11.6117 10.9292 11.5838 10.9348C11.3951 10.9726 11.2253 11.0745 11.1032 11.2233C10.9812 11.372 10.9144 11.5583 10.9141 11.7506V17.25C10.9141 21.6602 13.0302 24.7942 15.1969 26.8579C16.2813 27.8908 17.3684 28.6445 18.1837 29.139C18.5905 29.3858 18.9271 29.5665 19.1585 29.684C19.2741 29.7427 19.3632 29.7855 19.4213 29.8128L19.5898 29.8934C19.714 29.9631 19.854 29.9998 19.9964 30C20.1382 29.9995 20.2777 29.9628 20.4014 29.8934L20.5735 29.8128C20.6316 29.7855 20.7207 29.7427 20.8363 29.684C21.0677 29.5665 21.4043 29.3858 21.8111 29.139C22.6264 28.6445 23.7135 27.8908 24.7979 26.8579C26.9646 24.7942 29.0807 21.6602 29.0807 17.25V11.75C29.0808 11.557 29.0139 11.3695 28.8915 11.2203C28.7691 11.0712 28.5986 10.9691 28.4093 10.9316L28.3921 10.928L28.3903 10.9276L28.3823 10.9259L28.3479 10.9187C28.3169 10.9122 28.27 10.9024 28.2082 10.8899C28.0846 10.8648 27.9018 10.8287 27.6686 10.7851C27.202 10.698 26.5348 10.5814 25.7377 10.4648C24.1381 10.2307 22.0393 10 19.9974 10C17.9555 10 15.8567 10.2307 14.2571 10.4648C13.46 10.5814 12.7928 10.698 12.3262 10.7851C12.093 10.8287 11.9102 10.8648 11.7866 10.8899C11.7367 10.9 11.6964 10.9083 11.6665 10.9146Z" fill="#59B8C5"/>
<path d="M26.2045 16.0128C26.595 15.6222 26.595 14.9891 26.2045 14.5986C25.814 14.208 25.1808 14.208 24.7903 14.5986L18.5669 20.822L16.1212 18.3762C15.7306 17.9857 15.0975 17.9857 14.707 18.3762C14.3164 18.7668 14.3164 19.3999 14.707 19.7904L17.8598 22.9433C18.0473 23.1308 18.3017 23.2362 18.5669 23.2362C18.8321 23.2362 19.0865 23.1308 19.274 22.9433L26.2045 16.0128Z" fill="#59B8C5"/>
</svg>
